<svg xmlns="http://www.w3.org/2000/svg" xmlns:xlink="http://www.w3.org/1999/xlink" viewBox="0 0 500 500"><defs><style>.cls-1{fill:none;}.cls-2{isolation:isolate;}.cls-12,.cls-3{fill:#6ec6e1;}.cls-3{opacity:0.23;}.cls-22,.cls-4{fill:#538584;}.cls-21,.cls-33,.cls-5,.cls-8{fill:#390903;}.cls-5{opacity:0.5;}.cls-19,.cls-6{fill:#fe9b4b;}.cls-7{opacity:0.59;}.cls-9{opacity:0.57;}.cls-10,.cls-20,.cls-34,.cls-36{fill:#fb5a46;}.cls-11{opacity:0.3;}.cls-13{fill:#e84b3f;}.cls-14,.cls-15,.cls-17{fill:#ffaca3;}.cls-15,.cls-17,.cls-19,.cls-25,.cls-32,.cls-34,.cls-36{mix-blend-mode:multiply;}.cls-15{opacity:0.51;}.cls-16{opacity:0.34;}.cls-18{clip-path:url(#clip-path);}.cls-19,.cls-28{opacity:0.17;}.cls-20,.cls-29{opacity:0.49;}.cls-21{opacity:0.25;}.cls-22,.cls-25{opacity:0.42;}.cls-23{opacity:0.69;}.cls-24,.cls-25{fill:#974e46;}.cls-26{opacity:0.22;}.cls-27{clip-path:url(#clip-path-2);}.cls-30{clip-path:url(#clip-path-3);}.cls-31{fill:#f9d5b3;}.cls-32{opacity:0.53;}.cls-33{opacity:0.47;}.cls-35,.cls-40{fill:#fff;}.cls-35{opacity:0.33;}.cls-36{opacity:0.19;}.cls-37{clip-path:url(#clip-path-4);}.cls-38{opacity:0.38;}.cls-39{clip-path:url(#clip-path-5);}</style><clipPath id="clip-path"><path class="cls-1" d="M292.54,124.18h-.23c-7.4-32.71-38.66-30.37-38.66-30.37-30.28-.95-37.86,25.34-39.47,33.36l-34.56,20.17s31.85-4.35,50.67-1.45,66.59,1.45,73.83,0,26.78-2.17,26.78-2.17Z"/></clipPath><clipPath id="clip-path-2"><path class="cls-1" d="M157.24,346.4a39.42,39.42,0,0,0-2.23,13c0,33.18,42.29,60.08,94.46,60.08s94.46-26.9,94.46-60.08a39.43,39.43,0,0,0-2.24-13Z"/></clipPath><clipPath id="clip-path-3"><path class="cls-1" d="M394.59,317.16c-.07-10-11.28-19.17-30-26.32.94-4.38,1.86-12.16-2.19-16.15s-13.44,4.44-18.56,9.78c-23.75-5.85-54.09-9.25-87.12-9-75.95.56-137.38,20.13-137.21,43.71s61.89,42.26,137.84,41.7a401.27,401.27,0,0,0,63.33-5.27c8.78,6,20.12,7.16,24.06,5.43,4.84-2.12,5.19-9.53,5.19-9.53A124,124,0,0,0,363,355.76c3.77.91,3.31-6.64,2.53-12.06C383.81,336.31,394.66,327.09,394.59,317.16Z"/></clipPath><clipPath id="clip-path-4"><path class="cls-1" d="M178.51,328.29s-8.78,5.69-3.71,11,31.63,38.94,38.49,37.69S196,331.64,191.34,325.41,178.51,328.29,178.51,328.29Z"/></clipPath><clipPath id="clip-path-5"><path class="cls-1" d="M200.86,323s-10,3.05-6.61,9.59,19.69,46.14,26.63,46.83-4.11-48.38-6.89-55.66S200.86,323,200.86,323Z"/></clipPath></defs><g class="cls-2"><g id="OBJECTS"><circle class="cls-3" cx="257.65" cy="245" r="183.04" transform="translate(-97.78 253.95) rotate(-45)"/><path class="cls-4" d="M303.66,396.59c6.2-11.64,20.59-16.94,33.75-16.19s25.47,6.42,37.41,12l25.72,12-37.22,12c-5.45,1.75-11,3.52-16.69,3.93a52.34,52.34,0,0,1-17.43-2.16,95.4,95.4,0,0,1-25-10.87Z"/><path class="cls-5" d="M318.86,397.86l.62.4c5.41-.26,11.83-.49,18.7-.59l-.3-.45,12.08-8,.54.81L339,397.66c4.79-.06,9.79-.06,14.79,0l.52-.45.42.48c17,.4,34,2,43.34,6.25l-.4.89c-9.1-4.12-25.49-5.73-42.07-6.16l7.73,8.72-.73.64-8.33-9.39c-12-.27-24.07.06-33.39.49l11.8,7.76-.54.81-12.91-8.5c-9.25.45-15.46,1-15.67,1l-.08-1c.2,0,6.17-.51,15.11-.95Z"/><path class="cls-6" d="M191.12,383.77c2.46.51-99.27-104.22-115.84-83S170.44,379.49,191.12,383.77Z"/><g class="cls-7"><path class="cls-8" d="M190.4,384.2C175,368.3,76.65,302.07,75.66,301.4l.54-.81c1,.67,99.46,67,114.9,82.93Z"/></g><g class="cls-9"><path class="cls-6" d="M172.7,344.21c1.63,1.92-14-143.24-40.18-136.72S159,328.11,172.7,344.21Z"/><g class="cls-7"><path class="cls-8" d="M171.88,344.11c-2.33-22-39.07-134.75-39.44-135.89l.92-.3c.37,1.13,37.15,114,39.48,136.09Z"/></g></g><path class="cls-4" d="M142.15,326.06c9.51-9.13,10.7-24.42,6.4-36.88s-13.11-22.76-21.72-32.74Q117.55,245.7,108.28,235L106.9,274c-.2,5.72-.4,11.51.76,17.12a52.59,52.59,0,0,0,6.82,16.19,95.69,95.69,0,0,0,17.26,21.09Z"/><path class="cls-5" d="M136.79,311.77l-.55-.48c-1.23-5.28-2.75-11.53-4.52-18.16l.51.17,4.44-13.81-.92-.3-4.24,13.17c-1.24-4.63-2.6-9.44-4.07-14.23l.3-.61-.57-.28c-5-16.25-11.17-32.14-17.81-40l-.74.63c6.44,7.64,12.44,23,17.37,38.81l-10.5-5.07-.42.88,11.31,5.46c3.53,11.51,6.48,23.18,8.61,32.27L124.31,301l-.64.74,11.69,10.12c2.09,9,3.29,15.13,3.33,15.33l.95-.18c0-.2-1.19-6.07-3.2-14.79Z"/><path class="cls-4" d="M208.74,391.73c-6.21-11.63-20.59-16.94-33.75-16.19s-25.47,6.43-37.42,12l-25.71,12,37.22,11.95c5.45,1.75,11,3.51,16.68,3.92a52.31,52.31,0,0,0,17.43-2.16,95.44,95.44,0,0,0,25-10.86Z"/><path class="cls-5" d="M193.53,393l-.61.41c-5.41-.26-11.84-.49-18.7-.6l.29-.44-12.08-8-.53.81,11.51,7.65c-4.79-.06-9.78-.06-14.79.05l-.51-.45-.42.47c-17,.4-34,2-43.34,6.26l.4.88c9.1-4.12,25.49-5.73,42.07-6.16l-7.74,8.72.73.65,8.33-9.4c12-.27,24.07.07,33.4.49l-11.8,7.76.53.82,12.92-8.5c9.25.44,15.45.95,15.66,1l.08-1c-.2,0-6.16-.5-15.1-.94Z"/><path class="cls-10" d="M178.34,378.19a15.4,15.4,0,0,1-17.57,9.61c-5.54-1.36-10.21-5.84-15.9-5.92-6.59-.1-12.21,5.79-18.78,5.46-5.14-.26-9.34-4.24-14.34-5.46-4.17-1-8.53,0-12.73.86-4.79,1-11.14,1.21-13.14-3.27-2.11-4.73,3.22-9.68,8.33-10.57s10.56.27,15.38-1.61c4.08-1.59,7-5.11,10.53-7.76s8.43-4.44,12.14-2.13c1.17.73,2.12,1.81,3.42,2.25,2.4.82,4.86-.81,7-2.2,6.23-4.11,13.74-6.91,21.11-5.76s14.29,7.11,14.75,14.56Z"/><g class="cls-11"><path class="cls-8" d="M181.11,368.77l-.24.94c-24.94-6.36-94.89,7.73-95.59,7.87l-.19-.95C85.79,376.49,156,362.35,181.11,368.77Z"/></g><path class="cls-6" d="M324.19,385.71c-2.46.51,99.27-104.22,115.84-83S344.87,381.43,324.19,385.71Z"/><g class="cls-7"><path class="cls-8" d="M324.91,386.14c15.37-15.89,113.74-82.13,114.74-82.8l-.55-.81c-1,.67-99.45,67-114.89,82.94Z"/></g><g class="cls-7"><path class="cls-6" d="M342.6,346.16c-1.62,1.91,14.06-143.25,40.18-136.72S356.26,330.05,342.6,346.16Z"/><g class="cls-7"><path class="cls-8" d="M343.43,346.05c2.33-22,39.07-134.75,39.44-135.89l-.93-.3c-.37,1.14-37.14,114-39.48,136.09Z"/></g></g><path class="cls-4" d="M366.66,356c3.15-8.39,12.38-13.24,21.32-13.9s17.74,2.08,26.28,4.79l18.4,5.81-24,11.35a48.88,48.88,0,0,1-10.9,4.12,35.71,35.71,0,0,1-11.94.09,65.32,65.32,0,0,1-17.8-5.12Z"/><path class="cls-5" d="M377,355.49l.45.22c3.63-.65,7.94-1.38,12.56-2l-.24-.28,7.43-6.48.43.5-7.08,6.18c3.22-.47,6.59-.91,10-1.28l.31-.35.32.28c11.5-1.23,23.08-1.64,29.77.39l-.19.63c-6.5-2-17.69-1.61-28.9-.43l6,5.2-.43.49L401,352.92c-8.14.88-16.22,2.17-22.47,3.28l8.64,4.19-.28.59-9.46-4.58c-6.2,1.11-10.34,2-10.48,2l-.14-.65c.14,0,4.11-.88,10.1-2Z"/><path class="cls-10" d="M337,380.13a15.38,15.38,0,0,0,17.57,9.61c5.54-1.35,10.2-5.84,15.9-5.92,6.58-.09,12.2,5.79,18.78,5.46,5.14-.26,9.34-4.24,14.34-5.46,4.17-1,8.53,0,12.72.86,4.8,1,11.14,1.21,13.14-3.27,2.12-4.73-3.21-9.67-8.32-10.57s-10.56.27-15.39-1.61c-4.07-1.59-7-5.1-10.52-7.75S386.76,357,383,359.34c-1.16.73-2.12,1.81-3.41,2.26-2.4.81-4.86-.81-7-2.21-6.23-4.11-13.74-6.91-21.12-5.76s-14.29,7.11-14.74,14.56Z"/><g class="cls-11"><path class="cls-8" d="M334.2,370.71l.24.94c24.94-6.36,94.88,7.73,95.59,7.87l.19-.95C429.51,378.43,359.35,364.29,334.2,370.71Z"/></g><path class="cls-12" d="M348.59,365.59c8.8,2.83,19.37-2,23-10.5,2.81-6.62,1.8-14.73,6-20.54,4.88-6.72,15.07-8,19.71-14.85,3.62-5.39,2.77-12.64,5.32-18.62,2.12-5,6.41-8.64,10.48-12.21,4.66-4.07,9.64-10.34,6.63-15.75-3.19-5.71-12.22-4.06-17,.43s-7.7,10.87-13.25,14.33c-4.69,2.92-10.48,3.25-15.79,4.77s-10.86,5.16-11.33,10.67c-.15,1.72.22,3.51-.31,5.15-1,3-4.49,4.3-7.5,5.39-8.86,3.19-17.36,8.66-21.78,17s-3.61,19.81,3.58,25.9Z"/><g class="cls-11"><path class="cls-8" d="M337,361.27l1.13.47c12.42-30,79.51-90.05,80.19-90.65l-.81-.92C416.8,270.78,349.49,331,337,361.27Z"/></g><path class="cls-13" d="M178.89,148S286,175.88,329.45,143.73l-137.53-1.45Z"/><path class="cls-10" d="M368.89,302.19c-24.71-49.5-51.15-68.69-51.15-68.69l-.18,0a.3.3,0,0,0,0-.08l-40.91-12.27-52.12,1.45-49.22,15.92s0,.11.07.31c-.31-.06-.6-.14-.92-.19,0,0-24.84,20.34-48.41,73.21,0,0-6.37,25.63,13.72,20.65,14-3.46,34.91-26.83,46.29-40.67,3.56,18.53,6.63,35.92,6.63,40.79,0,11.58-11.59,88.31-11.59,88.31s121.61,11.58,137.53-1.45l-17.37-91.2,8.1-40.5c12.54,13,31.39,30.52,44.64,33.49C375.46,326.14,368.89,302.19,368.89,302.19Z"/><path class="cls-14" d="M274.32,220.12l2-2.3-2.49-.13-3-13.88-42-5.79-4,22.43a4.85,4.85,0,0,0-2.39,1.94l27.94,25.53L268,227.47a31.46,31.46,0,0,0,7.16-3.4Z"/><path class="cls-15" d="M272.43,211.31l-1.61-7.5-42-5.79-2,11.37C240.31,218.94,257.9,218.75,272.43,211.31Z"/><path class="cls-14" d="M288.56,157.75s.56-4.31,6.3-3.55,1.29,19.68-7.79,24.06C287.07,178.26,284.37,167.42,288.56,157.75Z"/><path class="cls-14" d="M289.64,143a36.19,36.19,0,1,0-72.38,0s-.21,1.08-.47,3c-1.86,13.26-6.79,66.34,33.76,65.07C250.55,211,295.43,224.07,289.64,143Z"/><path class="cls-8" d="M266.48,168.34a.73.73,0,0,1-.73-.73c0-.32.06-8,5.07-8s5.07,7.64,5.07,8a.73.73,0,0,1-.73.73h0a.72.72,0,0,1-.72-.72c0-.07-.05-6.52-3.62-6.52s-3.62,6.45-3.62,6.51A.73.73,0,0,1,266.48,168.34Z"/><path class="cls-8" d="M231.73,168.34a.73.73,0,0,1-.72-.73c0-.32.06-8,5.07-8s5.06,7.64,5.06,8a.73.73,0,0,1-.72.73h0a.72.72,0,0,1-.72-.72c0-.07-.06-6.52-3.62-6.52s-3.62,6.45-3.62,6.51A.73.73,0,0,1,231.73,168.34Z"/><path class="cls-8" d="M224.63,152.45s9-6.44,19.79-4.39l-.79,3.14s-9.11-.95-17,3.76Z"/><path class="cls-8" d="M282.09,154.71s-8.39-7.15-19.36-6l.53,3.19s9.15-.19,16.59,5.15Z"/><path class="cls-10" d="M254.67,181.21a14.4,14.4,0,0,1-5.89-1.37.72.72,0,0,1-.32-1,.73.73,0,0,1,1-.32s5.47,2.67,9.41,0a.72.72,0,0,1,1,.2.73.73,0,0,1-.2,1A8.81,8.81,0,0,1,254.67,181.21Z"/><path class="cls-10" d="M254.57,192.44a26.65,26.65,0,0,1-13.1-4,.72.72,0,0,1-.21-1,.74.74,0,0,1,1-.2c.12.08,12.7,8.27,22.29.05a.72.72,0,1,1,.94,1.1A16.35,16.35,0,0,1,254.57,192.44Z"/><path class="cls-8" d="M286.91,168.24c0-3.29-.11-6.84,1.11-9.83a7,7,0,0,1,5.78-4.55l.91-13H283.62s-1.11,18.82,0,24.61c1.05,5.49,3.09,3.18,3.3,2.92C286.92,168.32,286.91,168.28,286.91,168.24Z"/><path class="cls-14" d="M218.17,157.75s-.57-4.31-6.31-3.55-1.29,19.68,7.79,24.06C219.65,178.26,222.36,167.42,218.17,157.75Z"/><path class="cls-8" d="M219.81,168.24c0-3.29.12-6.84-1.11-9.83a7,7,0,0,0-5.77-4.55l-.91-13h11.09s1.11,18.82,0,24.61c-1.05,5.49-3.1,3.18-3.31,2.92C219.8,168.32,219.81,168.28,219.81,168.24Z"/><g class="cls-16"><path class="cls-10" d="M215.1,170a2.6,2.6,0,0,1-2-1.14c-2-2.5-2.86-9.69-1.41-11.14a1.65,1.65,0,0,1,1.48-.5c1.54.26,2.81,2.74,3.05,3.24a.72.72,0,0,1-.34,1,.7.7,0,0,1-1-.34c-.54-1.1-1.47-2.35-2-2.43,0,0-.1,0-.22.1-.72.77-.23,7,1.57,9.26.58.72,1,.58,1.29.39a.71.71,0,0,1,1,.25.72.72,0,0,1-.24,1A2.38,2.38,0,0,1,215.1,170Z"/></g><g class="cls-16"><path class="cls-10" d="M290.7,171.42a2.59,2.59,0,0,0,2-1.14c2-2.51,2.87-9.69,1.42-11.14a1.64,1.64,0,0,0-1.49-.5c-1.54.26-2.81,2.74-3,3.23a.72.72,0,0,0,.33,1,.73.73,0,0,0,1-.34c.54-1.1,1.46-2.35,2-2.44,0,0,.09,0,.21.1.73.78.24,7.05-1.56,9.27-.59.72-1,.58-1.29.39a.73.73,0,0,0-1,.24.74.74,0,0,0,.25,1A2.35,2.35,0,0,0,290.7,171.42Z"/></g><path class="cls-17" d="M213.68,141.25l81-.42-.8,9.79s-73,2.34-81-3l-.74-6.79Z"/><g class="cls-18"><path class="cls-6" d="M292.54,124.18h-.23c-7.4-32.71-38.66-30.37-38.66-30.37-30.28-.95-37.86,25.34-39.47,33.36l-34.56,20.17s31.85-4.35,50.67-1.45,66.59,1.45,73.83,0,26.78-2.17,26.78-2.17Z"/><path class="cls-19" d="M242,145.49c-13.12-2-20.53-13.9-16.36-26.71,3.23-9.92,11.25-17,18.51-24.27-22.42,4.14-28.54,25.57-30,32.67l-34.56,20.17s31.85-4.35,50.67-1.45c9.93,1.53,27.92,1.85,43.76,1.59A206.93,206.93,0,0,1,242,145.49Z"/><path class="cls-20" d="M313.81,133.33l-.56-.92c-3.13,1.89-8.46,3.23-15.16,4.15-5.52-4.59-9.37-8.43-9.3-9.87,5.23-.83,9.25-2,11.31-3.52l-.65-.87c-1.89,1.42-5.6,2.48-10.45,3.27.26-2.48-1-7.49-2.38-12.24a19.74,19.74,0,0,0,4.73-1.7l-.53-.95a18.06,18.06,0,0,1-4.52,1.61c-1.46-4.76-3-9.07-3.39-10l-1,.38c.83,2.23,2.14,6,3.34,9.88a68.44,68.44,0,0,1-7.58,1.07c-.93-3.59-2-7.26-2.83-10.28,6.17-.51,11.18-1.53,13.69-3.31l-.63-.89c-2.39,1.7-7.3,2.66-13.37,3.14-.93-3.19-1.63-5.46-1.72-5.75l-1,.32c0,.07.71,2.29,1.65,5.51-1.73.12-3.53.2-5.4.25-.38-5-1.15-9.21-2.59-10.65l-.76.77c1.23,1.23,1.92,5.08,2.27,9.9-3,.07-6.2,0-9.37,0l.78-10.23-1.08-.09-.79,10.29c-2.45-.06-4.89-.15-7.27-.26,1.79-5.36,3.83-9.67,6-11l-.56-.93c-2.4,1.44-4.62,6.13-6.53,11.85-2.91-.15-5.72-.32-8.31-.5a23.71,23.71,0,0,1,5.73-7.33l-.66-.86a25.64,25.64,0,0,0-6.28,8.11c-2.52-.18-4.82-.36-6.8-.53a25.43,25.43,0,0,1,6.07-6.93l-.63-.89a27.7,27.7,0,0,0-6.67,7.71c-3.6-.32-5.88-.56-6-.57l-.11,1.08c.39,0,2.39.26,5.46.53a90.12,90.12,0,0,0-5.31,10.58c-4.39-.34-7.15-.6-7.28-.61l-.11,1.08c.48,0,3,.29,6.94.59-2.31,5.51-4,10.57-4.8,13.18-4.74-.2-7.7-.36-7.84-.37l-.06,1.08c.55,0,3.32.19,7.56.37-.06.21-.12.4-.15.53l-12.51,7.53c-6.5-.46-10.55-.81-10.75-.82l-.1,1.08c.1,0,3.55.31,9.23.72l-16.81,10.12.56.93,18.13-10.92c4,.29,8.93.61,14.42.92L214,145.53l.78.74,7.69-8.11c4.73.26,9.84.51,15.16.72l-4.53,9.25,1,.48,4.75-9.68c2.81.1,5.66.2,8.54.27,2.15.06,4.24.1,6.3.14l-.72,9.41,1.08.09.73-9.48c3.2,0,6.3.08,9.27.08,1.86,0,3.66,0,5.42,0l2.33,9.51,1.06-.25-2.28-9.28c4.15-.06,8.05-.17,11.65-.34,1.86,5.07,3.92,9.62,4.08,10l1-.45c0-.08-2.06-4.56-3.93-9.59q8.24-.43,14.48-1.28l1.11.92c5.91,4.76,12.08,9.13,12.14,9.17l.63-.89c-4.37-3.08-8.71-6.36-12.43-9.39Q309.38,136,313.81,133.33Zm-28.27-19.76c1.55,5.16,2.78,10.29,2.32,12.17-2.34.35-4.91.64-7.65.88,0-2.4-1-7-2.29-11.94A69,69,0,0,0,285.54,113.57Zm-29.92,14,.95-12.27,4.36,0c2.13,0,4.24,0,6.3-.08-.05,4.63-.23,9-.41,12.1C263.15,127.5,259.39,127.57,255.62,127.6ZM245.69,115c3.2.12,6.49.22,9.79.28l-.95,12.29c-3.87,0-7.72,0-11.44,0C243.66,124.47,244.55,119.91,245.69,115ZM242,127.54c-4-.05-7.85-.14-11.37-.24.71-2.9,2-7.72,3.75-12.85,3.17.19,6.61.38,10.21.53C243.43,119.91,242.54,124.48,242,127.54Zm26.33-12.29c3-.09,5.84-.24,8.5-.47,1.27,5,2.28,9.64,2.3,11.93-3.52.28-7.3.49-11.21.63C268,125.21,268.26,120.55,268.32,115.25Zm5.39-11.83c.87,3,1.91,6.68,2.84,10.29-2.57.21-5.34.35-8.22.43,0-3.45,0-7.1-.25-10.45C270,103.64,271.91,103.55,273.71,103.42Zm-11.1.35c1.48,0,2.95,0,4.39,0,.2,3.27.26,6.91.24,10.45-3.43.08-7,.09-10.59,0l.81-10.49C259.18,103.75,260.91,103.77,262.61,103.77Zm-6.24-.08-.8,10.5c-3.24,0-6.47-.15-9.62-.27.85-3.54,1.82-7.18,2.88-10.51C251.3,103.53,253.83,103.63,256.37,103.69Zm-8.64-.33c-1.08,3.35-2,7-2.89,10.51-3.54-.14-7-.32-10.1-.51a83.88,83.88,0,0,1,4.46-10.52C241.85,103,244.73,103.21,247.73,103.36Zm-16.61-1.16c2,.18,4.31.37,6.89.56a83.17,83.17,0,0,0-4.42,10.53c-2.91-.18-5.55-.36-7.83-.53A87.79,87.79,0,0,1,231.12,102.2Zm-5.81,11.62c2.29.18,5,.37,7.9.56-1.77,5.2-3,10-3.71,12.89-3.38-.1-6.43-.21-9-.32C221.33,124.25,223,119.22,225.31,113.82Zm-17.08,22.36,11.54-7,.06-.21s.11-.38.3-1c2.61.11,5.69.22,9.11.33-.15.65-.26,1.12-.31,1.36L222,137C216.84,136.75,212.16,136.45,208.23,136.18Zm15.2.93,6.39-6.74.11-.11,0-.15s.14-.67.39-1.71c3.54.11,7.4.2,11.44.26-.24,1.34-.39,2.27-.45,2.6l-3.2,6.54C233,137.6,228,137.36,223.43,137.11Zm15.89.73,3-6.18.05-.15c0-.06.18-1.12.49-2.84,2.74,0,5.55.06,8.39.06h3.17l-.73,9.52C248.86,138.15,244,138,239.32,137.84Zm15.48.41.74-9.54c3.76,0,7.54-.1,11.21-.22v.06l2.39,9.75C264.43,138.35,259.61,138.33,254.8,138.25Zm15.45,0-2.41-9.84h0c3.94-.15,7.75-.36,11.31-.65A43.3,43.3,0,0,0,281.77,138C278.07,138.12,274.2,138.23,270.25,138.29Zm12.66-.4c-1.35-3.76-2.54-7.67-2.68-10.18,2.65-.24,5.15-.52,7.44-.85.14,1.17,1.59,3.71,9,9.89C292.48,137.27,287.85,137.64,282.91,137.89Z"/></g><path class="cls-21" d="M189.12,268.28l-5.15,0,0,1.45,5.37.05c.46,3.35,1,6.86,1.44,10.49l1.49.22c-.5-3.7-1-7.28-1.47-10.69,4.52,0,10.95.1,18.53.13.52,3.73,1.05,7.61,1.6,11.59h1.46c-.54-4-1.08-7.85-1.6-11.57l13.58,0c.67,3.62,1.35,7.37,2,11.18l1.47-.05-2-11.14,13.2,0c.55,3.51,1.11,7.19,1.69,11h1.46c-.57-3.77-1.14-7.45-1.68-11,4,0,8-.05,12-.09l.54,11.05h1.45L254,269.76c3.71,0,7.38-.1,11-.17l-.28,11.23h1.44l.29-11.24c3.95-.08,7.79-.17,11.44-.29l-.63,11.49h1.45l.64-11.53c8.72-.28,16.29-.67,21.7-1.21l-1.9,13.16,1.45.06,1.93-13.37a30.21,30.21,0,0,0,6.25-1.15l-.5-1.35a27.55,27.55,0,0,1-5.54,1l1.64-11.32a35.37,35.37,0,0,0,5.84-1.38l-.49-1.36a32.52,32.52,0,0,1-5.13,1.24l3.2-22.17-1.43-.21L303,253.84a198.59,198.59,0,0,1-23,1.55l1.64-29.83-1.45-.08-1.64,29.94c-3.8.07-7.77.1-11.85.09l.46-18.39-1.45,0-.46,18.42c-3.94,0-8-.07-12-.15l-.54-11-1.44.07.53,11c-4.55-.1-9.13-.22-13.64-.37-1.66-10.63-2.78-17.71-2.83-18l-1.43.23c.05.26,1.15,7.21,2.79,17.7-4.7-.16-9.32-.34-13.75-.53-3.16-17-5.48-28.94-5.56-29.3l-1.42.27c.07.37,2.36,12.18,5.5,29-4.58-.2-8.94-.41-12.95-.61-2-14.44-3.45-24.15-3.49-24.48l-1.43.21c0,.32,1.43,9.91,3.44,24.2-8.08-.42-14.65-.81-18.67-1.06-1.46-10.22-2.42-16.71-2.46-17l-1.44.21c0,.26,1,6.63,2.42,16.66L184,252.3l-.1,1.45,3.19.21C187.7,258.2,188.38,263,189.12,268.28ZM280,256.86a202.61,202.61,0,0,0,22.85-1.53l-1.62,11.25c-5.32.53-13,.92-21.83,1.21ZM266.7,257h1.36c3.59,0,7.08,0,10.45-.1l-.61,10.94c-3.66.11-7.51.2-11.48.28Zm-1.45,0L265,268.14c-3.62.06-7.33.12-11.08.16l-.56-11.46C257.35,256.92,261.34,257,265.25,257Zm-13.37-.17.56,11.51c-4.05,0-8.13.07-12.18.09-.66-4.28-1.28-8.3-1.85-12C242.86,256.6,247.38,256.72,251.88,256.81Zm-14.95-.4,1.87,12-13.25,0c-.8-4.39-1.58-8.6-2.32-12.56C227.65,256.08,232.25,256.26,236.93,256.41Zm-15.18-.59c.74,4,1.52,8.22,2.33,12.63l-13.51,0c-.65-4.7-1.27-9.13-1.85-13.23C212.77,255.41,217.15,255.62,221.75,255.82Zm-14.5-.69c.58,4.11,1.2,8.57,1.86,13.29-7.62,0-14.07-.08-18.53-.12-.73-5.22-1.4-10-2-14.25C192.71,254.32,199.25,254.71,207.25,255.13Z"/><path class="cls-12" d="M201.33,228.42l7.24,46.32,78.17-1.45h2.9L294,225.52l8.69,1.45,1.45,85.41L320,419.51s-44.88,15.92-139,1.45l8.51-108.12,1.63-36.65-1.45-43.43Z"/><polygon class="cls-22" points="215.81 287.77 283.85 287.77 282.4 313.83 252 329.75 217.26 313.83 215.81 287.77"/><path class="cls-13" d="M225.51,213.53l-15.13,13.72,19.91,9.85-10.14,5.79,26.78,16.65,5.79-14.48S223.63,221.81,225.51,213.53Z"/><path class="cls-13" d="M273.7,214.66,287.47,228l-18.12,9.61,9.23,5.64-23,16.27-4.71-14.86S275.41,222.73,273.7,214.66Z"/><g class="cls-23"><path class="cls-8" d="M185.41,291.39h-.07a.72.72,0,0,1-.65-.79c1.42-15.63-5.71-48.67-5.78-49a.72.72,0,1,1,1.41-.31c.3,1.37,7.25,33.59,5.81,49.44A.73.73,0,0,1,185.41,291.39Z"/></g><g class="cls-23"><path class="cls-8" d="M309.91,288.49a.72.72,0,0,1-.71-.58c-2.89-14.45,4-50.85,4.34-52.39a.72.72,0,1,1,1.42.27c-.07.38-7.18,37.67-4.34,51.84a.73.73,0,0,1-.57.85Z"/></g><path class="cls-21" d="M186,275.82a.72.72,0,0,0-1-.25c-2,1.22-5.09,5.16-8.44,10.25-1.8-3.92-3.71-8.64-5.5-13.33,4.31-6,8.54-10.81,12.2-12.89a.73.73,0,1,0-.72-1.26c-3.68,2.1-7.86,6.7-12.1,12.51-1.64-4.33-3.15-8.55-4.36-12,4.71-5.35,9.5-9.52,14.12-11.61a.71.71,0,0,0,.36-.95.73.73,0,0,0-1-.37c-4.37,2-9.07,5.77-14.07,11.34-1.32-3.79-2.15-6.31-2.19-6.4a.72.72,0,0,0-1.37.45c.13.41,1.06,3.2,2.45,7.21a135.22,135.22,0,0,0-9.88,13.13c-1.5-3-2.44-5.05-2.48-5.13a.72.72,0,1,0-1.31.61c.16.34,1.23,2.63,2.85,5.91q-4.69,7.13-9.66,16l-.25.45c-2.24-2.35-3.69-4-3.74-4a.72.72,0,0,0-1-.06.73.73,0,0,0-.06,1c.22.25,1.77,2,4.08,4.38-2.41,4.36-4.63,8.61-6.61,12.54-2.72-1.48-4.7-2.64-5.36-3-.18.45-.38.9-.59,1.33.81.48,2.73,1.6,5.29,3-5.41,10.85-8.84,18.89-8.89,19a.73.73,0,0,0,.39.95.71.71,0,0,0,.28.06.74.74,0,0,0,.67-.44c.09-.23,3.48-8.15,8.84-18.88,3.05,1.64,6.76,3.54,10.46,5.18-3.26,6.56-5.39,11.22-5.68,11.85a.74.74,0,0,0,.36,1,.8.8,0,0,0,.3.06.71.71,0,0,0,.66-.42c.07-.16,2.27-5,5.71-11.86,4.16,1.78,8.2,3.15,11.15,3.38-2,3.74-3.33,6.32-3.54,6.73a.73.73,0,0,0,.31,1,.8.8,0,0,0,.33.08.72.72,0,0,0,.65-.39c.07-.15,2.74-5.32,6.45-12.12a17.92,17.92,0,0,0,3.64,1.83.59.59,0,0,0,.23,0,.72.72,0,0,0,.22-1.41,16.4,16.4,0,0,1-3.39-1.72c1.42-2.59,3-5.37,4.58-8.17a17.23,17.23,0,0,0,4,4,.73.73,0,1,0,.75-1.25,16.71,16.71,0,0,1-4-4.05c2.05-3.54,4.16-7.07,6.18-10.26a28.54,28.54,0,0,0,4.15,6.76.72.72,0,0,0,1-1c-1.18-1.18-2.67-3.79-4.27-7.15,3.41-5.27,6.5-9.36,8.47-10.54A.73.73,0,0,0,186,275.82Zm-21-15.69c1.24,3.54,2.77,7.8,4.42,12.14-2.71,3.83-5.44,8.11-8.07,12.52-2.29-4.17-4.41-8.31-6-11.6A140.62,140.62,0,0,1,165,260.13Zm-10.62,14.46c1.68,3.38,3.82,7.52,6.11,11.66-2.53,4.3-5,8.68-7.16,12.85-3.17-3-6.19-6-8.56-8.5C147.76,285.27,151,279.8,154.41,274.59Zm-6.29,34.66c-3.68-1.64-7.4-3.54-10.45-5.19,1.91-3.79,4.06-7.9,6.39-12.12,2.4,2.49,5.42,5.53,8.59,8.49C151,303.57,149.47,306.54,148.12,309.25Zm12.6,3.85c-2.76,0-6.91-1.41-11.25-3.26,1.29-2.57,2.75-5.4,4.31-8.37A86.44,86.44,0,0,0,163,309Q161.75,311.18,160.72,313.1Zm2.93-5.38a88.91,88.91,0,0,1-9.17-7.58c2.13-4,4.46-8.23,6.88-12.39a115.27,115.27,0,0,0,7.14,11.35C166.79,302.06,165.15,305,163.65,307.72Zm5.63-10a127.35,127.35,0,0,1-7.07-11.45c2.57-4.35,5.23-8.58,7.88-12.38,1.82,4.73,3.76,9.44,5.58,13.32C173.58,290.49,171.4,294.1,169.28,297.75Z"/><path class="cls-21" d="M356.36,296.57a38.59,38.59,0,0,0,4.73-3.94.73.73,0,0,0-1-1,36,36,0,0,1-4.5,3.76c-2.89-4.34-6.12-8.95-9.48-13.58a59,59,0,0,0,5-9.68.73.73,0,0,0-1.36-.51,53.84,53.84,0,0,1-4.61,8.91c-2.72-3.73-5.51-7.46-8.25-11.06a62,62,0,0,0,2.66-7.54.73.73,0,0,0-.51-.89.74.74,0,0,0-.89.51,59.29,59.29,0,0,1-2.27,6.59c-2.7-3.53-5.32-6.91-7.75-10,1.08-2.75,2-5.39,2.73-7.75a.73.73,0,0,0-1.39-.42c-.63,2.1-1.45,4.42-2.38,6.85-6.9-8.76-12.1-15.09-12.76-15.89a.73.73,0,0,0-1-.09.72.72,0,0,0-.09,1c.17.2,5.77,7,13.25,16.55-1.46,3.66-3.14,7.5-4.83,11.19-5.22-6.5-9-11.17-9.56-11.79a.73.73,0,0,0-1-.1.74.74,0,0,0-.1,1c2.92,3.55,6.36,7.79,10,12.33-2.09,4.51-4.14,8.69-5.74,11.87-2.82-2.79-4.78-4.66-5.08-4.94a.72.72,0,0,0-1,0,.73.73,0,0,0,0,1c.08.07,2.23,2.13,5.39,5.26-1.42,2.8-2.35,4.56-2.39,4.63a.74.74,0,0,0,.3,1,.71.71,0,0,0,.34.08.73.73,0,0,0,.64-.38c0-.06.88-1.66,2.19-4.24,2,2,4.35,4.38,6.78,6.92-1.89,2.77-3.16,4.47-3.21,4.53a.72.72,0,0,0,.15,1,.7.7,0,0,0,.43.15.72.72,0,0,0,.58-.29c0-.05,1.26-1.68,3.07-4.33,2.37,2.48,4.79,5.09,7.06,7.66-1.58,2-2.6,3.22-2.64,3.27a.73.73,0,0,0,.09,1,.75.75,0,0,0,.47.17.72.72,0,0,0,.55-.26c.16-.19,1.1-1.32,2.51-3.09,1.1,1.26,2.16,2.5,3.15,3.71l-.33.11a.72.72,0,0,0,.23,1.41l.23,0,.84-.29c3.12,3.9,5.41,7.32,6,9.52a.72.72,0,0,0,.7.54l.18,0a.73.73,0,0,0,.52-.89c-.6-2.29-2.88-5.75-6-9.67,2-.75,5.12-2,8.6-3.67,5.57,7.59,9.51,13.51,9.91,15.51a.73.73,0,0,0,.71.59l.14,0a.72.72,0,0,0,.57-.85c-.44-2.2-4.51-8.33-10-15.87a73.31,73.31,0,0,0,8.27-4.77c6.14,9.32,10.45,17.15,10.45,20.78a.73.73,0,0,0,.73.73.73.73,0,0,0,.72-.73C367.09,314.28,362.66,306.16,356.36,296.57Zm-12-14.73c-1.87,3-4,6-6,8.85-2.42-3.15-4.9-6.33-7.33-9.41A115.5,115.5,0,0,0,336.23,271C338.92,274.53,341.66,278.19,344.32,281.84Zm-16.81-22.17c2.44,3.12,5.05,6.49,7.72,10A114.36,114.36,0,0,1,330,280.05c-2.58-3.27-5.08-6.4-7.35-9.23C324.34,267.17,326,263.34,327.51,259.67ZM316.32,284c1.56-3.09,3.58-7.2,5.67-11.68,2.37,3,4.81,6,7.25,9.13-2.13,3.68-4.25,7-6,9.6C320.74,288.4,318.36,286,316.32,284Zm7.95,8.12c1.71-2.55,3.81-5.81,5.93-9.45,2.45,3.12,4.88,6.24,7.21,9.28-2.21,3-4.33,5.78-6,7.91C329.09,297.21,326.65,294.57,324.27,292.07Zm11.78,13.2c-1.14-1.41-2.38-2.87-3.67-4.34,1.66-2.1,3.75-4.81,6-7.82,2.26,2.95,4.41,5.81,6.39,8.48C341.13,303.31,337.93,304.57,336.05,305.27ZM346,301c-2.12-2.88-4.43-5.95-6.81-9.06,2-2.81,4.12-5.82,6-8.79,3.25,4.47,6.36,8.9,9.14,13.07A75.58,75.58,0,0,1,346,301Z"/><path class="cls-24" d="M157.24,345.68a39.38,39.38,0,0,0-2.23,13c0,33.18,42.29,60.08,94.46,60.08s94.46-26.9,94.46-60.08a39.39,39.39,0,0,0-2.24-13Z"/><path class="cls-25" d="M242.88,411.32c-21.32-2.85-42.35-9.8-58.89-24-12.3-10.54-20.82-24.27-27.63-38.77A38.6,38.6,0,0,0,155,358.65c0,33.18,42.29,60.08,94.46,60.08,20.81,0,40-4.29,55.66-11.55A159.68,159.68,0,0,1,242.88,411.32Z"/><circle class="cls-4" cx="198.44" cy="254.47" r="10.86" transform="translate(-119.18 197.41) rotate(-41.87)"/><path class="cls-6" d="M197.87,247.37a7.13,7.13,0,1,1-6.54,7.67A7.12,7.12,0,0,1,197.87,247.37Z"/><circle class="cls-4" cx="298.33" cy="254.47" r="10.86" transform="translate(-0.51 508.35) rotate(-80.81)"/><path class="cls-6" d="M297.76,247.37a7.13,7.13,0,1,1-6.54,7.67A7.12,7.12,0,0,1,297.76,247.37Z"/><g class="cls-26"><path class="cls-8" d="M252,327.47l-.25-.12-32.15-14.61-1.51-21.17h63.42L280,311.26ZM220.67,312,252,326.25l27-15.64,1.38-17.95H219.29Z"/></g><g class="cls-27"><g class="cls-28"><path class="cls-8" d="M126.44,379.24h0a.72.72,0,0,1,0-1l118-131.43a.72.72,0,0,1,1,0h0a.72.72,0,0,1,.05,1l-118,131.43A.72.72,0,0,1,126.44,379.24Z"/><path class="cls-8" d="M137.21,388.91h0a.72.72,0,0,1-.05-1l118-131.43a.72.72,0,0,1,1,0h0a.73.73,0,0,1,.06,1l-118,131.43A.74.74,0,0,1,137.21,388.91Z"/><path class="cls-8" d="M148,398.58h0a.73.73,0,0,1-.06-1l118-131.43a.73.73,0,0,1,1-.05h0a.72.72,0,0,1,.06,1L149,398.53A.73.73,0,0,1,148,398.58Z"/><path class="cls-8" d="M158.76,408.25h0a.72.72,0,0,1,0-1l118-131.43a.72.72,0,0,1,1-.05h0a.72.72,0,0,1,.05,1l-118,131.43A.72.72,0,0,1,158.76,408.25Z"/><path class="cls-8" d="M169.53,417.92h0a.72.72,0,0,1-.05-1l118-131.43a.72.72,0,0,1,1-.05h0a.73.73,0,0,1,.06,1l-118,131.43A.73.73,0,0,1,169.53,417.92Z"/><path class="cls-8" d="M180.31,427.59h0a.73.73,0,0,1-.06-1l118-131.43a.73.73,0,0,1,1-.05h0a.73.73,0,0,1,.06,1l-118,131.43A.72.72,0,0,1,180.31,427.59Z"/><path class="cls-8" d="M191.08,437.27h0a.74.74,0,0,1-.06-1L309,304.81a.74.74,0,0,1,1-.05h0a.72.72,0,0,1,.05,1l-118,131.43A.73.73,0,0,1,191.08,437.27Z"/><path class="cls-8" d="M201.85,446.94h0a.74.74,0,0,1,0-1l118-131.43a.72.72,0,0,1,1-.05h0a.72.72,0,0,1,.05,1l-118,131.43A.73.73,0,0,1,201.85,446.94Z"/><path class="cls-8" d="M212.62,456.61h0a.74.74,0,0,1-.05-1l118-131.43a.73.73,0,0,1,1,0h0a.73.73,0,0,1,.06,1l-118,131.43A.74.74,0,0,1,212.62,456.61Z"/><path class="cls-8" d="M223.4,466.28h0a.74.74,0,0,1-.06-1l118-131.42a.73.73,0,0,1,1-.06h0a.73.73,0,0,1,0,1l-118,131.43A.73.73,0,0,1,223.4,466.28Z"/><path class="cls-8" d="M234.17,476h0a.72.72,0,0,1,0-1l118-131.43a.72.72,0,0,1,1-.06h0a.73.73,0,0,1,.05,1l-118,131.43A.73.73,0,0,1,234.17,476Z"/><path class="cls-8" d="M244.94,485.62h0a.73.73,0,0,1-.05-1l118-131.43a.73.73,0,0,1,1-.06h0a.73.73,0,0,1,.06,1L246,485.56A.74.74,0,0,1,244.94,485.62Z"/><path class="cls-8" d="M255.72,495.29h0a.73.73,0,0,1-.06-1l118-131.43a.73.73,0,0,1,1-.06h0a.73.73,0,0,1,.06,1l-118,131.43A.73.73,0,0,1,255.72,495.29Z"/><path class="cls-8" d="M374.66,379.24h0a.73.73,0,0,0,.06-1l-118-131.43a.72.72,0,0,0-1,0h0a.73.73,0,0,0-.06,1l118,131.43A.73.73,0,0,0,374.66,379.24Z"/><path class="cls-8" d="M363.89,388.91h0a.73.73,0,0,0,.06-1L246,256.46a.73.73,0,0,0-1,0h0a.72.72,0,0,0-.05,1l118,131.43A.72.72,0,0,0,363.89,388.91Z"/><path class="cls-8" d="M353.12,398.58h0a.72.72,0,0,0,.05-1l-118-131.43a.72.72,0,0,0-1-.05h0a.72.72,0,0,0,0,1l118,131.43A.72.72,0,0,0,353.12,398.58Z"/><path class="cls-8" d="M342.35,408.25h0a.72.72,0,0,0,0-1l-118-131.43a.73.73,0,0,0-1-.05h0a.73.73,0,0,0-.06,1l118,131.43A.74.74,0,0,0,342.35,408.25Z"/><path class="cls-8" d="M331.57,417.92h0a.73.73,0,0,0,.06-1l-118-131.43a.74.74,0,0,0-1-.05h0a.72.72,0,0,0-.05,1l118,131.43A.72.72,0,0,0,331.57,417.92Z"/><path class="cls-8" d="M320.8,427.59h0a.72.72,0,0,0,.05-1l-118-131.43a.72.72,0,0,0-1-.05h0a.72.72,0,0,0,0,1l118,131.43A.72.72,0,0,0,320.8,427.59Z"/><path class="cls-8" d="M310,437.27h0a.74.74,0,0,0,.05-1l-118-131.43a.72.72,0,0,0-1-.05h0a.73.73,0,0,0-.06,1L309,437.21A.74.74,0,0,0,310,437.27Z"/><path class="cls-8" d="M299.25,446.94h0a.74.74,0,0,0,.06-1l-118-131.43a.73.73,0,0,0-1-.05h0a.73.73,0,0,0-.06,1l118,131.43A.73.73,0,0,0,299.25,446.94Z"/><path class="cls-8" d="M288.48,456.61h0a.74.74,0,0,0,.06-1l-118-131.43a.74.74,0,0,0-1,0h0a.73.73,0,0,0-.05,1l118,131.43A.73.73,0,0,0,288.48,456.61Z"/><path class="cls-8" d="M277.71,466.28h0a.74.74,0,0,0,.05-1l-118-131.42a.72.72,0,0,0-1-.06h0a.72.72,0,0,0,0,1l118,131.43A.73.73,0,0,0,277.71,466.28Z"/><path class="cls-8" d="M266.93,476h0a.72.72,0,0,0,.06-1L149,343.5a.72.72,0,0,0-1-.06h0a.73.73,0,0,0-.06,1l118,131.43A.73.73,0,0,0,266.93,476Z"/><path class="cls-8" d="M256.16,485.62h0a.73.73,0,0,0,.06-1l-118-131.43a.74.74,0,0,0-1-.06h0a.73.73,0,0,0-.05,1l118,131.43A.73.73,0,0,0,256.16,485.62Z"/><path class="cls-8" d="M245.39,495.29h0a.72.72,0,0,0,.05-1l-118-131.43a.73.73,0,0,0-1-.06h0a.73.73,0,0,0,0,1l118,131.43A.73.73,0,0,0,245.39,495.29Z"/></g></g><ellipse class="cls-8" cx="250.55" cy="346.4" rx="92.65" ry="12.31"/><path class="cls-14" d="M289,365.6c11.73-11.3,17.58-7,17.58-7l5.51-2.35c1.74,6.1,3,12.37,4.28,18.59l-1.4.35-15.94,14.58c-5.49-.34-17.71-14.41-17.71-14.41Z"/><path class="cls-14" d="M306.62,358.61s-6.58-3.49-13.76-1.15-15.65,3.42-13.82,7.82c0,0,.45.91,5.4-.21s5.38,1.4,5,3.39S306.62,358.61,306.62,358.61Z"/><path class="cls-14" d="M281.36,375.37s-17.42,11.66-14.82,14.3a2.37,2.37,0,0,0,2.67.32c1.53-.79,17.93-12.93,17.93-12.93S285.61,372.67,281.36,375.37Z"/><path class="cls-14" d="M290.74,384.27s-15.18,14.45-12.17,16.62a2.38,2.38,0,0,0,2.69-.15c1.37-1,15.47-15.79,15.47-15.79S294.48,380.89,290.74,384.27Z"/><path class="cls-14" d="M295.16,387.93s-10.63,10.72-7.89,12.45a2.07,2.07,0,0,0,2.19,0c1-.76,10.7-11.75,10.7-11.75S297.8,385.42,295.16,387.93Z"/><path class="cls-14" d="M285.45,380.42s-18,15.11-15.21,17.5a2.41,2.41,0,0,0,2.84-.09c1.59-1.07,18.54-16.53,18.54-16.53S289.86,376.89,285.45,380.42Z"/><path class="cls-14" d="M345.21,318.17c-17.07,15.43-37.77,41.7-37.77,41.7l6.78,16.31,26.48-17.41c10.54-9.4,17.16-17.47,21.23-24.21A105,105,0,0,1,345.21,318.17Z"/><path class="cls-13" d="M378.47,318.15s-34.78-11.5-40.38-11.15l-.31,6.68s-2.43-2.39-5.36,1,36.64,25.68,36.64,25.68,6.77-1.31,4.89-6S382.56,323.2,378.47,318.15Z"/><g class="cls-29"><path class="cls-8" d="M366.4,327.62a.68.68,0,0,1-.39-.24c-2.7-3.13-21-10.73-27.85-13.39a.73.73,0,0,1-.41-.94.72.72,0,0,1,.93-.41c1,.4,24.94,9.75,28.43,13.8a.73.73,0,0,1-.71,1.18Z"/></g><g class="cls-29"><path class="cls-8" d="M366.23,321.65a.6.6,0,0,1-.21-.08c-4.37-2.61-25.59-10-25.8-10.09a.72.72,0,0,1-.45-.92.74.74,0,0,1,.93-.45c.87.31,21.57,7.53,26.06,10.21a.74.74,0,0,1,.25,1A.72.72,0,0,1,366.23,321.65Z"/></g><g class="cls-30"><path class="cls-31" d="M320.72,341.56s-44.49,22.91-56.17,38.72a8.19,8.19,0,0,0,5.49,5.78s35.15-31.33,55.21-38.87C325.25,347.19,325.23,339.37,320.72,341.56Z"/><path class="cls-4" d="M311.18,343.71a36.14,36.14,0,0,1,6.14-30.55,4.17,4.17,0,0,1,2.32-1.81c2.06-.39,3.42,2.07,3.85,4.12a26.88,26.88,0,0,1-.31,12.1,71.27,71.27,0,0,1,11.71-18.85c1.49-1.72,3.71-3.53,5.81-2.63,1.83.8,2.28,3.24,1.94,5.21s-1.2,3.91-1,5.9a61.54,61.54,0,0,1,11-12.07c2.09-1.76,5.38-3.33,7.27-1.36,2.64,2.75-1.79,6.87-1.82,10.68a51.25,51.25,0,0,1,14.19-6.84c2.53-.77,5.27-1.34,7.8-.57s4.69,3.32,4.17,5.92a7.65,7.65,0,0,1-2.73,4A43.62,43.62,0,0,1,368,325.19c2.58,1,5.26,2.15,7.12,4.22s2.6,5.44.92,7.66c-2.06,2.72-6.19,2.31-9.53,1.63l-11-2.24c2.29,1.36,4.67,2.79,6.11,5s1.62,5.53-.33,7.35c-1.65,1.52-4.17,1.54-6.39,1.26a38.58,38.58,0,0,1-14.08-4.6c.85,2.12,3,3.33,4.79,4.76s3.38,3.76,2.48,5.86c-.7,1.63-2.61,2.34-4.35,2.72a32,32,0,0,1-30-9.53Z"/><g class="cls-32"><path class="cls-4" d="M313.8,346.83c-1-7.17,1.71-15.64,7.18-22.32a4.2,4.2,0,0,1,1.84-1.5c1.52-.46,2.29,1.17,2.41,2.59a20.07,20.07,0,0,1-1.31,8.65,71.24,71.24,0,0,1,10.15-14.48c1.23-1.37,3-2.86,4.42-2.4,1.26.4,1.36,2.1.94,3.54s-1.21,2.89-1.23,4.29a62.44,62.44,0,0,1,9-9.59c1.66-1.44,4.18-2.86,5.37-1.62,1.66,1.72-1.91,5.05-2.28,7.77a50.35,50.35,0,0,1,10.86-6.15c1.9-.78,3.93-1.43,5.68-1.11a3,3,0,0,1,2.49,3.85,7.74,7.74,0,0,1-2.33,3.06,44,44,0,0,1-10.56,7.12c1.77.51,3.61,1.06,4.76,2.37a4.23,4.23,0,0,1,0,5.38c-1.73,2.12-4.68,2.2-7,2l-7.73-.61c1.53.76,3.12,1.57,4,3a4.45,4.45,0,0,1-.9,5.27,6.84,6.84,0,0,1-4.73,1.48,23.15,23.15,0,0,1-9.75-2c.42,1.43,1.88,2.1,3,3s2.1,2.38,1.26,3.95a5.7,5.7,0,0,1-3.38,2.34c-7.95,2.65-16.18,1-20.77-4.1Z"/></g><path class="cls-33" d="M382.41,309.93a.57.57,0,0,0-.75-.29c-1.32.57-18,7.89-34.6,16.47l4.17-8.63a.57.57,0,0,0-1-.5l-4.83,10c-4.62,2.41-9.19,4.9-13.39,7.36l-.38-.2,1.72-7.59a.57.57,0,0,0-1.11-.25l-1.91,8.44.53.28c-8.85,5.27-15.84,10.33-17.68,14a.56.56,0,0,0,.1.64.44.44,0,0,0,.15.12.57.57,0,0,0,.77-.25C316,346,323,340.94,332,335.66l8.2,4.36a.57.57,0,0,0,.77-.23.58.58,0,0,0-.24-.77l-7.58-4c3.59-2.08,7.44-4.19,11.35-6.24l0,.08,13.12,1.22a.57.57,0,1,0,.1-1.13l-11.46-1.07c17.47-9.1,35.54-17,35.88-17.17A.57.57,0,0,0,382.41,309.93Z"/><path class="cls-31" d="M308.28,328.57s-37.59,33-45.08,51.22a8.22,8.22,0,0,0,6.73,4.27s26.48-38.93,44.11-51.13C314,332.93,312.12,325.35,308.28,328.57Z"/><path class="cls-4" d="M299.55,333a36.11,36.11,0,0,1-1.47-31.12,4.16,4.16,0,0,1,1.81-2.32c1.9-.88,3.83,1.18,4.73,3.06a26.72,26.72,0,0,1,2.64,11.82,71.17,71.17,0,0,1,6.79-21.13c1-2,2.74-4.34,5-4,2,.33,3,2.59,3.15,4.58s-.21,4.08.48,6a61.74,61.74,0,0,1,7.73-14.38c1.6-2.21,4.42-4.53,6.73-3.08,3.23,2-.06,7.09.83,10.8a51.43,51.43,0,0,1,12.1-10.09c2.27-1.36,4.79-2.58,7.43-2.44s5.36,2.08,5.49,4.73a7.69,7.69,0,0,1-1.7,4.49,43.14,43.14,0,0,1-11.17,11.33c2.76.39,5.63.81,7.94,2.37s3.85,4.65,2.75,7.21c-1.34,3.14-5.44,3.75-8.85,3.9l-11.2.49c2.55.76,5.21,1.58,7.15,3.4s2.92,5,1.46,7.21c-1.22,1.89-3.66,2.51-5.89,2.79a38.52,38.52,0,0,1-14.77-1.05c1.33,1.85,3.73,2.5,5.8,3.45s4.2,2.83,3.83,5.08c-.29,1.76-2,2.91-3.56,3.7a32,32,0,0,1-31.38-2Z"/><g class="cls-32"><path class="cls-4" d="M302.85,335.37c-2.73-6.71-2.15-15.59,1.54-23.4a4.31,4.31,0,0,1,1.42-1.9c1.36-.82,2.5.58,3,1.93a19.9,19.9,0,0,1,.83,8.71,71.53,71.53,0,0,1,6.33-16.52c.86-1.62,2.21-3.5,3.71-3.4,1.32.08,1.83,1.71,1.77,3.2s-.48,3.1-.16,4.46A64.45,64.45,0,0,1,327.67,297c1.27-1.8,3.37-3.79,4.82-2.88,2,1.27-.62,5.37-.32,8.09a50.6,50.6,0,0,1,9-8.6c1.65-1.22,3.46-2.34,5.25-2.45a3,3,0,0,1,3.34,3.12,7.74,7.74,0,0,1-1.52,3.54,44.08,44.08,0,0,1-8.51,9.47c1.85.06,3.76.15,5.2,1.15a4.22,4.22,0,0,1,1.28,5.22c-1.16,2.48-4,3.27-6.33,3.66l-7.64,1.29c1.67.37,3.41.77,4.58,2a4.44,4.44,0,0,1,.4,5.33,6.75,6.75,0,0,1-4.23,2.58,23.19,23.19,0,0,1-9.94.41c.76,1.29,2.33,1.59,3.66,2.14s2.62,1.79,2.18,3.53a5.7,5.7,0,0,1-2.71,3.08c-7.07,4.51-15.44,4.94-21.15,1.08Z"/></g><path class="cls-33" d="M360.43,282.9a.57.57,0,0,0-.79-.1c-1.14.88-15.53,12-29.57,24.39L332,297.8a.58.58,0,0,0-.44-.68.59.59,0,0,0-.68.45l-2.25,10.88c-3.9,3.46-7.72,7-11.2,10.39l-.42-.1-.18-7.77a.57.57,0,1,0-1.13,0l.19,8.65.59.14c-7.31,7.26-12.86,13.87-13.74,17.91a.55.55,0,0,0,.25.6.48.48,0,0,0,.18.07.56.56,0,0,0,.68-.43c.86-3.91,6.51-10.53,13.93-17.82l9,2.23a.57.57,0,1,0,.27-1.1l-8.33-2.07c3-2.89,6.2-5.86,9.49-8.81l0,.09,13-2a.57.57,0,0,0,.47-.65.57.57,0,0,0-.65-.48l-11.38,1.75C344.44,296,360,283.92,360.33,283.7A.56.56,0,0,0,360.43,282.9Z"/><path class="cls-10" d="M255.93,364.92s-11.07-41.21-.34-46.68,10.82,7.1,10.82,7.1.83-9.88,6.22-9,5.44,8,5.44,8,5.32-9,10.74-4.57.29,38.6-6.85,44.94c0,0-4.46,3.62-8.1-2.64,0,0-4.41,9.91-7.18.06C266.68,362.15,261.36,370.26,255.93,364.92Z"/><path class="cls-34" d="M278.72,351.67a17.3,17.3,0,0,1-1.77,0c-15.79-.54-23-20.22-19.44-34.3a15.06,15.06,0,0,0-1.92.83c-10.73,5.47.34,46.68.34,46.68,5.43,5.34,10.75-2.77,10.75-2.77,2.77,9.85,7.18-.06,7.18-.06,3.64,6.26,8.1,2.64,8.1,2.64,2.49-2.21,4.73-7.81,6.37-14.35A14.13,14.13,0,0,1,278.72,351.67Z"/><path class="cls-4" d="M270,326.22s1.64-20.66,8.8-23.41c0,0,2.7,0,1.83,3.58S271.74,318.12,270,328"/><path class="cls-35" d="M288.42,327.87c0,4.22-2.95,7.66-6.67,7.68S275,332.19,275,328s3-7.65,6.68-7.68S288.39,323.66,288.42,327.87Z"/><path class="cls-6" d="M228.18,366s-17.19-34.78-8.59-41.56,10.92,4.41,10.92,4.41-1-8.95,3.94-9.15,6.28,6.21,6.28,6.21,3.15-9,8.77-6,7.1,34.37,1.86,41.28c0,0-3.33,4-7.69-.91,0,0-2.18,9.62-6.39,1.32C237.28,361.65,234,369.84,228.18,366Z"/><path class="cls-36" d="M246.15,350.18a15.6,15.6,0,0,1-1.57.35c-14.17,2.31-24.1-13.95-23.42-27.14a13.9,13.9,0,0,0-1.57,1.08c-8.6,6.78,8.59,41.56,8.59,41.56,5.79,3.81,9.1-4.38,9.1-4.38,4.21,8.3,6.39-1.32,6.39-1.32,4.36,4.94,7.69.91,7.69.91,1.83-2.41,2.84-7.8,3.14-13.92A12.89,12.89,0,0,1,246.15,350.18Z"/><path class="cls-4" d="M233.87,329s-2.2-18.71,3.7-22.43c0,0,2.4-.5,2.26,2.87s-5.85,12-5.63,21.16"/><path class="cls-35" d="M250.58,327.24c.78,3.75-1.28,7.34-4.59,8s-6.62-1.81-7.39-5.56,1.28-7.35,4.59-8S249.81,323.48,250.58,327.24Z"/><path class="cls-4" d="M177.6,329.75s-14.71-1.88-12.67-4.16,7.75-.87,7.75-.87-23.23-4.76-18.14-6.78,10.79-.6,10.79-.6-22.45-6.54-18.64-8,14.47,3.09,14.47,3.09-14.81-16.93-10.88-16.29,13.3,13.12,13.3,13.12-2.89-12.83.28-10.41,5,12.71,5,12.71,2.06-9.65,4.46-5.45,1.49,11.18,1.49,11.18,4.22-9.77,6.24-4.68-1.17,10-1.17,10,5.22-7.22,6.74-3.41S177.6,329.75,177.6,329.75Z"/><g class="cls-37"><path class="cls-10" d="M178.51,328.29s-8.78,5.69-3.71,11,31.63,38.94,38.49,37.69S196,331.64,191.34,325.41,178.51,328.29,178.51,328.29Z"/><path class="cls-34" d="M213.33,377c-1.08-1.43-2.19-2.84-3.23-4.25q-5.52-7.56-11-15.19-10.38-14.62-20.41-29.5l-.22.23s-8.78,5.69-3.71,11,31.63,38.94,38.49,37.69Z"/><g class="cls-38"><path class="cls-8" d="M215.05,362c-4.26,9.85-16.32,14-16.84,14.19l-.31-.91c.13,0,12.18-4.21,16.26-13.66Z"/></g><g class="cls-38"><path class="cls-8" d="M209.24,351c-4.26,9.85-16.32,14-16.84,14.19l-.31-.92c.13,0,12.18-4.21,16.26-13.65Z"/></g><g class="cls-38"><path class="cls-8" d="M203.83,337.65c-4.77,11.06-18.88,15.5-19.47,15.69l-.29-.93c.14,0,14.28-4.5,18.87-15.15Z"/></g><g class="cls-38"><path class="cls-8" d="M197.25,328.49c-4.77,11.06-18.87,15.5-19.47,15.69l-.29-.93c.15,0,14.28-4.5,18.88-15.15Z"/></g></g><path class="cls-4" d="M199.59,324.18s-13.63-5.86-11-7.49,7.68,1.3,7.68,1.3-21-11-15.57-11.51,10.55,2.39,10.55,2.39S171.42,296.4,175.5,296,188.56,303,188.56,303s-9.58-20.35-6-18.65,9.17,16.27,9.17,16.27.76-13.13,3.14-9.93,1.35,13.61,1.35,13.61,4.63-8.71,5.78-4-1.64,11.15-1.64,11.15,6.74-8.22,7.28-2.78-3.88,9.32-3.88,9.32,7-5.51,7.41-1.42S199.59,324.18,199.59,324.18Z"/><g class="cls-39"><path class="cls-10" d="M200.86,323s-10,3.05-6.61,9.59,19.69,46.14,26.63,46.83-4.11-48.38-6.89-55.66S200.86,323,200.86,323Z"/><path class="cls-34" d="M220.92,379.44c-.65-1.67-1.33-3.33-1.93-5q-3.24-8.79-6.35-17.61c-4-11.28-7.79-22.62-11.51-34l-.27.17s-10,3.05-6.61,9.59,19.69,46.14,26.63,46.83Z"/><g class="cls-38"><path class="cls-8" d="M226.71,365.47c-6.8,8.3-19.55,9-20.09,9l-.05-1c.13,0,12.87-.69,19.39-8.65Z"/></g><g class="cls-38"><path class="cls-8" d="M224.13,353.36c-6.8,8.29-19.55,9-20.09,9l0-1c.13,0,12.86-.7,19.39-8.66Z"/></g><g class="cls-38"><path class="cls-8" d="M222.63,339c-7.64,9.33-22.42,9.71-23,9.72l0-1c.15,0,15-.4,22.32-9.37Z"/></g><g class="cls-38"><path class="cls-8" d="M218.83,328.38c-7.64,9.32-22.42,9.71-23.05,9.72l0-1c.15,0,15-.39,22.32-9.36Z"/></g></g></g><path class="cls-14" d="M206.87,361.61c-11.46-11.58-17.41-7.4-17.41-7.4L184,351.72c-1.88,6.06-3.28,12.29-4.71,18.48l1.39.39,15.58,15c5.5-.21,18.05-14,18.05-14Z"/><path class="cls-14" d="M189.46,354.21s6.66-3.34,13.78-.83,15.57,3.79,13.63,8.15c0,0-.47.9-5.39-.34s-5.41,1.27-5.06,3.27S189.46,354.21,189.46,354.21Z"/><path class="cls-14" d="M214.31,371.56s17.14,12.07,14.48,14.65a2.37,2.37,0,0,1-2.68.25c-1.51-.82-17.62-13.35-17.62-13.35S210.12,368.76,214.31,371.56Z"/><path class="cls-14" d="M204.72,380.23s14.83,14.81,11.77,16.9a2.35,2.35,0,0,1-2.68-.21c-1.35-1.06-15.09-16.15-15.09-16.15S201.07,376.76,204.72,380.23Z"/><path class="cls-14" d="M200.21,383.79s10.38,11,7.59,12.63a2.05,2.05,0,0,1-2.18-.1c-1-.78-10.42-12-10.42-12S197.64,381.22,200.21,383.79Z"/><path class="cls-14" d="M210.1,376.52s17.67,15.52,14.79,17.85a2.42,2.42,0,0,1-2.84-.15c-1.56-1.11-18.14-17-18.14-17S205.77,372.88,210.1,376.52Z"/><path class="cls-14" d="M155.07,318a206.33,206.33,0,0,0-20.31,10.1c3.84,6.94,10.25,15.33,20.72,25.24l27,19.42,6.18-17.33s-16.39-22.12-31.84-38.12Z"/><path class="cls-13" d="M124.72,324.11s34.73-11.66,40.33-11.33l.34,6.68s2.42-2.4,5.36,1-36.52,25.84-36.52,25.84-6.78-1.28-4.92-6S120.65,329.18,124.72,324.11Z"/><g class="cls-29"><path class="cls-8" d="M137.42,331.61a.74.74,0,0,1-.71-.4.72.72,0,0,1,.33-1c1-.47,23.35-11.58,27.76-12a.72.72,0,1,1,.12,1.44c-3.43.3-20.83,8.63-27.24,11.82A.77.77,0,0,1,137.42,331.61Z"/></g><g class="cls-29"><path class="cls-8" d="M145,324.33a.72.72,0,0,1-.44-1.34c.58-.35,14.27-8.49,19.7-6.73a.73.73,0,0,1-.45,1.38c-4-1.29-14.71,4.32-18.5,6.59A.75.75,0,0,1,145,324.33Z"/></g><path class="cls-40" d="M394.37,190.14a8.6,8.6,0,0,0-13.64-9,11.24,11.24,0,0,0-5.81-3.61,8.6,8.6,0,0,0-13.18-7.92,15.93,15.93,0,0,0-25.21,8A11.3,11.3,0,0,0,322,188.5a11.11,11.11,0,0,0,.14,1.64Z"/><path class="cls-40" d="M180.67,135.76a5.34,5.34,0,0,0-8.47-5.57,6.94,6.94,0,0,0-3.6-2.24,5.34,5.34,0,0,0-8.18-4.92,9.89,9.89,0,0,0-15.66,5,7,7,0,0,0-9,6.72,6.8,6.8,0,0,0,.08,1Z"/></g></g></svg>