<svg xmlns="http://www.w3.org/2000/svg" viewBox="0 0 500 500"><defs><style>.cls-1{fill:#e0e0e0;}.cls-2{fill:#fff;}.cls-3{fill:#f5f5f5;}.cls-4{fill:#ebebeb;}.cls-5{fill:#263238;}.cls-6{fill:#455a64;}.cls-7{fill:#caf2cb;}.cls-8{opacity:0.3;}.cls-9{fill:#844031;}.cls-10{opacity:0.2;}.cls-11{fill:#ffbf9d;}.cls-12{fill:#ff9a6c;}.cls-13{fill:#fafafa;}</style></defs><g id="Character"><path class="cls-1" d="M80.46,179.9a1,1,0,0,1,0-.23V179c0-.61,0-1.45,0-2.53,0-2.23,0-5.42-.08-9.45l.15.15-48.65.1c.11-.11-.25.25.24-.25h0V179.9l-.25-.24,34.68.11,10.23.07,2.77,0,.72,0h.26l-.23,0h-.69l-2.72,0L66.64,180l-34.84.11h-.24v-13.1h0l.25-.25,48.65.1h.15V167c0,4.07-.07,7.29-.09,9.54,0,1.06,0,1.9,0,2.49l0,.64A1.23,1.23,0,0,1,80.46,179.9Z"/><path class="cls-1" d="M87.05,167s0-.09,0-.24,0-.41,0-.69c0-.63,0-1.49,0-2.58,0-2.25-.06-5.44-.1-9.36l.18.18-29.23.07.25-.25h0v6.62c0,2.15,0,4.24,0,6.24l-.24-.23,20.91.11,6.09.06,1.65,0,.58,0a3.28,3.28,0,0,1-.53,0l-1.59,0-6,.07-21.07.11h-.23v-6.48c0-1.08,0-2.17,0-3.27v-3.35h0l.25-.25,29.23.07h.18v.18c0,4-.07,7.19-.09,9.47,0,1.07,0,1.92,0,2.54A4.88,4.88,0,0,1,87.05,167Z"/><path class="cls-1" d="M227.78,63.69s0-.09,0-.24l0-.66c0-.6,0-1.45,0-2.53,0-2.22-.05-5.41-.09-9.44l.15.15-48.65.1.25-.25h0v6.52q0,3.22,0,6.33l-.24-.24,34.67.11,10.24.07,2.76,0h.73l.25,0h-.22l-.7,0-2.71,0L214,63.82l-34.84.11h-.24v-.24q0-3.11,0-6.33V50.84h0l.25-.25,48.65.1h.16v.15c0,4.06-.06,7.29-.08,9.53,0,1.07,0,1.9,0,2.5v.63A.85.85,0,0,1,227.78,63.69Z"/><path class="cls-1" d="M234.38,50.82a1.41,1.41,0,0,1,0-.25c0-.18,0-.41,0-.68,0-.63,0-1.49,0-2.58,0-2.26-.06-5.44-.1-9.36l.18.17-29.23.07c-.22.23.3-.3.25-.24h0V41.3c0,1.11,0,2.2,0,3.28,0,2.15,0,4.24,0,6.24l-.23-.24,20.91.11,6.09.07,1.64,0,.59,0a3.28,3.28,0,0,1-.53,0l-1.59,0-6,.06-21.07.11h-.24v-.23c0-2,0-4.09,0-6.24V38h0l.25-.25,29.23.07h.18V38c0,4-.07,7.19-.1,9.47,0,1.07,0,1.92,0,2.54A6.84,6.84,0,0,1,234.38,50.82Z"/><polygon class="cls-1" points="182.37 40.16 182.37 123.97 61.99 123.97 57.65 40.74 182.37 40.16"/><rect class="cls-2" x="76.32" y="22.08" width="83.05" height="120.38" transform="translate(35.57 200.11) rotate(-90)"/><path class="cls-1" d="M178.61,124.37H57.08V40.17H178.61ZM58.22,123.23H177.46V41.31H58.22Z"/><rect class="cls-2" x="70.69" y="51.06" width="94.31" height="62.42"/><path class="cls-1" d="M165,51.06l-.47,0h-1.34l-5.18,0-19.43.07-67.89.13.27-.27c0,19.07,0,40.2,0,62.41h0l-.3-.3,94.31.06-.24.24c.05-19,.09-34.57.12-45.42,0-5.42.05-9.65.06-12.55,0-1.44,0-2.54,0-3.3s0-1.15,0-1.15,0,.36,0,1.1,0,1.84,0,3.25c0,2.89,0,7.11.06,12.51,0,10.88.07,26.5.12,45.56v.23H165l-94.31.06h-.3v-.3h0c0-22.21,0-43.34,0-62.41v-.27h.27l68.07.13,19.37.08,5.12,0,1.31,0Z"/><path class="cls-1" d="M57.65,40.51a9.75,9.75,0,0,1,2.07,1.34c1.23.89,2.91,2.15,4.72,3.6s3.4,2.82,4.52,3.85a9.55,9.55,0,0,1,1.73,1.76c-.11.13-3-2.26-6.62-5.15S57.54,40.64,57.65,40.51Z"/><path class="cls-1" d="M178,40.74c.11.13-2.73,2.55-6.33,5.39a58.76,58.76,0,0,1-6.7,4.93c-.11-.13,2.73-2.54,6.33-5.39A58.76,58.76,0,0,1,178,40.74Z"/><path class="cls-2" d="M177.94,123.81l-13.42-10.88"/><path class="cls-1" d="M164.52,112.93a62,62,0,0,1,6.89,5.21,62.6,62.6,0,0,1,6.53,5.67,64.13,64.13,0,0,1-6.9-5.21C167.33,115.6,164.41,113.06,164.52,112.93Z"/><path class="cls-1" d="M57.65,123.8a57.78,57.78,0,0,1,6.27-5.34c3.56-2.82,6.53-5,6.64-4.87a57.78,57.78,0,0,1-6.27,5.34A57.45,57.45,0,0,1,57.65,123.8Z"/><rect class="cls-1" x="109.06" y="51.29" width="20.9" height="59.34" transform="translate(38.55 200.46) rotate(-90)"/><polygon class="cls-3" points="300.98 433.29 300.98 471.56 356.94 471.56 418.66 471.56 418.66 433.29 300.98 433.29"/><polygon class="cls-1" points="296.04 422.59 296.04 433.29 422.77 433.29 422.77 422.59 356.94 422.59 296.04 422.59"/><polygon class="cls-1" points="359.41 471.56 418.66 471.56 418.66 433.29 422.77 433.29 422.77 422.59 356.94 422.59 356.94 432.3 359.41 471.56"/><rect class="cls-1" x="317.44" y="439.46" width="23.87" height="5.76"/><rect class="cls-2" x="314.37" y="452.42" width="30.64" height="12.16"/><rect class="cls-4" x="193.95" y="213.57" width="48.65" height="12.87"/><path class="cls-1" d="M222,240a1,1,0,0,1,0-.23v-.66c0-.61,0-1.45,0-2.53,0-2.22-.05-5.42-.08-9.45l.15.15-48.65.1c.11-.11-.25.25.24-.25h0V240l-.25-.24,34.68.11,10.23.07,2.77,0,.72,0H222s-.07,0-.23,0l-.69,0-2.72,0-10.18.07-34.84.11h-.24V227.13h0c.49-.49.14-.13.25-.24L222,227h.15v.15c0,4.07-.07,7.29-.09,9.54,0,1.07,0,1.9,0,2.5,0,.26,0,.46,0,.63A1.23,1.23,0,0,1,222,240Z"/><rect class="cls-4" x="429.69" y="136.8" width="48.65" height="12.87"/><path class="cls-1" d="M457.77,163.23a1,1,0,0,1,0-.23v-.66c0-.61,0-1.45,0-2.53,0-2.23-.05-5.42-.08-9.45l.15.15-48.65.1c.11-.11-.25.25.24-.25h0v12.85l-.24-.24,34.67.11,10.23.07,2.77,0,.72,0h.26a.94.94,0,0,1-.23,0h-.69l-2.72,0-10.17.07-34.84.11h-.25v-13.1h0l.25-.25,48.65.1h.15v.15c0,4.07-.06,7.29-.08,9.54,0,1.06,0,1.9,0,2.49,0,.26,0,.47,0,.64A1.23,1.23,0,0,1,457.77,163.23Z"/><path class="cls-5" d="M472.64,472.79c0,.15-100.17.27-223.69.27s-223.71-.12-223.71-.27,100.14-.26,223.71-.26S472.64,472.65,472.64,472.79Z"/><rect class="cls-6" x="255.53" y="20.54" width="195.56" height="387.26" rx="25.34"/><rect class="cls-5" x="162.76" y="119.47" width="381.1" height="189.4" rx="22.23" transform="translate(567.48 -139.15) rotate(90)"/><path class="cls-6" d="M339.27,35.82a2.18,2.18,0,1,1,0-4.35h28a2.18,2.18,0,0,1,0,4.35Z"/><path class="cls-6" d="M324.27,35.82a2.18,2.18,0,1,1,2.18-2.17A2.17,2.17,0,0,1,324.27,35.82Z"/><path class="cls-6" d="M332.28,35.82a2.18,2.18,0,1,1,2.17-2.17A2.18,2.18,0,0,1,332.28,35.82Z"/><path class="cls-6" d="M382.35,35.82a2.18,2.18,0,1,1,2.18-2.17A2.17,2.17,0,0,1,382.35,35.82Z"/><path class="cls-6" d="M374.35,35.82a2.18,2.18,0,1,1,2.17-2.17A2.18,2.18,0,0,1,374.35,35.82Z"/><path class="cls-2" d="M426.8,25.82H399.34a9.76,9.76,0,0,0-9.38,7l-.47,1.6a10.45,10.45,0,0,1-10,7.54H327.18a10.46,10.46,0,0,1-10.05-7.54l-.46-1.6a9.77,9.77,0,0,0-9.39-7H282.36A19.34,19.34,0,0,0,263,45.16V381a18.2,18.2,0,0,0,18.2,18.2H427.13a16.47,16.47,0,0,0,16.47-16.48V42.62A16.8,16.8,0,0,0,426.8,25.82Z"/><path class="cls-6" d="M452.15,104.71h.22a0,0,0,0,1,0,0v44.51a0,0,0,0,1,0,0h-.22a1.07,1.07,0,0,1-1.07-1.07V105.77A1.07,1.07,0,0,1,452.15,104.71Z" transform="translate(903.46 253.92) rotate(180)"/><path class="cls-6" d="M255.27,132.14h.26a0,0,0,0,1,0,0v28.18a0,0,0,0,1,0,0h-.26a1.07,1.07,0,0,1-1.07-1.07v-26A1.07,1.07,0,0,1,255.27,132.14Z"/><path class="cls-6" d="M255.27,95.32h.26a0,0,0,0,1,0,0V123.5a0,0,0,0,1,0,0h-.26a1.07,1.07,0,0,1-1.07-1.07v-26A1.07,1.07,0,0,1,255.27,95.32Z"/><path class="cls-6" d="M255.33,67.69h.2a0,0,0,0,1,0,0v13.1a0,0,0,0,1,0,0h-.2a.95.95,0,0,1-.95-.95V68.63A.95.95,0,0,1,255.33,67.69Z"/><rect class="cls-5" x="399.77" y="38.83" width="1.34" height="1.88"/><rect class="cls-5" x="401.95" y="37.99" width="1.34" height="2.72"/><rect class="cls-5" x="404.14" y="37.36" width="1.34" height="3.35"/><rect class="cls-5" x="406.32" y="36.15" width="1.34" height="4.57"/><path class="cls-5" d="M427.5,40.81h-6.74a.49.49,0,0,1-.49-.48V37a.49.49,0,0,1,.48-.48h6.75a.12.12,0,0,1,.09,0,.11.11,0,0,1,0,.08v1.11h.72a.12.12,0,0,1,.13.12v1.62a.13.13,0,0,1-.13.12h-.72v1.11A.12.12,0,0,1,427.5,40.81Zm-.13-4.07h-6.62a.23.23,0,0,0-.23.23v3.36a.23.23,0,0,0,.24.23h6.61v-1.1a.13.13,0,0,1,.13-.13h.72V38h-.72a.13.13,0,0,1-.13-.13Z"/><polygon class="cls-5" points="421.07 40.01 421.07 37.29 426.82 37.29 426.82 38.52 426.82 38.78 426.82 40.01 421.07 40.01"/><path class="cls-5" d="M414.1,40.55a.5.5,0,1,0-.5.49A.49.49,0,0,0,414.1,40.55Z"/><path class="cls-5" d="M411.92,39.36l.63.63a1.47,1.47,0,0,1,1.05-.43,1.5,1.5,0,0,1,1.06.43l.62-.63a2.39,2.39,0,0,0-3.36,0Z"/><path class="cls-5" d="M413.6,37.26a3.8,3.8,0,0,0-2.67,1.11l.63.63a2.89,2.89,0,0,1,4.09,0l.62-.63A3.76,3.76,0,0,0,413.6,37.26Z"/><path class="cls-5" d="M409.91,37.35l.63.63a4.33,4.33,0,0,1,6.13,0l.63-.63a5.23,5.23,0,0,0-7.39,0Z"/><path class="cls-5" d="M337.36,64.19v2.19h3.84v1.54h-3.84v3h-1.93v-8.3h6.28v1.54Z"/><path class="cls-5" d="M343.94,70.62a3.13,3.13,0,0,1-1.25-1.17,3.42,3.42,0,0,1,0-3.39,3.13,3.13,0,0,1,1.25-1.17,3.86,3.86,0,0,1,1.81-.42,3.81,3.81,0,0,1,1.81.42,3.11,3.11,0,0,1,1.24,1.17,3.42,3.42,0,0,1,0,3.39,3.11,3.11,0,0,1-1.24,1.17,3.81,3.81,0,0,1-1.81.42A3.86,3.86,0,0,1,343.94,70.62Zm3-1.58a2,2,0,0,0,0-2.57,1.53,1.53,0,0,0-1.17-.48,1.56,1.56,0,0,0-1.17.48,2,2,0,0,0,0,2.57,1.56,1.56,0,0,0,1.17.48A1.53,1.53,0,0,0,346.92,69Z"/><path class="cls-5" d="M351.71,70.62a3.13,3.13,0,0,1-1.25-1.17,3.42,3.42,0,0,1,0-3.39,3.13,3.13,0,0,1,1.25-1.17,3.86,3.86,0,0,1,1.81-.42,3.79,3.79,0,0,1,1.8.42,3.13,3.13,0,0,1,1.25,1.17,3.42,3.42,0,0,1,0,3.39,3.13,3.13,0,0,1-1.25,1.17,3.79,3.79,0,0,1-1.8.42A3.86,3.86,0,0,1,351.71,70.62Zm3-1.58a2,2,0,0,0,0-2.57,1.53,1.53,0,0,0-1.17-.48,1.56,1.56,0,0,0-1.17.48,2,2,0,0,0,0,2.57,1.56,1.56,0,0,0,1.17.48A1.53,1.53,0,0,0,354.69,69Z"/><path class="cls-5" d="M364.75,62.15V71H363v-.74a2.44,2.44,0,0,1-2,.83,3.31,3.31,0,0,1-1.63-.4,2.87,2.87,0,0,1-1.14-1.15,3.49,3.49,0,0,1-.42-1.73,3.44,3.44,0,0,1,.42-1.73,2.81,2.81,0,0,1,1.14-1.15,3.32,3.32,0,0,1,1.63-.41,2.43,2.43,0,0,1,1.91.77V62.15ZM362.48,69a2,2,0,0,0,0-2.57,1.67,1.67,0,0,0-2.34,0,2,2,0,0,0,0,2.57,1.67,1.67,0,0,0,2.34,0Z"/><rect class="cls-1" x="271.89" y="280.31" width="161.46" height="41.68"/><path class="cls-5" d="M284.45,299.26h-2.66v-1.57H289v1.57h-2.66V306h-1.92Z"/><path class="cls-5" d="M291.63,305.58a4.16,4.16,0,0,1-2.21-3.74,4.13,4.13,0,0,1,2.21-3.73,5.13,5.13,0,0,1,4.66,0,4.26,4.26,0,0,1,1.62,1.53,4.15,4.15,0,0,1,.59,2.2,4.1,4.1,0,0,1-.59,2.2,4.21,4.21,0,0,1-1.62,1.54,5.13,5.13,0,0,1-4.66,0Zm3.66-1.42a2.47,2.47,0,0,0,.93-.94,3,3,0,0,0,0-2.75,2.47,2.47,0,0,0-.93-.94,2.77,2.77,0,0,0-2.66,0,2.47,2.47,0,0,0-.93.94,3,3,0,0,0,0,2.75,2.47,2.47,0,0,0,.93.94,2.77,2.77,0,0,0,2.66,0Z"/><path class="cls-5" d="M301.55,299.26H298.9v-1.57h7.23v1.57h-2.66V306h-1.92Z"/><path class="cls-5" d="M312.21,304.22h-3.85l-.74,1.77h-2l3.7-8.3h1.89L315,306h-2Zm-.6-1.46-1.32-3.18L309,302.76Z"/><path class="cls-5" d="M315.83,297.69h1.92v6.74h4.17V306h-6.09Z"/><path class="cls-5" d="M323,301.5a1.13,1.13,0,0,1-.33-.83,1.06,1.06,0,0,1,.33-.82,1.16,1.16,0,0,1,.82-.32,1.14,1.14,0,0,1,.82.32,1.06,1.06,0,0,1,.33.82,1.13,1.13,0,0,1-.33.83,1.11,1.11,0,0,1-.82.33A1.12,1.12,0,0,1,323,301.5Zm0,4.26a1.13,1.13,0,0,1-.33-.83,1.1,1.1,0,0,1,.33-.83,1.15,1.15,0,0,1,.82-.31,1.13,1.13,0,0,1,.82.31,1.1,1.1,0,0,1,.33.83,1.13,1.13,0,0,1-.33.83,1.11,1.11,0,0,1-.82.33A1.12,1.12,0,0,1,323,305.76Z"/><path class="cls-5" d="M403.78,304.6a3.49,3.49,0,0,1-2,.86v1.33h-1.19V305.5a7,7,0,0,1-1.67-.31,4.36,4.36,0,0,1-1.28-.64l.65-1.45a4.35,4.35,0,0,0,1.05.56,4.92,4.92,0,0,0,1.25.28v-2a8,8,0,0,1-1.42-.45,2.55,2.55,0,0,1-1-.73,2,2,0,0,1-.39-1.27,2.28,2.28,0,0,1,.72-1.69,3.4,3.4,0,0,1,2.07-.86v-1.32h1.19v1.29a5.11,5.11,0,0,1,2.4.73l-.59,1.46a4.7,4.7,0,0,0-1.81-.62v2a8,8,0,0,1,1.4.44,2.47,2.47,0,0,1,1,.72,1.94,1.94,0,0,1,.39,1.26A2.26,2.26,0,0,1,403.78,304.6Zm-3.89-4.7a2.07,2.07,0,0,0,.65.32v-1.69a1.29,1.29,0,0,0-.66.34.76.76,0,0,0-.22.54A.62.62,0,0,0,399.89,299.9Zm2.48,3.69a.73.73,0,0,0,.21-.51.61.61,0,0,0-.22-.49,1.85,1.85,0,0,0-.63-.33v1.63A1.32,1.32,0,0,0,402.37,303.59Z"/><path class="cls-5" d="M411.34,304.6a3.44,3.44,0,0,1-2,.86v1.33h-1.18V305.5a7,7,0,0,1-1.68-.31,4.49,4.49,0,0,1-1.28-.64l.66-1.45a4.35,4.35,0,0,0,1.05.56,4.82,4.82,0,0,0,1.25.28v-2a8.09,8.09,0,0,1-1.43-.45,2.59,2.59,0,0,1-1-.73,2,2,0,0,1-.39-1.27,2.28,2.28,0,0,1,.72-1.69,3.38,3.38,0,0,1,2.07-.86v-1.32h1.18v1.29a5.12,5.12,0,0,1,2.41.73l-.59,1.46a4.75,4.75,0,0,0-1.82-.62v2a8.16,8.16,0,0,1,1.41.44,2.44,2.44,0,0,1,1,.72,1.89,1.89,0,0,1,.4,1.26A2.23,2.23,0,0,1,411.34,304.6Zm-3.89-4.7a2,2,0,0,0,.66.32v-1.69a1.32,1.32,0,0,0-.67.34.8.8,0,0,0-.21.54A.61.61,0,0,0,407.45,299.9Zm2.48,3.69a.74.74,0,0,0,.22-.51.64.64,0,0,0-.22-.49,1.82,1.82,0,0,0-.64-.33v1.63A1.24,1.24,0,0,0,409.93,303.59Z"/><path class="cls-5" d="M418.91,304.6a3.46,3.46,0,0,1-2.05.86v1.33h-1.19V305.5a7,7,0,0,1-1.67-.31,4.36,4.36,0,0,1-1.28-.64l.65-1.45a4.43,4.43,0,0,0,1.06.56,4.84,4.84,0,0,0,1.24.28v-2a8.24,8.24,0,0,1-1.42-.45,2.52,2.52,0,0,1-1-.73,2,2,0,0,1-.39-1.27,2.3,2.3,0,0,1,.71-1.69,3.4,3.4,0,0,1,2.07-.86v-1.32h1.19v1.29a5.19,5.19,0,0,1,2.41.73l-.6,1.46a4.65,4.65,0,0,0-1.81-.62v2a8.44,8.44,0,0,1,1.41.44,2.44,2.44,0,0,1,1,.72,1.94,1.94,0,0,1,.39,1.26A2.22,2.22,0,0,1,418.91,304.6ZM415,299.9a2.07,2.07,0,0,0,.65.32v-1.69a1.29,1.29,0,0,0-.66.34.8.8,0,0,0-.21.54A.61.61,0,0,0,415,299.9Zm2.48,3.69a.73.73,0,0,0,.21-.51.61.61,0,0,0-.22-.49,1.68,1.68,0,0,0-.63-.33v1.63A1.28,1.28,0,0,0,417.5,303.59Z"/><path class="cls-5" d="M434.17,82.26c0,.15-37.12.26-82.9.26s-82.9-.11-82.9-.26,37.11-.26,82.9-.26S434.17,82.12,434.17,82.26Z"/><path class="cls-7" d="M400.32,375.29H306.18a19.66,19.66,0,0,1-19.66-19.67h0A19.66,19.66,0,0,1,306.18,336h94.14A19.67,19.67,0,0,1,420,355.62h0A19.67,19.67,0,0,1,400.32,375.29Z"/><path class="cls-2" d="M331.48,361a4.14,4.14,0,0,1-1.63-1.53,4.48,4.48,0,0,1,0-4.41,4.14,4.14,0,0,1,1.63-1.53,4.86,4.86,0,0,1,2.33-.56,4.8,4.8,0,0,1,2.32.56,4.22,4.22,0,0,1,0,7.47,4.8,4.8,0,0,1-2.32.56A4.86,4.86,0,0,1,331.48,361Zm3.66-1.42a2.47,2.47,0,0,0,.93-.94,3,3,0,0,0,0-2.75,2.47,2.47,0,0,0-.93-.94,2.77,2.77,0,0,0-2.66,0,2.34,2.34,0,0,0-.93.94,3,3,0,0,0,0,2.75,2.34,2.34,0,0,0,.93.94,2.77,2.77,0,0,0,2.66,0Z"/><path class="cls-2" d="M345.09,361.4l-1.6-2.32h-1.77v2.32H339.8v-8.31h3.59a4.7,4.7,0,0,1,1.92.37,2.82,2.82,0,0,1,1.25,1.05,2.88,2.88,0,0,1,.44,1.6,2.78,2.78,0,0,1-.45,1.59,2.81,2.81,0,0,1-1.26,1l1.86,2.67ZM344.6,355a2,2,0,0,0-1.32-.37h-1.56v2.89h1.56a2,2,0,0,0,1.32-.38,1.3,1.3,0,0,0,.45-1.06A1.33,1.33,0,0,0,344.6,355Z"/><path class="cls-2" d="M348.52,353.09h3.77a5.35,5.35,0,0,1,2.39.52,3.84,3.84,0,0,1,1.61,1.45,4.47,4.47,0,0,1,0,4.37,3.84,3.84,0,0,1-1.61,1.45,5.35,5.35,0,0,1-2.39.52h-3.77Zm3.67,6.73a2.78,2.78,0,0,0,2-.7,2.75,2.75,0,0,0,0-3.75,2.78,2.78,0,0,0-2-.7h-1.75v5.15Z"/><path class="cls-2" d="M364.74,359.85v1.55h-6.43v-8.31h6.28v1.55h-4.37v1.8h3.85v1.49h-3.85v1.92Z"/><path class="cls-2" d="M371.56,361.4l-1.6-2.32h-1.77v2.32h-1.92v-8.31h3.59a4.7,4.7,0,0,1,1.92.37,2.82,2.82,0,0,1,1.25,1.05,2.88,2.88,0,0,1,.44,1.6,2.73,2.73,0,0,1-1.71,2.62l1.86,2.67Zm-.49-6.37a2,2,0,0,0-1.31-.37h-1.57v2.89h1.57a2,2,0,0,0,1.31-.38,1.3,1.3,0,0,0,.45-1.06A1.33,1.33,0,0,0,371.07,355Z"/><rect class="cls-4" x="270.85" y="89.23" width="56.05" height="54.91"/><path class="cls-5" d="M270.85,89.23l.79,0H274l9.12,0,34.1-.07L434.4,89h.25v.26c0,17.31,0,35.81,0,54.89h0v.26h-.26l-163.55-.09h-.17v-.17c0-17.23.07-31,.09-40.42,0-4.69,0-8.32.05-10.78,0-1.21,0-2.14,0-2.77s0-.93,0-.93,0,.33,0,1,0,1.58,0,2.81c0,2.47,0,6.1,0,10.82,0,9.42.05,23.12.09,40.31l-.17-.17,163.55-.09-.27.26h0c0-19.08,0-37.58,0-54.89l.26.25-117-.12-34.17-.07-9.16,0-2.38,0Z"/><polygon class="cls-7" points="311.18 115.73 309.36 124.66 315.29 124.52 311.18 115.73"/><g class="cls-8"><polygon points="311.18 115.73 309.36 124.66 315.29 124.52 311.18 115.73"/></g><polygon class="cls-7" points="285.76 116.01 287.58 124.94 281.65 124.81 285.76 116.01"/><g class="cls-8"><polygon points="285.76 116.01 287.58 124.94 281.65 124.81 285.76 116.01"/></g><path class="cls-9" d="M301,117.67h0a.76.76,0,0,1-.75-.72L299.34,96a.75.75,0,0,1,.74-.78h1.05a.76.76,0,0,1,.75.76l-.18,20.92A.75.75,0,0,1,301,117.67Z"/><rect class="cls-7" x="299.41" y="97.93" width="2.47" height="1.82"/><path class="cls-9" d="M302.64,117.75h0a.75.75,0,0,1-.46-.93l6.37-19.95a.76.76,0,0,1,1-.47l1,.36a.74.74,0,0,1,.44,1l-7.35,19.59A.75.75,0,0,1,302.64,117.75Z"/><rect class="cls-7" x="307.92" y="98.72" width="1.82" height="2.47" transform="translate(108.9 355.68) rotate(-69.92)"/><path class="cls-2" d="M309.76,112.43a5,5,0,0,0-3.44-2.18,7,7,0,0,0-4,.72c-1,.45-2,1.09-3,.88a5.9,5.9,0,0,1-2-1.12,7,7,0,0,0-5.33-1.08,7.63,7.63,0,0,0-4.62,3.19,5.13,5.13,0,0,0-.91,4.2l23.63-.08A5.14,5.14,0,0,0,309.76,112.43Z"/><path class="cls-5" d="M309.13,116.43a6,6,0,0,0,0-1.17,4.3,4.3,0,0,0-1.33-2.78,3.44,3.44,0,0,0-1.95-.86,5.47,5.47,0,0,0-2.45.35c-.84.28-1.62.81-2.54,1.18a3.53,3.53,0,0,1-1.49.28,3.79,3.79,0,0,1-1.5-.42c-.95-.45-1.75-1.07-2.61-1.51a5,5,0,0,0-2.65-.59,5.33,5.33,0,0,0-4,2.18,6.9,6.9,0,0,0-1.25,2.89,6.46,6.46,0,0,0-.11.86,1.16,1.16,0,0,1,0,.3,5,5,0,0,1,.06-1.18,6.8,6.8,0,0,1,1.21-3,5.43,5.43,0,0,1,4.08-2.28,5.19,5.19,0,0,1,2.76.6c.88.44,1.68,1.07,2.6,1.51a3.28,3.28,0,0,0,2.83.13c.89-.35,1.68-.89,2.55-1.18a5.63,5.63,0,0,1,2.53-.33,3.58,3.58,0,0,1,2,.92,4.3,4.3,0,0,1,1.31,2.89A3.22,3.22,0,0,1,309.13,116.43Z"/><path class="cls-5" d="M308,116.71a6.75,6.75,0,0,0,0-1,3.17,3.17,0,0,0-1.3-2.33,2.44,2.44,0,0,0-1.78-.43,5.42,5.42,0,0,0-2,.85,8.8,8.8,0,0,1-2.21,1.11,4.26,4.26,0,0,1-2.65-.25c-1.7-.67-3.07-1.82-4.6-2.12a4,4,0,0,0-3.72,1.19,5.16,5.16,0,0,0-1.27,2.42c-.14.65-.13,1-.15,1a4.21,4.21,0,0,1,.07-1,5.16,5.16,0,0,1,1.24-2.52,4.19,4.19,0,0,1,3.87-1.27c1.59.31,3,1.47,4.64,2.12a4.06,4.06,0,0,0,2.51.25,8.8,8.8,0,0,0,2.17-1.08,5.38,5.38,0,0,1,2.07-.86,2.61,2.61,0,0,1,1.89.48,3.22,3.22,0,0,1,1.3,2.44A2.7,2.7,0,0,1,308,116.71Z"/><path class="cls-5" d="M306.55,116.71a1.67,1.67,0,0,0-.13-.78,1.55,1.55,0,0,0-1.79-.87c-.94.13-1.77,1-3,1.41a5.68,5.68,0,0,1-4-.54,21.33,21.33,0,0,0-3.71-1.59,3.78,3.78,0,0,0-3.12.41,3.15,3.15,0,0,0-1.25,1.75,4.9,4.9,0,0,0-.12.8,1.86,1.86,0,0,1,0-.82,3.15,3.15,0,0,1,1.25-1.85,3.92,3.92,0,0,1,3.25-.48,20.83,20.83,0,0,1,3.75,1.59,5.47,5.47,0,0,0,3.86.54c1.15-.39,2-1.24,3-1.37a1.81,1.81,0,0,1,1.28.23,1.79,1.79,0,0,1,.62.76,1.23,1.23,0,0,1,.09.61A.59.59,0,0,1,306.55,116.71Z"/><path class="cls-7" d="M285.72,115.94c0,.61,4.34,22.89,4.34,22.89l17-.27,4.09-22.83Z"/><path class="cls-5" d="M285.72,115.94l.48,0,1.43,0,5.33-.07,18.21-.2h.17l-.07.15c-.85,1.68-1.73,3.44-2.64,5.23l-2.21,4.38,0,.06h-.07l-15.86,0h-.05l0-.05-4.68-9.44,4.82,9.37-.07,0,15.86,0-.09,0c.72-1.42,1.46-2.89,2.21-4.39l2.63-5.23.1.15Z"/><g class="cls-8"><polygon points="290.93 125.35 291.36 126.28 306.79 126.28 310.77 116.53 306.33 125.35 290.93 125.35"/></g><path class="cls-2" d="M301.9,134.73a45.65,45.65,0,0,1-6,0,45.65,45.65,0,0,1,6,0Z"/><path class="cls-2" d="M300.85,131.18s0-.18-.1-.47a2,2,0,0,0-.72-1,1.93,1.93,0,0,0-1.79-.25,1.87,1.87,0,0,0,0,3.52,1.93,1.93,0,0,0,1.79-.25,2,2,0,0,0,.72-1c.08-.29.08-.47.1-.47a1.32,1.32,0,0,1,0,.49,2,2,0,0,1-.71,1.14,2.06,2.06,0,1,1-1.95-3.57,2,2,0,0,1,1.94.32,2,2,0,0,1,.72,1.13A1.32,1.32,0,0,1,300.85,131.18Z"/><path class="cls-5" d="M291,108a.62.62,0,0,0,.44-.43,1,1,0,0,0,0-.73,3.82,3.82,0,0,0-.57-.85,2.88,2.88,0,0,1-.49-2.63,2.82,2.82,0,0,1,.89-1.36c.4-.37.89-.74.95-1.3a1.91,1.91,0,0,0-.68-1.42,5.06,5.06,0,0,1-1-1.29,3.35,3.35,0,0,1-.11-2.69,3.3,3.3,0,0,1,1.13-1.45,2.07,2.07,0,0,1,.6-.31s-.22.11-.55.38a3.32,3.32,0,0,0-1,1.43,3.21,3.21,0,0,0,.14,2.56,5.14,5.14,0,0,0,1,1.23,2.14,2.14,0,0,1,.74,1.59,2.52,2.52,0,0,1-1,1.42A2.74,2.74,0,0,0,291,106a3.64,3.64,0,0,1,.56.89,1.09,1.09,0,0,1,0,.8C291.3,108.08,291,108.05,291,108Z"/><path class="cls-5" d="M293.61,108a.62.62,0,0,0,.44-.43,1,1,0,0,0,0-.73,3.82,3.82,0,0,0-.57-.85,2.88,2.88,0,0,1-.49-2.63,2.82,2.82,0,0,1,.89-1.36c.4-.37.89-.74.95-1.3a1.91,1.91,0,0,0-.68-1.42,5.06,5.06,0,0,1-1-1.29,3.35,3.35,0,0,1-.11-2.69,3.3,3.3,0,0,1,1.13-1.45,2.07,2.07,0,0,1,.6-.31s-.22.11-.55.38a3.32,3.32,0,0,0-1,1.43,3.21,3.21,0,0,0,.14,2.56,5.14,5.14,0,0,0,1,1.23,2.1,2.1,0,0,1,.73,1.59,2.46,2.46,0,0,1-1,1.42,2.65,2.65,0,0,0-.85,1.27,2.74,2.74,0,0,0,.43,2.49,3.64,3.64,0,0,1,.56.89,1,1,0,0,1,0,.8C293.93,108.08,293.58,108.05,293.61,108Z"/><rect class="cls-7" x="337.77" y="99.08" width="32.45" height="4.42"/><rect class="cls-1" x="337.77" y="109.98" width="85.59" height="2.83"/><rect class="cls-1" x="337.77" y="115.64" width="85.59" height="2.83"/><path class="cls-7" d="M400.6,132.36H399v1.58h-1.2v-1.58h-1.61v-1.13h1.61v-1.59H399v1.59h1.62Z"/><path class="cls-7" d="M411.67,133.82v1.23h-4.92v-1l2.51-2.37a2.36,2.36,0,0,0,.54-.66,1.21,1.21,0,0,0,.14-.54.72.72,0,0,0-.27-.6,1.2,1.2,0,0,0-.77-.21,1.78,1.78,0,0,0-.78.16,1.41,1.41,0,0,0-.57.49l-1.1-.71a2.54,2.54,0,0,1,1.05-.88,3.45,3.45,0,0,1,1.54-.33,3.16,3.16,0,0,1,1.27.24,2,2,0,0,1,.84.67,1.69,1.69,0,0,1,.31,1,2.29,2.29,0,0,1-.23,1,4,4,0,0,1-.86,1.06l-1.5,1.41Z"/><path class="cls-7" d="M417.68,131.85h2.64V133h-2.64Z"/><path class="cls-5" d="M423.36,139.32a1.64,1.64,0,0,1,0-.29c0-.21,0-.48,0-.81,0-.74,0-1.77-.05-3.07,0-2.67-.06-6.47-.1-11.13l.19.19-32.33.07.26-.26h0v7.88c0,2.56,0,5,0,7.41l-.25-.24,23.15.11,6.72.07,1.82,0,.64,0a4.08,4.08,0,0,1-.59,0l-1.76,0-6.66.07-23.32.12h-.25v-.25c0-2.37,0-4.85,0-7.41V124h0c-.06,0,.49-.5.26-.26l32.33.06h.19V124c0,4.71-.08,8.55-.1,11.25,0,1.28,0,2.29-.05,3l0,.77A1,1,0,0,1,423.36,139.32Z"/><path class="cls-1" d="M344.3,134.44a3.49,3.49,0,0,1-2.06.86v1.33h-1.18v-1.3a6.42,6.42,0,0,1-1.67-.3,4.56,4.56,0,0,1-1.29-.64l.66-1.45a4.35,4.35,0,0,0,1.05.56,4.92,4.92,0,0,0,1.25.28v-2a8.37,8.37,0,0,1-1.43-.45,2.59,2.59,0,0,1-1-.73,2,2,0,0,1-.39-1.27,2.28,2.28,0,0,1,.72-1.69,3.35,3.35,0,0,1,2.07-.86v-1.32h1.18v1.29a5.12,5.12,0,0,1,2.41.73l-.59,1.45a4.67,4.67,0,0,0-1.82-.61v2a7.89,7.89,0,0,1,1.41.44,2.54,2.54,0,0,1,1,.72,1.94,1.94,0,0,1,.39,1.26A2.26,2.26,0,0,1,344.3,134.44Zm-3.9-4.7a2.13,2.13,0,0,0,.66.32v-1.69a1.37,1.37,0,0,0-.67.34.8.8,0,0,0-.21.54A.61.61,0,0,0,340.4,129.74Zm2.48,3.69a.7.7,0,0,0,.22-.51.64.64,0,0,0-.22-.49,1.82,1.82,0,0,0-.64-.33v1.63A1.24,1.24,0,0,0,342.88,133.43Z"/><path class="cls-1" d="M353.26,134.44a3.44,3.44,0,0,1-2.05.86v1.33H350v-1.3a6.57,6.57,0,0,1-1.68-.3,4.49,4.49,0,0,1-1.28-.64l.66-1.45a4.35,4.35,0,0,0,1,.56,4.82,4.82,0,0,0,1.25.28v-2a8.09,8.09,0,0,1-1.43-.45,2.59,2.59,0,0,1-1-.73,2,2,0,0,1-.39-1.27,2.28,2.28,0,0,1,.72-1.69,3.32,3.32,0,0,1,2.07-.86v-1.32h1.18v1.29a5.12,5.12,0,0,1,2.41.73L353,129a4.73,4.73,0,0,0-1.82-.61v2a8.16,8.16,0,0,1,1.41.44,2.44,2.44,0,0,1,1,.72,1.89,1.89,0,0,1,.4,1.26A2.23,2.23,0,0,1,353.26,134.44Zm-3.89-4.7a2,2,0,0,0,.66.32v-1.69a1.32,1.32,0,0,0-.67.34.8.8,0,0,0-.21.54A.61.61,0,0,0,349.37,129.74Zm2.48,3.69a.74.74,0,0,0,.22-.51.64.64,0,0,0-.22-.49,1.82,1.82,0,0,0-.64-.33v1.63A1.24,1.24,0,0,0,351.85,133.43Z"/><path class="cls-5" d="M327,144.65c-.15,0-.26-12.34-.26-27.55s.11-27.54.26-27.54.26,12.33.26,27.54S327.1,144.65,327,144.65Z"/><rect class="cls-4" x="270.85" y="149.81" width="56.05" height="54.91"/><path class="cls-5" d="M270.85,149.81l.79,0H274l9.12,0,34.1-.08,117.2-.11h.25v.25c0,17.31,0,35.82,0,54.89h0V205h-.26l-163.55-.09h-.17v-.18c0-17.23.07-31,.09-40.41,0-4.7,0-8.32.05-10.79,0-1.21,0-2.14,0-2.77s0-.93,0-.93,0,.33,0,1,0,1.58,0,2.81c0,2.47,0,6.11,0,10.82,0,9.42.05,23.12.09,40.31l-.17-.17,163.55-.09-.27.26h0c0-19.07,0-37.58,0-54.89l.26.25-117-.12-34.17-.07-9.16,0h-2.38Z"/><rect class="cls-7" x="337.77" y="159.66" width="32.45" height="4.42"/><rect class="cls-1" x="337.77" y="170.56" width="85.59" height="2.83"/><rect class="cls-1" x="337.77" y="176.23" width="85.59" height="2.83"/><path class="cls-7" d="M400.6,192.94H399v1.59h-1.2v-1.59h-1.61v-1.13h1.61v-1.58H399v1.58h1.62Z"/><path class="cls-7" d="M409.32,189.12v6.51h-1.51v-5.3H406.5v-1.21Z"/><path class="cls-7" d="M415.84,192.43h2.63v1.16h-2.63Z"/><path class="cls-5" d="M423.36,199.91a2,2,0,0,1,0-.29c0-.22,0-.49,0-.81,0-.75,0-1.77-.05-3.07,0-2.68-.06-6.47-.1-11.14l.19.19-32.33.07.26-.26h0v7.88c0,2.56,0,5,0,7.41l-.25-.24,23.15.12,6.72.06,1.82,0a3.08,3.08,0,0,1,.64,0,4.08,4.08,0,0,1-.59,0L421,200l-6.66.06-23.32.12h-.25v-.25c0-2.37,0-4.85,0-7.41v-7.88h0l.26-.26,32.33.07h.19v.19c0,4.71-.08,8.55-.1,11.25,0,1.28,0,2.29-.05,3l0,.77A1.21,1.21,0,0,1,423.36,199.91Z"/><path class="cls-1" d="M344.3,195a3.49,3.49,0,0,1-2.06.86v1.33h-1.18v-1.29a6.42,6.42,0,0,1-1.67-.31,4.31,4.31,0,0,1-1.29-.64l.66-1.45a4.35,4.35,0,0,0,1.05.56,4.92,4.92,0,0,0,1.25.28v-2a8.37,8.37,0,0,1-1.43-.45,2.49,2.49,0,0,1-1-.73,2,2,0,0,1-.39-1.27,2.28,2.28,0,0,1,.72-1.69,3.4,3.4,0,0,1,2.07-.86v-1.32h1.18v1.29a5.12,5.12,0,0,1,2.41.73l-.59,1.46a4.69,4.69,0,0,0-1.82-.62v2a7.94,7.94,0,0,1,1.41.43,2.54,2.54,0,0,1,1,.72,2,2,0,0,1,.39,1.27A2.25,2.25,0,0,1,344.3,195Zm-3.9-4.7a1.93,1.93,0,0,0,.66.32V189a1.36,1.36,0,0,0-.67.33.8.8,0,0,0-.21.54A.61.61,0,0,0,340.4,190.32Zm2.48,3.69a.67.67,0,0,0,.22-.51.64.64,0,0,0-.22-.49,2,2,0,0,0-.64-.33v1.64A1.32,1.32,0,0,0,342.88,194Z"/><path class="cls-5" d="M327,205.23c-.15,0-.26-12.33-.26-27.54s.11-27.55.26-27.55.26,12.33.26,27.55S327.1,205.23,327,205.23Z"/><rect class="cls-4" x="270.85" y="210.24" width="56.05" height="54.91"/><path class="cls-5" d="M270.85,210.24h.79l2.34,0,9.12,0,34.1-.07L434.4,210h.25v.25c0,17.31,0,35.82,0,54.9h0v.26h-.26l-163.55-.09h-.17v-.17c0-17.24.07-31,.09-40.42,0-4.7,0-8.32.05-10.78,0-1.22,0-2.14,0-2.78s0-.93,0-.93,0,.33,0,1,0,1.57,0,2.8c0,2.47,0,6.11,0,10.82,0,9.42.05,23.13.09,40.32l-.17-.17,163.55-.09-.27.26h0c0-19.08,0-37.59,0-54.9l.26.26-117-.12-34.17-.07-9.16,0-2.38,0Z"/><rect class="cls-7" x="337.77" y="220.09" width="32.45" height="4.42"/><rect class="cls-1" x="337.77" y="231" width="85.59" height="2.83"/><rect class="cls-1" x="337.77" y="236.66" width="85.59" height="2.83"/><path class="cls-7" d="M400.6,253.38H399V255h-1.2v-1.58h-1.61v-1.14h1.61v-1.58H399v1.58h1.62Z"/><path class="cls-7" d="M409.32,249.55v6.52h-1.51v-5.31H406.5v-1.21Z"/><path class="cls-7" d="M415.84,252.87h2.63V254h-2.63Z"/><path class="cls-5" d="M423.36,260.34a2,2,0,0,1,0-.29c0-.22,0-.48,0-.81,0-.75,0-1.77-.05-3.07,0-2.68-.06-6.47-.1-11.14l.19.19-32.33.07.26-.26h0v7.87c0,2.56,0,5,0,7.41l-.25-.25,23.15.12,6.72.07,1.82,0,.64,0a4.08,4.08,0,0,1-.59,0l-1.76,0-6.66.07-23.32.12h-.25v-.25c0-2.37,0-4.85,0-7.41v-7.87h0l.26-.26,32.33.07h.19V245c0,4.72-.08,8.55-.1,11.26,0,1.28,0,2.29-.05,3l0,.78A1,1,0,0,1,423.36,260.34Z"/><path class="cls-1" d="M344.3,255.45a3.43,3.43,0,0,1-2.06.86v1.33h-1.18v-1.29a6,6,0,0,1-1.67-.31,4.31,4.31,0,0,1-1.29-.64l.66-1.45a4,4,0,0,0,1.05.56,4.94,4.94,0,0,0,1.25.29v-2a10.63,10.63,0,0,1-1.43-.45,2.59,2.59,0,0,1-1-.73,2,2,0,0,1-.39-1.28,2.28,2.28,0,0,1,.72-1.69,3.4,3.4,0,0,1,2.07-.86v-1.32h1.18v1.3a5.23,5.23,0,0,1,2.41.72l-.59,1.46a4.69,4.69,0,0,0-1.82-.62v2a7.94,7.94,0,0,1,1.41.43,2.47,2.47,0,0,1,1,.73,1.94,1.94,0,0,1,.39,1.26A2.24,2.24,0,0,1,344.3,255.45Zm-3.9-4.7a1.77,1.77,0,0,0,.66.32v-1.68a1.29,1.29,0,0,0-.67.34.76.76,0,0,0-.21.54A.59.59,0,0,0,340.4,250.75Zm2.48,3.69a.67.67,0,0,0,.22-.51.64.64,0,0,0-.22-.49,2.22,2.22,0,0,0-.64-.33v1.64A1.24,1.24,0,0,0,342.88,254.44Z"/><path class="cls-1" d="M352.45,255.45a3.43,3.43,0,0,1-2.05.86v1.33h-1.19v-1.29a6.17,6.17,0,0,1-1.67-.31,4.13,4.13,0,0,1-1.28-.64l.65-1.45a3.94,3.94,0,0,0,1.06.56,4.77,4.77,0,0,0,1.24.29v-2a10,10,0,0,1-1.42-.45,2.52,2.52,0,0,1-1-.73,1.92,1.92,0,0,1-.4-1.28,2.28,2.28,0,0,1,.72-1.69,3.4,3.4,0,0,1,2.07-.86v-1.32h1.19v1.3a5.23,5.23,0,0,1,2.4.72l-.59,1.46a4.7,4.7,0,0,0-1.81-.62v2a8.08,8.08,0,0,1,1.4.43,2.34,2.34,0,0,1,1,.73,1.94,1.94,0,0,1,.39,1.26A2.24,2.24,0,0,1,352.45,255.45Zm-3.89-4.7a1.71,1.71,0,0,0,.65.32v-1.68a1.22,1.22,0,0,0-.66.34.73.73,0,0,0-.22.54A.6.6,0,0,0,348.56,250.75Zm2.48,3.69a.69.69,0,0,0,.21-.51.61.61,0,0,0-.22-.49,2.29,2.29,0,0,0-.63-.33v1.64A1.28,1.28,0,0,0,351,254.44Z"/><path class="cls-5" d="M327,265.66c-.15,0-.26-12.33-.26-27.54s.11-27.55.26-27.55.26,12.33.26,27.55S327.1,265.66,327,265.66Z"/><path class="cls-7" d="M287.86,169.46l2.08,27.68a1.65,1.65,0,0,0,1.64,1.53l11.24.09a1.65,1.65,0,0,0,1.67-1.52l2.28-27.45Z"/><g class="cls-8"><path d="M305.79,181.55a157.75,157.75,0,0,1-17.16-.22l.55,8.32s10,1.71,16-.38Z"/></g><g class="cls-8"><path d="M306.64,171.28a26.79,26.79,0,0,1-12.26,1.81c-5.43-.34-6.39-1.66-6.39-1.66l-.07-1.24,18.81,0Z"/></g><path class="cls-1" d="M307.56,168.28l.44,1.9s-2.16,1.79-10.95,1.67c-7.86-.11-9.77-1.56-9.77-1.56l-.61-.52.53-1.8Z"/><path class="cls-5" d="M307.56,168.28H306l-4.31-.05L287.2,168l.06-.05-.53,1.8,0-.06.63.54a5.19,5.19,0,0,0,.79.37l.41.14.41.12a16.91,16.91,0,0,0,1.68.38,31.8,31.8,0,0,0,3.28.39,55.65,55.65,0,0,0,6,.11,32.24,32.24,0,0,0,4.84-.5,15,15,0,0,0,1.87-.47,5.93,5.93,0,0,0,1.38-.63v0c-.13-.61-.23-1.08-.31-1.41l-.07-.37,0-.13a1.26,1.26,0,0,0,0,.12l.08.36c.08.33.19.81.34,1.42h0a5.29,5.29,0,0,1-1.39.66,14.91,14.91,0,0,1-1.87.48,31,31,0,0,1-4.86.53,55.55,55.55,0,0,1-6-.09c-1.07-.08-2.17-.2-3.29-.39a17.1,17.1,0,0,1-1.69-.38l-.42-.13-.41-.14a4.61,4.61,0,0,1-.81-.38c-.24-.19-.44-.37-.65-.55l0,0v0c.18-.62.37-1.23.54-1.8v0h0l14.51.24,4.3.09,1.16,0h.39Z"/><path class="cls-2" d="M287.19,168.12c0,.92,4.52,1.59,10.18,1.73,3.86.11,9.49-.63,10.19-1.6.54-.74-4.55-1.69-10.17-1.73S287.2,167.2,287.19,168.12Z"/><path class="cls-5" d="M287.19,168.12a.35.35,0,0,1,0-.1.53.53,0,0,1,.2-.25,3.38,3.38,0,0,1,1.13-.49,24,24,0,0,1,4.47-.67,55.75,55.75,0,0,1,6.7-.08c1.26.06,2.59.17,4,.35.68.1,1.37.21,2.07.36.34.08.69.17,1,.28a4.4,4.4,0,0,1,.5.21l.13.07a.48.48,0,0,1,.11.09.38.38,0,0,1,.11.11.33.33,0,0,1,0,.17.24.24,0,0,1-.08.15.47.47,0,0,1-.1.1,1.19,1.19,0,0,1-.23.16c-.17.09-.33.16-.5.23a7.74,7.74,0,0,1-1,.31c-.69.17-1.38.29-2.06.39-1.36.2-2.68.31-3.95.37s-2.46,0-3.58,0-2.17-.11-3.12-.2a26.33,26.33,0,0,1-4.46-.7,3.41,3.41,0,0,1-1.13-.48.59.59,0,0,1-.2-.25.45.45,0,0,1,0-.11.31.31,0,0,0,0,.11.56.56,0,0,0,.2.23,3.66,3.66,0,0,0,1.13.46,28.17,28.17,0,0,0,4.46.66c.95.07,2,.14,3.11.18s2.32.07,3.58,0,2.58-.18,3.93-.38c.68-.1,1.37-.22,2.05-.39a8.57,8.57,0,0,0,1-.3l.49-.22a1.59,1.59,0,0,0,.21-.15.33.33,0,0,0,.14-.18c0-.05,0-.12-.11-.17l-.1-.07a.41.41,0,0,0-.11-.07,5,5,0,0,0-.49-.2c-.34-.11-.69-.2-1-.28-.69-.15-1.38-.26-2.06-.36-1.36-.18-2.67-.29-3.93-.36a58.36,58.36,0,0,0-6.7.06,24.59,24.59,0,0,0-4.46.63,3.43,3.43,0,0,0-1.13.46.5.5,0,0,0-.2.23A.3.3,0,0,0,287.19,168.12Z"/><path class="cls-1" d="M303.18,166.5l.24,1.07s-1.21,1.1-6.15.93-5.49-.87-5.49-.87l-.15-.18.1-1.13Z"/><path class="cls-5" d="M303.18,166.5h-.9l-2.42,0-8.13-.1.06,0c0,.36-.06.74-.09,1.13l0-.05.1.13a.35.35,0,0,0,.11.1,3.46,3.46,0,0,0,.9.33c.31.08.63.13.94.18.62.1,1.24.16,1.83.21,1.2.08,2.32.13,3.34.1a16.08,16.08,0,0,0,2.71-.26,7.6,7.6,0,0,0,1-.28,2.69,2.69,0,0,0,.76-.37v0l-.17-.79,0-.21a.32.32,0,0,1,0-.07l0,.06.05.2c.05.2.11.46.2.8v0h0a2.77,2.77,0,0,1-.77.39,6.61,6.61,0,0,1-1.05.29,14.06,14.06,0,0,1-2.71.29,32.35,32.35,0,0,1-3.35-.09c-.6,0-1.22-.1-1.85-.2-.32-.05-.63-.1-.95-.18a3.69,3.69,0,0,1-.94-.35.53.53,0,0,1-.13-.13l-.1-.12,0,0v0l.1-1.13v-.06h.05l8.16.15,2.42.06.65,0h.22Z"/><path class="cls-2" d="M291.73,166.41c0,.52,2.55,1,5.72,1s5.72-.38,5.73-.9-2.56-.95-5.72-1S291.73,165.89,291.73,166.41Z"/><path class="cls-5" d="M291.73,166.41s0-.1.12-.21a1.8,1.8,0,0,1,.63-.27,13,13,0,0,1,2.52-.39,32.63,32.63,0,0,1,3.77,0c.71,0,1.46.08,2.23.18.38.05.77.12,1.16.21a4,4,0,0,1,.59.18,1.75,1.75,0,0,1,.28.13.38.38,0,0,1,.21.29.35.35,0,0,1-.21.28,1.55,1.55,0,0,1-.29.14,4.23,4.23,0,0,1-.58.17,10.15,10.15,0,0,1-1.17.19,22.07,22.07,0,0,1-2.23.16,33.91,33.91,0,0,1-3.77-.1,13.14,13.14,0,0,1-2.51-.42,2,2,0,0,1-.64-.28c-.13-.11-.12-.22-.11-.21s0,.09.13.19a2,2,0,0,0,.63.26,13.86,13.86,0,0,0,2.5.37,32,32,0,0,0,3.77.08c.71,0,1.45-.07,2.21-.17a9.34,9.34,0,0,0,1.16-.19,3.7,3.7,0,0,0,.57-.16,2.1,2.1,0,0,0,.26-.13.3.3,0,0,0,.16-.18.31.31,0,0,0-.15-.18,2.24,2.24,0,0,0-.27-.13,3.62,3.62,0,0,0-.56-.17c-.39-.09-.78-.16-1.16-.21-.76-.1-1.5-.16-2.21-.19a33.05,33.05,0,0,0-3.77,0,14.63,14.63,0,0,0-2.51.34,2.33,2.33,0,0,0-.63.25A.26.26,0,0,0,291.73,166.41Z"/><path class="cls-2" d="M296.52,166.18l-.27-12.36,1.56-.07.26,12.44C297.46,166.17,297.08,166.37,296.52,166.18Z"/><path class="cls-5" d="M296.52,166.18a2.77,2.77,0,0,0,.39.07l.49,0a4.27,4.27,0,0,1,.67-.06l0,0c-.07-2.26-.19-7-.31-12.4v0l.07.06-1.56.07.06-.06c.06,3.47.12,6.55.17,8.77,0,1.11,0,2,0,2.63v1a.28.28,0,0,0,0-.06v-.18c0-.17,0-.4,0-.7,0-.62,0-1.51-.08-2.61,0-2.23-.13-5.32-.21-8.81v-.06h.06l1.56-.07h.06v.1c.11,5.43.2,10.14.23,12.4v0h0a4.55,4.55,0,0,0-.67,0,2.05,2.05,0,0,1-.49,0,1.54,1.54,0,0,1-.3-.05Z"/><polygon class="cls-6" points="297.33 153.82 297.59 166.21 297.01 166.19 296.66 153.84 297.33 153.82"/><path class="cls-5" d="M296,166.05s.68.09,1.53.09,1.54-.1,1.54-.06a1.85,1.85,0,0,1-.44.11,7.92,7.92,0,0,1-1.1.08,7.26,7.26,0,0,1-1.09-.1A1.15,1.15,0,0,1,296,166.05Z"/><path class="cls-5" d="M307,170.67a3.36,3.36,0,0,1-.29-.91,4.8,4.8,0,0,1-.18-.94,3,3,0,0,1,.3.91A3.86,3.86,0,0,1,307,170.67Z"/><path class="cls-5" d="M305.41,171.17a4.22,4.22,0,0,1-.31-.93,3.54,3.54,0,0,1-.19-1,4.2,4.2,0,0,1,.31.94A3.44,3.44,0,0,1,305.41,171.17Z"/><path class="cls-5" d="M303.65,171.56a4.61,4.61,0,0,1-.27-1,4.92,4.92,0,0,1-.15-1,3.54,3.54,0,0,1,.27,1A3.73,3.73,0,0,1,303.65,171.56Z"/><path class="cls-5" d="M301.58,171.79a4.25,4.25,0,0,1-.22-1,4.81,4.81,0,0,1-.09-1,4,4,0,0,1,.22,1A4.88,4.88,0,0,1,301.58,171.79Z"/><path class="cls-5" d="M299.4,171.89a4.18,4.18,0,0,1,0-1,3.75,3.75,0,0,1,.1-1,4.75,4.75,0,0,1,0,1A4.54,4.54,0,0,1,299.4,171.89Z"/><path class="cls-5" d="M297.62,171.83a3.34,3.34,0,0,1,0-1,3.87,3.87,0,0,1,.12-1,4.37,4.37,0,0,1,0,1A4,4,0,0,1,297.62,171.83Z"/><path class="cls-5" d="M295.74,171.77a3,3,0,0,1,.06-1,3.27,3.27,0,0,1,.23-1,4.37,4.37,0,0,1-.11,1A5.48,5.48,0,0,1,295.74,171.77Z"/><path class="cls-5" d="M293.51,171.62a4.31,4.31,0,0,1,.21-1,4.38,4.38,0,0,1,.33-1,4.31,4.31,0,0,1-.21,1A4.38,4.38,0,0,1,293.51,171.62Z"/><path class="cls-5" d="M291.48,171.47a4.77,4.77,0,0,1,.2-1,3.94,3.94,0,0,1,.32-1,4.77,4.77,0,0,1-.2,1A3.76,3.76,0,0,1,291.48,171.47Z"/><path class="cls-5" d="M289.09,171a3.42,3.42,0,0,1,.25-.93,3.63,3.63,0,0,1,.38-.9,4.44,4.44,0,0,1-.26.94A3.66,3.66,0,0,1,289.09,171Z"/><path class="cls-5" d="M287.3,170.34a3.16,3.16,0,0,1,.23-.84,3.24,3.24,0,0,1,.33-.8,2.57,2.57,0,0,1-.22.84A3,3,0,0,1,287.3,170.34Z"/><path class="cls-6" d="M301.6,234.78a8.77,8.77,0,0,0,1.71-4.42,7.12,7.12,0,0,0-.68-4.21.41.41,0,0,0-.19-.22.44.44,0,0,0-.31.06,5.08,5.08,0,0,0-.53,8.79"/><path class="cls-6" d="M304.71,231.07A6.63,6.63,0,0,0,307.6,229a5.32,5.32,0,0,0,1.28-2.95.33.33,0,0,0,0-.22.27.27,0,0,0-.21-.09,3.84,3.84,0,0,0-3.92,5.38"/><path class="cls-7" d="M304.18,234.67a2.09,2.09,0,0,0-.69-2,3.06,3.06,0,0,0-2-.71,3.3,3.3,0,0,0-1.84.49,2.3,2.3,0,0,0-.34,3.74,3.26,3.26,0,0,0,2.24.81,2.65,2.65,0,0,0,1.87-.68,2.35,2.35,0,0,0,.8-1.67"/><path class="cls-6" d="M311.23,236.68c2.77.5,5.51-2.57,6.18-4.57a.69.69,0,0,0,0-.64.71.71,0,0,0-.66-.15,6.49,6.49,0,0,0-5.5,5.36"/><path class="cls-7" d="M314.34,235.17a2.07,2.07,0,0,0-.68-2,3.19,3.19,0,0,0-2-.71,3.43,3.43,0,0,0-1.85.5,2.3,2.3,0,0,0-.33,3.73,3.24,3.24,0,0,0,2.23.82,2.69,2.69,0,0,0,1.87-.69,2.27,2.27,0,0,0,.8-1.66"/><path class="cls-7" d="M294.1,230.85a2.1,2.1,0,0,0-.69-2,3.11,3.11,0,0,0-2-.71,3.3,3.3,0,0,0-1.84.49,2.3,2.3,0,0,0-.34,3.74,3.31,3.31,0,0,0,2.23.82,2.72,2.72,0,0,0,1.88-.69,2.35,2.35,0,0,0,.8-1.66"/><path class="cls-6" d="M300.05,235.77a8.81,8.81,0,0,0-1.86-4.37,7.13,7.13,0,0,0-3.42-2.53.42.42,0,0,0-.29,0,.36.36,0,0,0-.18.25,5.08,5.08,0,0,0,5.75,6.67"/><path class="cls-6" d="M290,233.29a12.74,12.74,0,0,1-1.46-2,4.5,4.5,0,0,1-.62-2.39.44.44,0,0,1,.13-.34.43.43,0,0,1,.35,0,7.64,7.64,0,0,1,5.94,6.67l.08.41a5.89,5.89,0,0,1-4.37.66,9.27,9.27,0,0,1-3.38-1.33,4.86,4.86,0,0,1-2.05-2.92A6.51,6.51,0,0,1,290,233.29Z"/><path class="cls-6" d="M307.21,230.85a9.88,9.88,0,0,1,4.9-2.48,7,7,0,0,1-6.17,7.78l-.1-.19A5.1,5.1,0,0,1,307.21,230.85Z"/><path class="cls-2" d="M316.78,234.71a30.47,30.47,0,0,1-5.55,11.22c-6.13,7.55-20,5.45-23.73-.46-1.45-2.27-5.28-10.69-5.28-10.69Z"/><path class="cls-5" d="M316.78,234.71h-.69l-2,0-7.27,0-24.63.1.1-.14c1.12,2.45,2.3,5,3.58,7.54.33.67.67,1.32,1,2a10.67,10.67,0,0,0,1.17,1.82,10.22,10.22,0,0,0,3.28,2.61,17.62,17.62,0,0,0,7.68,2,17.25,17.25,0,0,0,7.1-1.16,13,13,0,0,0,5.06-3.65,29.84,29.84,0,0,0,4.52-7.95c.39-1,.65-1.81.82-2.36l.24-.83a21.76,21.76,0,0,1-1,3.22,29.79,29.79,0,0,1-4.49,8,13,13,0,0,1-5.11,3.72,17.24,17.24,0,0,1-7.17,1.19,17.76,17.76,0,0,1-7.77-2,10.43,10.43,0,0,1-3.34-2.66,11.21,11.21,0,0,1-1.19-1.85c-.35-.64-.68-1.3-1-2-1.27-2.57-2.46-5.1-3.58-7.56l-.07-.14h34.72Z"/><path class="cls-7" d="M314.51,240.35c0,.05-6.63.1-14.81.1s-14.82,0-14.82-.1,6.63-.11,14.82-.11S314.51,240.29,314.51,240.35Z"/><path class="cls-7" d="M315.11,239.49c0,.06-6.87.11-15.34.11s-15.35,0-15.35-.11,6.87-.1,15.35-.1S315.11,239.44,315.11,239.49Z"/><path class="cls-2" d="M158.88,100.36h73.4a5.25,5.25,0,0,1,5.25,5.25V179a5.24,5.24,0,0,1-5.25,5.24H177.61c-5,4.24-14.55,12.79-14.55,12.79l-.71-12.79h-3.47a5.23,5.23,0,0,1-5.24-5.24v-73.4A5.24,5.24,0,0,1,158.88,100.36Z"/><path class="cls-5" d="M158.88,100.36a6.69,6.69,0,0,0-1.68.32,5.34,5.34,0,0,0-1.79,1.07,5.21,5.21,0,0,0-1.49,2.41,15,15,0,0,0-.2,3.64c0,1.35,0,2.83,0,4.42,0,3.19,0,6.85,0,10.94,0,8.19,0,18.12.06,29.48,0,5.68,0,11.72,0,18.07v4.83c0,.82,0,1.64,0,2.46a8,8,0,0,0,.2,2.41,5.06,5.06,0,0,0,3.22,3.35,7,7,0,0,0,2.47.27h2.82v.22c.22,4,.47,8.35.72,12.78l-.4-.16,14.55-12.8.07-.06h46.3c3,0,5.93,0,8.82,0a5,5,0,0,0,4.47-3.74,8,8,0,0,0,.16-2.09V161.09c0-11.18,0-22,0-32.24q0-7.69,0-15,0-3.65,0-7.19a14,14,0,0,0-.06-1.73,4.6,4.6,0,0,0-.49-1.59,5.07,5.07,0,0,0-2.33-2.27,5.13,5.13,0,0,0-1.57-.45c-.53,0-1.1,0-1.66,0h-22l-36.8-.09-10,0-2.6,0-.89,0,.89,0,2.6,0,10,0,36.8-.08,12.19,0h9.83a16.46,16.46,0,0,1,1.71,0,5.33,5.33,0,0,1,1.7.48,5.45,5.45,0,0,1,2.54,2.46,5.14,5.14,0,0,1,.54,1.73,15.44,15.44,0,0,1,.06,1.79c0,2.36,0,4.76,0,7.19q0,7.3,0,15c0,10.28,0,21.06,0,32.24q0,8.39,0,17.06a8.47,8.47,0,0,1-.18,2.22,5.5,5.5,0,0,1-4.93,4.12c-3,0-5.89,0-8.86,0H177.61l.17-.06-14.56,12.76-.38.33,0-.49c-.25-4.44-.48-8.78-.7-12.78l.23.22h-2.6a7.07,7.07,0,0,1-2.61-.29,5.47,5.47,0,0,1-3.51-3.66,9.13,9.13,0,0,1-.22-2.53c0-.82,0-1.64,0-2.46v-4.83c0-6.35,0-12.39,0-18.07,0-11.36,0-21.29.06-29.48,0-4.09,0-7.75,0-10.94,0-1.59,0-3.07,0-4.42a14.41,14.41,0,0,1,.23-3.68,5.28,5.28,0,0,1,3.4-3.51,5,5,0,0,1,1.26-.25Z"/><polygon class="cls-7" points="213.45 141.05 210.79 154.1 219.45 153.9 213.45 141.05"/><g class="cls-8"><polygon points="213.45 141.05 210.79 154.1 219.45 153.9 213.45 141.05"/></g><polygon class="cls-7" points="176.31 141.46 178.97 154.51 170.3 154.31 176.31 141.46"/><g class="cls-8"><polygon points="176.31 141.46 178.97 154.51 170.3 154.31 176.31 141.46"/></g><path class="cls-9" d="M198.5,143.89h0a1.1,1.1,0,0,1-1.09-1l-1.27-30.58a1.1,1.1,0,0,1,1.1-1.14h1.52a1.11,1.11,0,0,1,1.1,1.11l-.26,30.57A1.11,1.11,0,0,1,198.5,143.89Z"/><rect class="cls-7" x="196.26" y="115.03" width="3.61" height="2.65"/><path class="cls-9" d="M201,144h0a1.09,1.09,0,0,1-.66-1.36l9.31-29.15a1.09,1.09,0,0,1,1.42-.69l1.43.52a1.1,1.1,0,0,1,.65,1.41l-10.75,28.63A1.09,1.09,0,0,1,201,144Z"/><rect class="cls-7" x="208.69" y="116.19" width="2.65" height="3.61" transform="translate(27.08 274.73) rotate(-69.92)"/><path class="cls-1" d="M211.38,136.23a7.24,7.24,0,0,0-5-3.18,10.15,10.15,0,0,0-5.8,1c-1.41.67-2.86,1.59-4.37,1.29a8.56,8.56,0,0,1-2.87-1.64,10.14,10.14,0,0,0-7.8-1.57,11.07,11.07,0,0,0-6.74,4.66,7.41,7.41,0,0,0-1.32,6.14l34.52-.12A7.47,7.47,0,0,0,211.38,136.23Z"/><path class="cls-5" d="M210.46,142.07a12.43,12.43,0,0,0,0-1.7,6.29,6.29,0,0,0-2-4,5,5,0,0,0-2.81-1.21,8,8,0,0,0-3.54.5c-1.21.42-2.34,1.19-3.7,1.74a5.17,5.17,0,0,1-2.22.41,5.63,5.63,0,0,1-2.24-.61c-1.4-.67-2.57-1.59-3.81-2.22a7.24,7.24,0,0,0-3.83-.85,7.5,7.5,0,0,0-3.41,1,7.92,7.92,0,0,0-2.33,2.09,10.27,10.27,0,0,0-1.85,4.19c-.21,1.08-.19,1.69-.24,1.69a1.42,1.42,0,0,1,0-.45,8.49,8.49,0,0,1,.08-1.28,9.86,9.86,0,0,1,1.75-4.36,8.27,8.27,0,0,1,2.4-2.25,7.92,7.92,0,0,1,3.61-1.14,7.58,7.58,0,0,1,4.09.88c1.3.65,2.47,1.57,3.8,2.2a5.44,5.44,0,0,0,2,.57,4.79,4.79,0,0,0,2-.37c1.29-.51,2.45-1.29,3.73-1.72a8.23,8.23,0,0,1,3.75-.48,5.36,5.36,0,0,1,3,1.37,6.26,6.26,0,0,1,1.9,4.27,5.72,5.72,0,0,1-.07,1.29A1.43,1.43,0,0,1,210.46,142.07Z"/><path class="cls-5" d="M208.81,142.48a12.42,12.42,0,0,0,0-1.49,4.62,4.62,0,0,0-1.9-3.34,3.55,3.55,0,0,0-2.55-.61,7.92,7.92,0,0,0-2.88,1.25,13.09,13.09,0,0,1-3.26,1.64,6.28,6.28,0,0,1-3.93-.37c-2.51-1-4.5-2.66-6.71-3.1a5.8,5.8,0,0,0-5.35,1.68,7.51,7.51,0,0,0-1.87,3.51c-.22.93-.22,1.47-.26,1.47s0-.13,0-.39a5.89,5.89,0,0,1,.1-1.12,7.38,7.38,0,0,1,1.8-3.72,6.41,6.41,0,0,1,2.4-1.63,6,6,0,0,1,3.32-.27c2.36.45,4.4,2.15,6.8,3.08a5.84,5.84,0,0,0,3.61.37,13,13,0,0,0,3.14-1.56,8.16,8.16,0,0,1,3.07-1.27,3.92,3.92,0,0,1,2.82.74,4.37,4.37,0,0,1,1.49,1.87A5.26,5.26,0,0,1,209,141a4.29,4.29,0,0,1-.09,1.13C208.88,142.36,208.83,142.49,208.81,142.48Z"/><path class="cls-5" d="M206.68,142.49a3.09,3.09,0,0,0-.22-1.14,2.4,2.4,0,0,0-.88-1,2.34,2.34,0,0,0-1.69-.23,6.11,6.11,0,0,0-2,.86,12.1,12.1,0,0,1-2.33,1.21,8.27,8.27,0,0,1-5.93-.78,32.72,32.72,0,0,0-5.4-2.33,5.49,5.49,0,0,0-4.5.57,4.64,4.64,0,0,0-1.83,2.5c-.21.73-.16,1.16-.22,1.16s0-.1-.05-.31a3.54,3.54,0,0,1,.07-.9,4.66,4.66,0,0,1,1.82-2.75,5.76,5.76,0,0,1,4.82-.73,29.42,29.42,0,0,1,5.5,2.32,8.06,8.06,0,0,0,5.57.8,12.36,12.36,0,0,0,2.27-1.14,6.27,6.27,0,0,1,2.15-.85,2.73,2.73,0,0,1,1.91.35,2.54,2.54,0,0,1,.91,1.14,1.92,1.92,0,0,1,.12.91A.69.69,0,0,1,206.68,142.49Z"/><path class="cls-7" d="M176.25,141.35c0,.9,6.34,33.46,6.34,33.46l24.87-.4,6-33.36Z"/><path class="cls-5" d="M176.25,141.35a5.37,5.37,0,0,1,.69,0l2.06,0,7.79-.14,26.65-.34h.42l-.19.38-3.84,7.64-3.23,6.41-.07.14h-.16l-23.18-.06h-.12l-.06-.11L178,145c-.56-1.16-1-2.07-1.33-2.74l-.34-.7a.76.76,0,0,1-.09-.23,2.87,2.87,0,0,0,.14.26l.39.73c.35.66.83,1.58,1.43,2.74,1.24,2.39,3,5.78,5.15,9.94l-.17-.11,23.18-.06-.23.14c1.05-2.08,2.12-4.23,3.22-6.41,1.32-2.62,2.61-5.18,3.86-7.64l.23.37-26.44.08H177A6.62,6.62,0,0,1,176.25,141.35Z"/><g class="cls-8"><polygon points="183.85 155.11 184.48 156.46 207.03 156.46 212.86 142.22 206.37 155.11 183.85 155.11"/></g><path class="cls-2" d="M199.89,168.82a19.2,19.2,0,0,1-4.41.26,19.26,19.26,0,0,1-4.42-.26,18.61,18.61,0,0,1,4.42-.26A18.56,18.56,0,0,1,199.89,168.82Z"/><path class="cls-2" d="M198.35,163.63a6.38,6.38,0,0,1-.18-.68,3,3,0,0,0-1.06-1.46,2.69,2.69,0,0,0-2.53-.34,2.65,2.65,0,0,0,0,5,2.71,2.71,0,0,0,2.53-.34,3,3,0,0,0,1.06-1.46,6.38,6.38,0,0,1,.18-.68s.09.26,0,.73a2.85,2.85,0,0,1-1,1.7,3,3,0,0,1-2.92.5,3.1,3.1,0,0,1,0-5.86,3.05,3.05,0,0,1,2.92.49,2.9,2.9,0,0,1,1,1.71C198.44,163.37,198.38,163.63,198.35,163.63Z"/><path class="cls-5" d="M183.93,129.82a1.12,1.12,0,0,0,.61-.65,1.48,1.48,0,0,0,0-1,5.32,5.32,0,0,0-.84-1.21,4.27,4.27,0,0,1-.76-3.93,4.32,4.32,0,0,1,1.33-2c.58-.54,1.27-1.08,1.35-1.82a2.76,2.76,0,0,0-1-2,7.9,7.9,0,0,1-1.45-1.91,5,5,0,0,1-.14-4,4.75,4.75,0,0,1,1.7-2.12,2.19,2.19,0,0,1,.89-.43s-.3.2-.77.59a5.06,5.06,0,0,0-1.48,2.09,4.67,4.67,0,0,0,.23,3.67,7.7,7.7,0,0,0,1.4,1.78,6.85,6.85,0,0,1,.78,1,2.16,2.16,0,0,1,.31,1.38,2.24,2.24,0,0,1-.61,1.26,9.33,9.33,0,0,1-.91.88,3.87,3.87,0,0,0-1.21,1.8,3.91,3.91,0,0,0,.59,3.56,5.64,5.64,0,0,1,.82,1.33,1.64,1.64,0,0,1-.05,1.21,1,1,0,0,1-.53.55C184,129.85,183.93,129.83,183.93,129.82Z"/><path class="cls-5" d="M187.77,129.82a1.09,1.09,0,0,0,.61-.65,1.48,1.48,0,0,0,0-1,5.32,5.32,0,0,0-.84-1.21,4.27,4.27,0,0,1-.76-3.93,4.32,4.32,0,0,1,1.33-2c.59-.54,1.27-1.08,1.35-1.82a2.73,2.73,0,0,0-1-2,7.9,7.9,0,0,1-1.45-1.91,5,5,0,0,1-.14-4,4.88,4.88,0,0,1,1.7-2.12,2.2,2.2,0,0,1,.9-.43s-.3.2-.78.59a5.15,5.15,0,0,0-1.48,2.09,4.67,4.67,0,0,0,.23,3.67,8,8,0,0,0,1.4,1.78,6.24,6.24,0,0,1,.78,1,2.23,2.23,0,0,1,.32,1.38,2.3,2.3,0,0,1-.61,1.26,12.31,12.31,0,0,1-.91.88,3.82,3.82,0,0,0-1.22,1.8,3.91,3.91,0,0,0,.6,3.56,5.93,5.93,0,0,1,.81,1.33,1.64,1.64,0,0,1,0,1.21,1,1,0,0,1-.54.55C187.86,129.85,187.77,129.83,187.77,129.82Z"/><polygon class="cls-5" points="72.98 427.95 66.02 473.2 73.97 473.2 87.4 427.95 72.98 427.95"/><polygon class="cls-5" points="245.76 427.95 252.72 473.2 244.76 473.2 231.34 427.95 245.76 427.95"/><path class="cls-6" d="M36.81,307.89C36.25,328.32,31,418.4,49.42,435.55H72.36c6,0,5.66-2.83,5.43-8.81L73.43,309.86a10.4,10.4,0,0,0-2.27-6.16c-3-3.72-9.07-9.47-17.39-8.91A24.6,24.6,0,0,0,41.23,299,11,11,0,0,0,36.81,307.89Z"/><polygon class="cls-6" points="244.72 436.86 72.36 435.55 72.36 382.3 244.72 382.3 244.72 436.86"/><polygon class="cls-6" points="244.03 382.3 71.37 383.72 71.37 351.77 244.72 348.53 244.03 382.3"/><path class="cls-6" d="M40.07,301.9s1.28-44.33,50.08-46.63,121.21,0,121.21,0,61.3-2.29,62.72,36.32l-12.18,74H72.63Z"/><path class="cls-6" d="M281.33,312.61C280,343.17,277.22,432.81,256,436.86H240.15L245,305.92s7.33-12.78,19.54-12l.36,0A17.89,17.89,0,0,1,281.33,312.61Z"/><path class="cls-5" d="M272.61,295.82l-.57-.14-1.65-.45-1.21-.34-1.49-.22c-.54-.07-1.12-.18-1.74-.25l-2,0a21.66,21.66,0,0,0-9.8,2.45l-.67.34c-.22.12-.43.27-.65.4l-1.32.83a29.46,29.46,0,0,0-2.54,2,26.59,26.59,0,0,0-4.6,5.32l0-.08c-.64,13.52-1.44,30.62-2.31,49.15-1,22.58-1.73,43-2.14,57.82-.19,7.39-.34,13.37-.44,17.53,0,2.05-.09,3.65-.11,4.76,0,.53,0,.94-.05,1.24s0,.43,0,.43,0-.15,0-.43,0-.71,0-1.24c0-1.11,0-2.71,0-4.76,0-4.14.12-10.14.28-17.54.33-14.8,1-35.25,2-57.83.83-18.54,1.7-35.64,2.4-49.15h0a.11.11,0,0,1,0-.08,26.58,26.58,0,0,1,4.69-5.39,30,30,0,0,1,2.59-2l1.34-.84c.22-.13.43-.28.66-.4l.68-.34a21.61,21.61,0,0,1,9.94-2.39l2,.06c.63.08,1.21.19,1.75.28l1.5.25,1.21.36,1.64.51A5.05,5.05,0,0,1,272.61,295.82Z"/><path class="cls-5" d="M72.63,383.58l.86,0,2.52,0,9.71,0,35.71.09c30.15.11,71.8.43,117.79-.23l1.9,0-.24.23q.26-8.19.49-16.18c.08-2.66.16-5.29.24-7.91l.12-3.91c0-.64.06-1.32,0-1.92a4.15,4.15,0,0,0-.5-1.76,4.48,4.48,0,0,0-2.92-2.16,8.72,8.72,0,0,0-1.93-.11h-2l-7.82,0-15.15.09-52.34.55c-14.89.14-26.93.21-35.25.22l-9.57,0-2.49,0-.85,0s.28,0,.85,0l2.48,0,9.58-.07,35.25-.37,52.34-.64,15.14-.11,7.83,0h2a9.51,9.51,0,0,1,2,.12,5,5,0,0,1,3.23,2.39,4.48,4.48,0,0,1,.56,1.95c0,.69,0,1.31,0,2,0,1.3-.08,2.6-.11,3.91q-.12,3.93-.24,7.92c-.16,5.31-.32,10.71-.49,16.17a.23.23,0,0,1-.24.23l-1.9,0c-46,.66-87.66.28-117.8.08l-35.71-.24L76,383.64l-2.52,0Z"/><g class="cls-10"><path d="M71.37,383.72c39.56,8.57,58.4,7.93,95.17,8.56,33,.57,69.34-5.38,74.58-8.92Z"/></g><path class="cls-5" d="M72.36,435.55a3.72,3.72,0,0,1,0-.44c0-.32,0-.75,0-1.3,0-1.17,0-2.84,0-5,0-4.36.09-10.61.16-18.33.18-15.5.44-36.87.72-60.47.17-11.81.32-23.06.46-33.3a20.59,20.59,0,0,0-8.81-18,21.12,21.12,0,0,0-5.38-2.64,20,20,0,0,0-10.23-.41,19.73,19.73,0,0,0-7.14,3.09,16,16,0,0,0-3.53,3.46c-.68.91-1,1.45-1,1.42a3.19,3.19,0,0,1,.2-.39,11.75,11.75,0,0,1,.7-1.09A15.26,15.26,0,0,1,42,298.64a19.67,19.67,0,0,1,7.2-3.22,20.28,20.28,0,0,1,10.4.35,21.53,21.53,0,0,1,5.5,2.65A23,23,0,0,1,69.9,303a22.25,22.25,0,0,1,3.28,6.29,22.75,22.75,0,0,1,1,7.45C74,327,73.9,338.22,73.75,350c-.34,23.6-.65,45-.87,60.47-.14,7.72-.25,14-.33,18.33,0,2.14-.09,3.82-.11,5,0,.55,0,1,0,1.3A2.5,2.5,0,0,1,72.36,435.55Z"/><path class="cls-7" d="M169.33,341.82a394.06,394.06,0,0,1,6.09-62.55c.57-3.15,1.31-6.55,3.75-8.61,2.1-1.77,5-2.16,7.74-2.39,19.64-1.59,39.68,7.18,57.52,16.67A10.52,10.52,0,0,1,249.86,296c-3,17.1-9,30-17.83,46.33a108.62,108.62,0,0,1-63.25,5.6"/><path class="cls-5" d="M134.12,187.3c-1.24-8.81-1.16-8.52-2.26-17-2.12-16.36-7.28-34.92-30.63-33.57,0,0-17.6.94-23,13.56-2.88,6.78-3.64,30.23-4.61,51.34a3.42,3.42,0,0,1-.2,1l-1.09,3.19a47.47,47.47,0,0,0-2.51,13l-1.52,29.32A3.64,3.64,0,0,0,71.79,252c7.87.39,25.85-.61,29.31-1.86a52.69,52.69,0,0,0,31.15-30.8c.37-1,5.46-1.44,6.42-1.81C140.24,216.91,134.36,189,134.12,187.3Z"/><path class="cls-11" d="M96.73,144.33,98.21,143l15.69,6.57a4.4,4.4,0,0,1,4.09,4.32l-.85,51.4c0,3.48,1,7.52-1.18,10.27l-2.52,3.56c-5.14,6.6-17,4.21-20.89-3.19a5.33,5.33,0,0,1-.54-1.34,10,10,0,0,1-.22-1.15c-.41-4.15-.39-7.73-.39-7.73-.22-4.55-.29-6.41-.29-6.37S81.47,198.06,79,185.62c-1.21-6.19-.85-14.67-.37-23C79.33,151.06,87.44,144.18,96.73,144.33Z"/><path class="cls-5" d="M99.2,171a1.61,1.61,0,0,0,1.61,1.56,1.54,1.54,0,0,0,1.6-1.51,1.6,1.6,0,0,0-1.61-1.56A1.54,1.54,0,0,0,99.2,171Z"/><path class="cls-5" d="M83.08,171.13a1.6,1.6,0,0,0,1.61,1.56,1.53,1.53,0,0,0,1.6-1.5,1.61,1.61,0,0,0-1.61-1.57A1.54,1.54,0,0,0,83.08,171.13Z"/><path class="cls-5" d="M80.26,165.93c.21.2,1.39-.74,3.12-.8s3,.76,3.2.54-.12-.46-.69-.85a4.44,4.44,0,0,0-2.57-.69,4.26,4.26,0,0,0-2.47.9C80.33,165.46,80.16,165.84,80.26,165.93Z"/><path class="cls-5" d="M97.77,166.35c.23.18,1.31-.88,3-1.11s3.08.44,3.24.21-.17-.45-.78-.77a4.35,4.35,0,0,0-2.63-.43,4.22,4.22,0,0,0-2.36,1.15C97.79,165.88,97.66,166.28,97.77,166.35Z"/><path class="cls-5" d="M91.57,178.83a11.29,11.29,0,0,0-2.82-.41c-.45,0-.87-.1-1-.4a2.22,2.22,0,0,1,.24-1.31c.38-1.08.77-2.22,1.19-3.41,1.63-4.84,2.8-8.82,2.61-8.88s-1.69,3.81-3.32,8.65c-.4,1.2-.77,2.34-1.13,3.42a2.61,2.61,0,0,0-.17,1.74,1.12,1.12,0,0,0,.75.62,3.12,3.12,0,0,0,.76.08A11.19,11.19,0,0,0,91.57,178.83Z"/><path class="cls-12" d="M91.11,199.3a31.87,31.87,0,0,0,16.6-5.07s-3.9,8.81-16.47,8.09Z"/><path class="cls-12" d="M92.45,183a3.11,3.11,0,0,1,2.75-1.25,2.81,2.81,0,0,1,2,1,1.8,1.8,0,0,1,.22,2.05,2.11,2.11,0,0,1-2.25.66,6.72,6.72,0,0,1-2.25-1.24,1.83,1.83,0,0,1-.51-.49.57.57,0,0,1,0-.65"/><path class="cls-5" d="M96.69,179.84c-.28,0-.22,1.87-1.77,3.26s-3.56,1.25-3.56,1.51.45.35,1.3.34a4.67,4.67,0,0,0,3-1.16A4.06,4.06,0,0,0,97,181.07C97.05,180.28,96.82,179.82,96.69,179.84Z"/><path class="cls-5" d="M96.2,158c.23.44,1.91,0,4-.05s3.74.28,3.95-.17c.09-.22-.25-.62-1-1a6.87,6.87,0,0,0-6,.17C96.41,157.34,96.09,157.76,96.2,158Z"/><path class="cls-5" d="M80.62,158.52c.31.38,1.49-.07,2.92-.14s2.65.17,2.91-.25c.12-.2-.09-.59-.63-.94a4.23,4.23,0,0,0-4.7.31C80.63,157.93,80.48,158.34,80.62,158.52Z"/><path class="cls-5" d="M117.37,175.78s-8.87,2.63-13.57-19.25c-1.6-7.48-8.43-13.61-8.43-13.61l2.81-.81s17.36,5.15,17.65,5.38,4.27,9.07,4.27,9.07Z"/><path class="cls-11" d="M115.21,174.94c0-.93,1-3.17,1.88-3.34,2.44-.47,6.88-.44,7.14,5.8.37,8.53-8.27,7.13-8.29,6.89S115.32,178.16,115.21,174.94Z"/><path class="cls-12" d="M118.4,181s.16.1.41.2a1.51,1.51,0,0,0,1.11,0c.89-.37,1.59-1.84,1.56-3.37a4.9,4.9,0,0,0-.5-2.11,1.72,1.72,0,0,0-1.17-1.1.76.76,0,0,0-.86.45c-.1.24,0,.41-.09.43s-.19-.14-.13-.49a1,1,0,0,1,.31-.55,1.07,1.07,0,0,1,.81-.25,2.06,2.06,0,0,1,1.61,1.25,5,5,0,0,1,.62,2.36c0,1.72-.79,3.36-2,3.77a1.61,1.61,0,0,1-1.37-.17C118.43,181.15,118.37,181,118.4,181Z"/><path class="cls-5" d="M111.44,171.53s-.47,0-1.27-.28a7.58,7.58,0,0,1-3-1.8,9.93,9.93,0,0,1-1.56-1.88,13.89,13.89,0,0,1-1.25-2.5,52.37,52.37,0,0,1-1.75-6.23,64,64,0,0,0-1.88-6.21,34.82,34.82,0,0,0-2.15-4.85,26.77,26.77,0,0,0-1.91-3c-.25-.34-.46-.59-.6-.76l-.22-.26A1.46,1.46,0,0,0,96,144c.13.18.33.44.57.78a29.19,29.19,0,0,1,1.84,3.05,38.13,38.13,0,0,1,2.1,4.84c.67,1.87,1.28,4,1.85,6.2a49.9,49.9,0,0,0,1.77,6.24,14.38,14.38,0,0,0,1.29,2.54,10.93,10.93,0,0,0,1.61,1.89,7.48,7.48,0,0,0,3.09,1.77A5,5,0,0,0,111.44,171.53Z"/><path class="cls-7" d="M137.08,217.43l-19-7.17-27-5.88-21.77,2.88c-4.59.1-12.54,9.74-18.59,20.08-5.43,9.25-9.69,18.57-9.69,18.57l25.31,9.45c1.44,10.78,3.56,25,5.39,30.62,3.12,9.58,4.06,22.74,4.06,22.74L136,300.88l.85-41.29L156.6,257C156.57,255.56,149,221.1,137.08,217.43Z"/><path class="cls-5" d="M135.57,234a4.64,4.64,0,0,0,.11,1c.1.67.24,1.63.38,2.81a75.7,75.7,0,0,1,.59,9.31,77.5,77.5,0,0,1-.6,9.32c-.16,1.18-.29,2.14-.4,2.8a4.74,4.74,0,0,0-.11,1,4.44,4.44,0,0,0,.28-1c.16-.65.34-1.6.53-2.79a60.58,60.58,0,0,0,.73-9.36,59.62,59.62,0,0,0-.71-9.35c-.19-1.19-.37-2.14-.53-2.8A4.89,4.89,0,0,0,135.57,234Z"/><path class="cls-11" d="M155.8,257.6l-19.53,2.12.31,5.35-4.34-6.21-6.56,13.59s2.65,7.93,4.08,12.32c3.81,11.75,9.9,24.86,17,24,8.55-1,14.6-11.27,14.32-17.84C160.85,285,155.8,257.6,155.8,257.6Z"/><polygon class="cls-11" points="164.95 335.49 198.82 348.77 185.94 364.35 157.13 359.34 164.95 335.49"/><path class="cls-5" d="M75.9,308s-.89,38.62,2.65,45.35,37.78,7,37.78,7l54,2.75,6.3-25.27s-39.29-18.24-43-20.34-12.49-5.8-12.49-5.8l-13.22-17Z"/><path class="cls-6" d="M138.32,360.8a2.62,2.62,0,0,0-.43-.15l-1.24-.37L132,359l-15.53-4.12h-.06a23.72,23.72,0,0,1-2.61-.16,25.27,25.27,0,0,1-2.51-.43c-.81-.24-1.62-.42-2.38-.72a23.33,23.33,0,0,1-4.24-2,24.55,24.55,0,0,1-6-5.12,24,24,0,0,1-3-4.47c-.29-.56-.47-1-.62-1.33a2.92,2.92,0,0,0-.24-.45,2,2,0,0,0,.16.49c.12.31.28.78.55,1.36a22,22,0,0,0,2.89,4.59,24.14,24.14,0,0,0,6.08,5.28A23.82,23.82,0,0,0,108.8,354a25.28,25.28,0,0,0,2.42.74,23.57,23.57,0,0,0,2.56.44,22.3,22.3,0,0,0,2.66.16h0l15.57,4,4.65,1.15,1.26.29A2.06,2.06,0,0,0,138.32,360.8Z"/><path class="cls-5" d="M136.71,319.77l9.2-56.23s-1.22-40.48,21.51-37.59,20,38.52,20,38.52-2.95,48.83-4.55,55.89-2.42,14.89-7.06,17.71l-20.63-3.21Z"/><path class="cls-5" d="M154.44,236.19,149,249.48l3.41,50.76s29.29,2.52,29,1.72,5.25-25.28,5.25-25.28,1.82-32.49-6.86-38.69S154.44,236.19,154.44,236.19Z"/><path class="cls-11" d="M153.53,300.34s.38,24.23.38,24.23l20.47,11.24,5.55-33.69Z"/><polygon class="cls-5" points="107.92 294.69 130.27 285.49 143.64 297.46 136.22 321.35 116.6 314.03 107.92 294.69"/><path class="cls-6" d="M175.38,337.83l-.28-.15-.81-.41-3.16-1.54-11.66-5.59-17.3-8.24-10.23-4.85-5.41-2.56-2.77-1.31-1.4-.66a10.2,10.2,0,0,0-1.44-.61,20.83,20.83,0,0,0-6.08-1.24,24,24,0,0,0-6,.38,30.36,30.36,0,0,0-10.54,4.15,33.64,33.64,0,0,0-7.75,6.73,46.23,46.23,0,0,0-5.09,7.35,67.7,67.7,0,0,0-5.12,11.87c-.48,1.45-.81,2.59-1,3.36l-.24.88c0,.2-.07.31-.07.31a1.21,1.21,0,0,0,.11-.29l.29-.87c.24-.77.6-1.9,1.1-3.34a71,71,0,0,1,5.22-11.77,47.19,47.19,0,0,1,5.1-7.27,33.58,33.58,0,0,1,7.69-6.62,30,30,0,0,1,10.4-4.07,24.2,24.2,0,0,1,5.91-.37,20.8,20.8,0,0,1,6,1.21,9.45,9.45,0,0,1,1.43.61l1.4.66,2.76,1.3,5.42,2.56L142,322.27l17.35,8.15,11.71,5.46,3.19,1.47.83.37A1.18,1.18,0,0,0,175.38,337.83Z"/><path class="cls-6" d="M132.8,318.07a22.69,22.69,0,0,1,.25-3.67,28.77,28.77,0,0,1,3.21-8.26A51.06,51.06,0,0,0,140.1,298a16.81,16.81,0,0,0,.64-2.65,4.68,4.68,0,0,0,.07-1c-.08,0-.22,1.41-1,3.55a61.17,61.17,0,0,1-3.93,8,26.2,26.2,0,0,0-3.12,8.42,12.27,12.27,0,0,0-.11,2.73A3.88,3.88,0,0,0,132.8,318.07Z"/><path class="cls-6" d="M186.66,276.68a1.62,1.62,0,0,0-.08.26l-.2.78c-.17.71-.41,1.72-.71,3-.61,2.61-1.47,6.39-2.49,11.07-.51,2.34-1.06,4.9-1.59,7.67-.13.69-.27,1.39-.36,2.13a3,3,0,0,0,0,.32v.1s0,0,0-.09l0-.06s0,0-.05,0a4.36,4.36,0,0,1-.52.05h-1.11c-1.49,0-3-.11-4.61-.19-6.32-.38-13.26-.93-20.54-1.53l-2-.17.19.2c-1-14.11-1.85-26.79-2.48-36-.33-4.55-.6-8.24-.79-10.82-.11-1.26-.18-2.24-.24-2.94,0-.31-.06-.56-.07-.76s0-.26,0-.26a1.1,1.1,0,0,0,0,.27c0,.19,0,.44,0,.76,0,.7.09,1.68.16,2.94.16,2.58.38,6.27.66,10.83.6,9.19,1.43,21.87,2.35,36v.18l.19,0,2,.17c7.28.6,14.22,1.14,20.55,1.5,1.58.08,3.12.16,4.63.18.37,0,.75,0,1.12,0a3.9,3.9,0,0,0,.58-.05.64.64,0,0,0,.21-.09.17.17,0,0,0,.08-.1.22.22,0,0,0,0-.11c0-.05-.13,0,0-.05v0a2.11,2.11,0,0,1,0-.23c.08-.71.22-1.42.34-2.11.51-2.76,1.05-5.33,1.54-7.67,1-4.66,1.79-8.45,2.36-11.09l.63-3c.06-.33.11-.59.15-.79A.8.8,0,0,0,186.66,276.68Z"/><path class="cls-6" d="M159.68,232.37a3.45,3.45,0,0,0-.65.56,22.14,22.14,0,0,0-1.62,1.7,34,34,0,0,0-4.34,6.41,33.41,33.41,0,0,0-2.76,7.24c-.24,1-.4,1.75-.48,2.3a3.25,3.25,0,0,0-.08.86c.07,0,.3-1.19.85-3.08a38.53,38.53,0,0,1,7.05-13.53C158.88,233.3,159.73,232.42,159.68,232.37Z"/><path class="cls-6" d="M126.22,311.66a3.79,3.79,0,0,0-.15-.81c-.11-.52-.31-1.25-.6-2.16a43.57,43.57,0,0,0-2.79-6.82,45.27,45.27,0,0,0-3.89-6.27c-.56-.76-1-1.35-1.39-1.75a3.65,3.65,0,0,0-.57-.59,28.84,28.84,0,0,0,1.71,2.52,55.71,55.71,0,0,1,6.64,13C125.82,310.56,126.15,311.68,126.22,311.66Z"/><path class="cls-6" d="M89.46,308.72c-.07,0-.36.86-1,2.2a25.71,25.71,0,0,1-3,4.92,26,26,0,0,1-4,4.12c-1.14.93-1.91,1.44-1.87,1.5a2.47,2.47,0,0,0,.59-.28,17.53,17.53,0,0,0,1.47-1,21.09,21.09,0,0,0,4.16-4.1A21.41,21.41,0,0,0,88.77,311a17.65,17.65,0,0,0,.57-1.68A2,2,0,0,0,89.46,308.72Z"/><path class="cls-13" d="M198.32,364.72c12.62-.65,15.8-.24,28.42-.89,3.08-.15,14.28.24,16.86-1.46,2.35-1.55,5.36-3,6-5.73,1-4.62-.24-9.85-4.49-12.74a10.23,10.23,0,0,0-5-1.7c-7.45-.6-14.27,4.84-21.71,3.23-2-.43-3.82-1.56-5.83-2a12.82,12.82,0,0,0-8.72,1.41c-2.67,1.38-3.29,1.61-3.29,1.61l-13.26-4.49-4.15,23.19Z"/><path class="cls-13" d="M187.08,336.45l7,2.28a2.19,2.19,0,0,1,1.46,2.54l-5.4,24.87a2.18,2.18,0,0,1-2.38,1.71l-7.09-.79a2.18,2.18,0,0,1-1.89-2.62l5.51-26.36A2.18,2.18,0,0,1,187.08,336.45Z"/><path class="cls-5" d="M190,367.11a25.07,25.07,0,0,0,1.29-3.73c.7-2.33,1.6-5.58,2.4-9.21s1.33-7,1.62-9.39c.14-1.21.23-2.19.28-2.87a3.62,3.62,0,0,0,0-1.06,33.28,33.28,0,0,0-.7,3.87c-.4,2.4-1,5.7-1.78,9.32s-1.63,6.87-2.23,9.23A26.48,26.48,0,0,0,190,367.11Z"/><path class="cls-5" d="M194.33,344.44c.11-.1-2-1.87-5.28-2.37a9.37,9.37,0,0,0-5.74.62c0,.19,2.55-.54,5.65,0S194.23,344.6,194.33,344.44Z"/><path class="cls-5" d="M193.5,353.82a24.93,24.93,0,0,0-5.86-1.85,25.55,25.55,0,0,0-6.08-.93c0,.17,2.65.75,5.94,1.52A44.47,44.47,0,0,0,193.5,353.82Z"/><path class="cls-5" d="M190.32,363.55c0-.19-2.71.13-5.7-1.14s-4.69-3.37-4.82-3.24.28.64,1,1.42a10.93,10.93,0,0,0,3.55,2.37,10.78,10.78,0,0,0,4.19.85A3.73,3.73,0,0,0,190.32,363.55Z"/><polygon class="cls-13" points="153 316.83 153.53 327.31 174.44 337.35 177.93 319.85 153 316.83"/><path class="cls-13" d="M181.39,313.69,179.82,321a2.22,2.22,0,0,1-2.42,1.74l-25.76-2.82a2.24,2.24,0,0,1-2-2.24l0-7.26a2.24,2.24,0,0,1,2.46-2.2L179.44,311A2.22,2.22,0,0,1,181.39,313.69Z"/><path class="cls-5" d="M150.64,319.86a23.76,23.76,0,0,0,3.91.91c2.44.47,5.82,1,9.59,1.46s7.19.61,9.67.64c1.25,0,2.25,0,2.94,0a4.07,4.07,0,0,0,1.08-.1,32.27,32.27,0,0,0-4-.31c-2.47-.14-5.88-.39-9.63-.81s-7.13-.92-9.58-1.28A28.4,28.4,0,0,0,150.64,319.86Z"/><path class="cls-5" d="M174.07,321.89a9.62,9.62,0,0,0,1.83-5.6c.2-3.35-1.11-5.85-1.23-5.75s.82,2.53.62,5.72S173.89,321.81,174.07,321.89Z"/><path class="cls-5" d="M164.47,322a24.91,24.91,0,0,0,1.25-6.13,25.65,25.65,0,0,0,.3-6.26c-.17,0-.47,2.77-.9,6.18S164.3,322,164.47,322Z"/><path class="cls-5" d="M154.28,319.85c.19,0-.42-2.73.55-5.89s2.92-5.11,2.77-5.23-.61.35-1.33,1.21a11.28,11.28,0,0,0-2.44,8.17A3.83,3.83,0,0,0,154.28,319.85Z"/><path class="cls-11" d="M106.43,239.89s10.69,1.5,11.37,2.16,14.44,16.81,14.44,16.81l-6.56,13.59-12.12-6.25a19.25,19.25,0,0,0-3.84-1.16s-12.14-1.65-13-3.09-.38-1.78.51-2,8.15.43,9.77.7a24.79,24.79,0,0,0,4.82-.1s-5.05-1.07-6.2-1.44-12.45-2.66-12.31-4.68,1.52-2.78,8.61-1A50.27,50.27,0,0,0,113.88,255l-15.69-5.11s-6.31-1.89-4.33-3.72,15.5,1.58,15.5,1.58l6,2.11-1.76-3.55s-8.5-2.32-9.6-3.15c-1.36-1-1.57-2-.58-2.86S106.43,239.89,106.43,239.89Z"/><path class="cls-5" d="M70,222.88a6.17,6.17,0,0,1-.14,1.2c-.15.87-.32,1.95-.54,3.23-.45,2.73-1,6.51-1.6,10.69s-.93,8-1.18,10.75c-.13,1.29-.23,2.38-.31,3.26A4.82,4.82,0,0,1,66,253.2a5.9,5.9,0,0,1,0-1.2c0-.78.06-1.9.14-3.28.16-2.77.49-6.59,1-10.79s1.2-8,1.75-10.69c.28-1.35.51-2.45.7-3.2A4.57,4.57,0,0,1,70,222.88Z"/><path class="cls-5" d="M140.61,223.92c0-.27-2.67-16.7-3.9-22.51l-19.56,3c-.27,2.42-.36,10.89-.3,13.75a12.63,12.63,0,0,0,2.69,8,7.68,7.68,0,0,0,7.66,2.64,10.44,10.44,0,0,0,6.41,4.3c2.6.4,5.57-1,6.4-3.46A13.89,13.89,0,0,0,140.61,223.92Z"/><path class="cls-5" d="M112.11,226.17,109,256.06a1.88,1.88,0,0,1-2,1.67l-18.51-1.48a1.86,1.86,0,0,1-1.72-2L89,222.84a1.88,1.88,0,0,1,2.16-1.72l19.42,3A1.86,1.86,0,0,1,112.11,226.17Z"/><path class="cls-11" d="M96.48,236.13s-10.78-.27-11.57.27-17,14.21-17,14.21l4.24,14.48,13-4.18a19.6,19.6,0,0,1,4-.51s12.24.36,13.28-.92.67-1.7-.17-2.09-8.11-.91-9.75-.92a23.91,23.91,0,0,1-4.74-.89s5.16-.22,6.35-.4,12.72-.58,12.91-2.59-1-3-8.32-2.43a50.24,50.24,0,0,1-12-.31L103,247.38s6.55-.83,4.89-3-15.55-1-15.55-1l-6.25,1.1,2.31-3.21s8.77-.9,10-1.53c1.51-.78,1.87-1.7,1-2.74S96.48,236.13,96.48,236.13Z"/><path class="cls-11" d="M45.2,247.46l18.08,6.75L63,256.72l5.44-6.48,5,13S65,279.81,63.18,284.05C57.94,296.28,48.68,302.69,42,300c-8-3.26-12.59-11.69-8.94-21.05C35.28,273.35,45.2,247.46,45.2,247.46Z"/><path class="cls-12" d="M67.92,250.61s.14-.15.44-.41l1.33-1.15,5.12-4.37,8.13-6.85,1.22-1c.2-.17.41-.34.64-.51a2.28,2.28,0,0,1,.85-.22c1.11-.12,2.25-.14,3.42-.17,2.35,0,4.82,0,7.42,0h0a5.71,5.71,0,0,1,2,.28,2.53,2.53,0,0,1,.91.52,2.09,2.09,0,0,1,.58.9,1.39,1.39,0,0,1-.09,1.11,2.58,2.58,0,0,1-.75.79,3.82,3.82,0,0,1-1,.51,9.13,9.13,0,0,1-1,.26c-2.78.53-5.69.85-8.71,1.19l.14-.08-2.31,3.22-.19-.31,6.25-1.11h0c2.63-.2,5.33-.33,8.08-.32a39.26,39.26,0,0,1,4.18.21,12.86,12.86,0,0,1,2.11.4,3.59,3.59,0,0,1,1,.45,1.48,1.48,0,0,1,.65,1,1.31,1.31,0,0,1-.58,1.09,4.31,4.31,0,0,1-1,.55,12.2,12.2,0,0,1-2.11.64c-1.44.31-2.89.47-4.34.71l-8.84,1.34-4.8.72v-.43a52,52,0,0,0,11.13.38,45.36,45.36,0,0,1,5.46-.19,7.61,7.61,0,0,1,2.69.49,2.12,2.12,0,0,1,1.07,1,2.51,2.51,0,0,1,.15,1.43,1.14,1.14,0,0,1-.47.63,2.73,2.73,0,0,1-.6.33,7.6,7.6,0,0,1-1.27.43,24.77,24.77,0,0,1-2.54.5c-1.69.25-3.37.4-5,.53l-2.45.18c-.8.06-1.61.19-2.41.22-1.59.11-3.16.18-4.69.25l0-.37a20.13,20.13,0,0,0,5.18.9c1.74.08,3.43.2,5.08.35.82.07,1.64.15,2.44.25.4.05.8.11,1.19.18a4.05,4.05,0,0,1,.62.16,3.73,3.73,0,0,1,.54.31.88.88,0,0,1,.35.6,1.35,1.35,0,0,1-.14.65,3.68,3.68,0,0,1-.32.51l-.18.24a.75.75,0,0,1-.26.21,6.85,6.85,0,0,1-2.23.54,74.47,74.47,0,0,1-8.27.28l-1.88,0a13.17,13.17,0,0,0-1.78,0,12.85,12.85,0,0,0-3.26.53l-9.38,3-2.48.77-.63.19-.22.06s.07,0,.21-.09l.62-.22,2.46-.82,9.35-3.06a21.74,21.74,0,0,1,7-.59A76.42,76.42,0,0,0,100,260a7,7,0,0,0,2.11-.5.58.58,0,0,0,.17-.14l.17-.23a3.14,3.14,0,0,0,.28-.46.61.61,0,0,0-.12-.85,2.63,2.63,0,0,0-.47-.27c-.16-.05-.35-.09-.54-.13-.38-.07-.78-.12-1.17-.17-.8-.1-1.61-.17-2.43-.24-1.64-.14-3.34-.27-5.06-.33a20.59,20.59,0,0,1-5.27-.91.18.18,0,0,1-.14-.22.2.2,0,0,1,.18-.15h0c1.53-.07,3.1-.15,4.69-.26.79,0,1.57-.16,2.4-.22l2.45-.18c1.64-.14,3.3-.3,5-.55a24,24,0,0,0,2.5-.49,9.38,9.38,0,0,0,1.2-.4c.35-.17.78-.4.83-.68a2.08,2.08,0,0,0-.12-1.16,1.64,1.64,0,0,0-.86-.75,7.38,7.38,0,0,0-2.54-.46,49.34,49.34,0,0,0-5.41.19,52.5,52.5,0,0,1-11.24-.37.22.22,0,0,1-.18-.25.22.22,0,0,1,.18-.18h0l4.8-.72,8.84-1.34c1.45-.24,2.91-.39,4.31-.7a11.35,11.35,0,0,0,2-.61,4.27,4.27,0,0,0,.89-.5.88.88,0,0,0,.41-.72c-.06-.58-.72-.93-1.37-1.11a12.65,12.65,0,0,0-2-.38,38.21,38.21,0,0,0-4.13-.21c-2.74,0-5.43.11-8,.3h0l-6.26,1.1a.19.19,0,0,1-.22-.16.19.19,0,0,1,0-.15l2.32-3.21a.18.18,0,0,1,.13-.08c3-.33,5.94-.65,8.68-1.16.34-.07.68-.15,1-.24a3.8,3.8,0,0,0,.86-.47,1.33,1.33,0,0,0,.72-1.51,1.91,1.91,0,0,0-1.27-1.2,5.21,5.21,0,0,0-1.83-.27h0c-2.59-.06-5.07-.09-7.41-.07-1.16,0-2.3,0-3.39.15a2.18,2.18,0,0,0-.73.17l-.62.5c-.42.33-.82.67-1.22,1l-8.18,6.79-5.18,4.31-1.36,1.11C68.09,250.49,67.92,250.61,67.92,250.61Z"/><path class="cls-12" d="M67.92,250.61c.11.09-5,6.52-11.36,14.37S44.9,279.12,44.79,279s5-6.53,11.36-14.38S67.81,250.51,67.92,250.61Z"/></g></svg>