<svg id="Layer_1" data-name="Layer 1" xmlns="http://www.w3.org/2000/svg" viewBox="0 0 1807.48 1918"><defs><style>.cls-1{fill:#42b257;}</style></defs><path class="cls-1" d="M446.37,1336.44a276.3,276.3,0,0,0-15.24,34,3.81,3.81,0,0,1-4.3,2.93c-5.48-.17-11-.16-16.49-.19-15.52,0-31-.12-46.57-.12-5.35,0-10.87.14-15.58,2.88-15.24,8.92-16.06,21.76-9.65,35.84a9.74,9.74,0,0,0,2.54,2.88,28.77,28.77,0,0,0,20.32,7.77c11,0,22,0,33,.1,4.05,0,8.09.17,12.12.39,2.79.17,3,.51,2.46,3.39-.31,1.59-.78,3.15-1,4.74a160.88,160.88,0,0,0-2.83,32.78c.34,11.1,5.91,19.2,15.24,24.85a48.42,48.42,0,0,0,25.83,6.93c23.45-.16,46.9,0,70.35,0,4,0,5-.85,6.47,5.07a159.09,159.09,0,0,0,12.86,32.87,163.8,163.8,0,0,0,29.83,41.61,186.69,186.69,0,0,0,28.79,24.53A169.41,169.41,0,0,0,623,1615.14a158,158,0,0,0,37.5,10.82,177.87,177.87,0,0,0,34.81,2c10.65-.56,21.37-1.2,31.54-4.74a8.77,8.77,0,0,1,8.6,1.08c3.88,2.64,7.67,5.42,11.75,7.72a463.91,463.91,0,0,0,50.8,25.06,558.42,558.42,0,0,0,57.46,20.52,518.75,518.75,0,0,0,78.72,16.15c19.2,2.57,38.52,4.42,57.87,5.42,19.71,1,39.45,1.15,59.16.23,16.93-.79,33.86-2.53,50.79-4.09a553.18,553.18,0,0,0,81.66-13.55,492.52,492.52,0,0,0,68.31-21.62c17.07-6.94,34.28-13.54,50.55-22.18,14.55-7.77,29.35-15,43.36-23.7,14.82-9.26,29.5-18.62,42.48-30.47,1.42-1.29,2.29-.61,3.19.47,7,8.47,16.35,14,25.39,20a136.76,136.76,0,0,0,54.74,21.13c17.49,2.74,35,3.69,52.62,1.05,18.82-2.8,37.11-7.06,54.18-15.53a159.15,159.15,0,0,0,34.67-22.11,182.56,182.56,0,0,0,32-35.55,141.58,141.58,0,0,0,11.06-18.78,207.19,207.19,0,0,0,12.51-35.55c.74-2.92,2-3.39,4.62-3.39,7.92.14,15.86.2,23.7,0,10.28-.22,20.32-1.69,29.21-7.38,10.29-6.67,16.61-15.49,16.23-28.39-.33-12.31-2.6-24.42-4.48-36.47a241.77,241.77,0,0,0-8-37.35c-2.52-7.84-4.35-15.93-7.17-23.7a263.19,263.19,0,0,0-20.46-42.82,224.41,224.41,0,0,0-38.06-48.79c-7.6-7.25-14.73-15-23.36-21.12-2.69-1.89-2.91-2.86-1.41-5.18,4.49-7,7.71-14.52,11.31-22a457.2,457.2,0,0,0,25.4-63.4,503.77,503.77,0,0,0,14.83-59.26c2.44-13.17,4.72-26.38,6.18-39.72,1.81-16.93,3.73-33.86,4.15-50.79.71-28.6,1.2-57.19-1.53-85.77-1.69-18.47-2.69-37-5.33-55.43-1.69-12.14-3.6-24.26-5.87-36.33-2.47-13.19-5.78-26.19-8.94-39.21-2.71-11.14-5.37-22.32-9.13-33.17-4.43-12.8-9.21-25.5-13.73-38.26-3.84-10.84-8.73-21.2-13.05-31.83-1.7-4.34-3.39-8.77-5.37-13-7.13-14.68-14.32-29.31-22.13-43.65-7.51-13.79-16.13-26.88-24.65-40-6.92-10.71-14.71-20.86-22.18-31.22a425.18,425.18,0,0,0-28.63-34.77,655.6,655.6,0,0,0-63.05-61.68c-13.9-11.85-28.3-23.08-43.12-33.86-8.9-6.43-18.1-12.46-27.31-18.44-8.68-5.64-17.37-11.26-26.39-16.32q-32-18.31-65.66-33.37c-10.82-4.71-21.62-9.48-32.62-13.71-16.12-6.2-32.29-12.36-48.9-17.19-14.88-4.33-29.63-9.22-44.7-12.78a586.46,586.46,0,0,0-68.61-12.16c-18.15-2.06-36.34-3.55-54.54-4.75-22.3-1.49-44.63-.77-66.94-.53-6.43,0-12.9.51-19.27,1-8.8.66-17.62,1.69-26.41,2.55-12.85,1.36-25.77,2.39-38.5,4.39a612.21,612.21,0,0,0-63,13.05c-14.68,3.95-29.12,8.6-43.65,13-12.39,3.78-24.28,8.91-36.42,13.29-14.17,5.08-27.63,11.85-41.31,18-11.32,5.08-22.14,11.28-33,17.43-15.07,8.55-29.64,17.81-44.17,27.19a195.43,195.43,0,0,0-24.18,17.77c-4.23,3.76-8.46,4.51-13.39,5.08h-1.93c-13,.12-25.88.34-38.82.36q-108.66.23-217.35.37-37.1,0-74.23.36a54.15,54.15,0,0,0-30.3,8.85c-15.53,10.38-23.06,25.8-23.37,44-.56,32.32-.08,64.68,0,97v481.77c0,4.44,0,4.59-4.08,4.47-16.49-.52-33,0-49.47,0-7.92,0-15.85-.3-23.7-.25a23.14,23.14,0,0,0-12.94,3.39c-12.08,7.89-17.45,27.37.34,40.9a18.29,18.29,0,0,0,11.7,4c3.56-.07,7.11-.11,10.67-.12l63.06-.29c4.19,0,4.2-.14,4.2,4.22v42.69c0,6.88,0,6.78-6.92,6.78q-74-.17-148-.36a38.45,38.45,0,0,0-17.78,3.74,21.52,21.52,0,0,0-11.45,20.91,24.35,24.35,0,0,0,25.59,23h.2c6.14-.19,12.27-.1,18.42-.1q124,0,247.91.13c44.48.12,89-.73,133.43,0a98.09,98.09,0,0,0,11.63-.3,1.81,1.81,0,0,1-.71,2.06c-10.49,8.8-18.45,19.84-26.8,30.48-5.08,6.38-9.12,13.34-13.54,20.09-1,1.56-1.82,2.71-4.1,2.63-17.29-.71-34.59-.53-51.89-.63a28.69,28.69,0,0,0-10.4,2c-10,3.76-15.13,11.53-16.07,21.69a24,24,0,0,0,12.18,24.16,33,33,0,0,0,17.22,4.16q27.09-.11,54.33,0a28,28,0,0,1,8.65.69C449.54,1330.77,447.85,1333.52,446.37,1336.44ZM713.08,430.31c17.91-10,35.55-20.54,54.18-29.07,9-4.08,18.2-7.55,27.31-11.26,13-5.32,26.51-9.28,39.77-13.89,12.64-4.38,25.78-7.11,38.78-10.27,14.75-3.61,29.56-6.88,44.6-9C937.37,353.93,957,351.27,977,350c22.13-1.49,44.26-1.69,66.39-1.37a385.07,385.07,0,0,1,47.4,2.83c14.24,1.93,28.65,2.44,42.79,5.28,15.68,3.17,31.44,5.95,47.07,9.26,8.21,1.7,16.28,4.19,24.36,6.51s16.15,4.58,24.11,7.24q20.69,6.92,41.05,14.71c23,8.84,44.9,19.81,66.79,31a558.87,558.87,0,0,1,77.5,48.7,611.59,611.59,0,0,1,93.11,84.77,552.79,552.79,0,0,1,56.67,76.18q10.13,16,18.62,32.88c7.54,15.36,15.65,30.48,21.42,46.68,2.44,6.77,5.23,13.55,8,20.32,4.3,10.16,7.34,20.87,11.37,31.17,2.68,6.9,4.56,14.12,6.64,21.23,2,6.65,4.15,13.29,5.45,20.08,2.08,10.77,5,21.33,7.16,32.06,1.9,9.33,3.74,18.63,5.37,28a351,351,0,0,1,4.42,35.1c.93,12.88,2.42,25.72,3.25,38.62,1.18,18.42,1,36.82.59,55.24-.46,17.8-2.2,35.47-4,53.15a429,429,0,0,1-11.85,67.21,480.12,480.12,0,0,1-22.79,66.93,305.76,305.76,0,0,1-15.88,31.59c-3.38,5.83-3.38,5.47-9.17,2.08a126.35,126.35,0,0,0-25.23-11.1c-7.67-2.53-15.51-4.39-23.25-6.64a7.06,7.06,0,0,1-5.36-4.93c-1.42-4.3-2.93-8.46-4.3-12.86q-6.78-21.24-13.55-42.5c-5.08-16.47-10-33-16.39-49.1-.81-2.08-.52-3.38,1.7-4.16a71,71,0,0,0,23.17-15.61c11.86-11.45,20.54-24.82,24.47-41.06a67.19,67.19,0,0,0,2-16.29q-.15-16.49,0-33a34.29,34.29,0,0,0-4.81-17,163.34,163.34,0,0,0-20.48-27.59c-11.53-13.12-22.25-26.92-33.51-40.26q-17.52-20.77-35.1-41.45c-6-7.06-16.55-12.14-27-7.89a24.87,24.87,0,0,0-6.28,3.57,112.34,112.34,0,0,0-14,14.11c-15.69,17.84-31.28,35.77-47.66,53-1.89,2-3.89,3.87-5.75,5.89a6.48,6.48,0,0,1-7,2c-10.16-2.83-20.2-5.71-30.32-8.47-15.9-4.3-31.49-9.61-47.41-13.86-12.76-3.39-25.39-7.28-38.11-11-12.09-3.49-24.22-6.78-36.18-10.74-11.34-3.71-22.7-7.36-34.37-10-3.74-.84-7.28-2.52-11-3.69a3.38,3.38,0,0,1-2.66-3.55v-3.39c0-15.24-.22-30.47,0-45.59.17-10.72-4.87-18-13.54-23.4-.27-.17-.58-.31-.85-.49-1.69-1.22-5-1.41-4.77-4.1.17-2.44,3.13-3,5.08-4a100.15,100.15,0,0,0,26.59-19.49c7.67-7.91,14.78-16.24,19.68-26.26,3.48-7.11,3.57-7.16,11.71-7,11.48.19,22.94.53,34.42.82a26.5,26.5,0,0,0,14.33-3.87A22.55,22.55,0,0,0,1259,705.19c-.24-9.31-5.37-15.71-13.21-20.06a27.26,27.26,0,0,0-11.55-3.39,282.07,282.07,0,0,0-29.08,0c-4,.12-4.13,0-4.15-3.91q-.1-19.4,0-38.8c0-3.71.12-3.76,3.83-3.73,15.23.09,30.47,0,45.61.34,8.73.17,15.23-3.61,20.21-10.4,7.91-10.73,3.73-27.39-8.29-33.2a31.49,31.49,0,0,0-14.43-3.5c-14.24.2-28.48.15-42.7.19-4.75,0-5,0-5.52-4.56a119,119,0,0,0-7.67-28.95,113.23,113.23,0,0,0-27.39-40.13,129.9,129.9,0,0,0-48.88-29.76c-24.06-8.26-48.72-10.5-73.6-5.08-35.08,7.79-63.84,25.74-85,55.23A140.66,140.66,0,0,0,936.92,575a84.63,84.63,0,0,0-4.32,26.21q.14,26.93.32,53.86a41.69,41.69,0,0,0,1.15,9.1c2,8.71,7.72,13.55,15.8,16.1a18.42,18.42,0,0,0,2.34.66c2.23.53,3,1.88,3.06,4.2.3,8.08.19,16.17,1,24.23a48.67,48.67,0,0,0,3.23,13.12,113.48,113.48,0,0,0,42,52.66,29.85,29.85,0,0,1,3.39,2.74c1.4,1.29,2.71,2.67,4.45,4.42-6.87,2.76-12.22,7.13-17.89,11a105.26,105.26,0,0,0-36,41.28,97.37,97.37,0,0,0-8.36,28.24q-3.48,23-7.81,45.86c-2.91,15.41-5.21,30.92-7.89,46.36-1.21,7-2.77,14-4,20.94-2.66,15.44-5,30.95-7.86,46.34q-3.53,18.62-5.88,37.25a4.67,4.67,0,0,1-2.26,3.92,72.53,72.53,0,0,0-32.17,81,59.8,59.8,0,0,0,11.68,22.13c1,1.32,3.25,2.5,2.44,4.37s-3.17,1.15-4.86,1.21c-16,.68-32,.36-48,.44l-80.53.33c-3.59,0-3.68,0-3.73-3.88-.13-15.85-.32-31.69-.32-47.54V651.88c0-54.35.24-108.68.35-163a62.08,62.08,0,0,0-7.6-31.1,48.4,48.4,0,0,0-24.82-21.4A35,35,0,0,0,711.28,433,3.06,3.06,0,0,1,713.08,430.31Zm-3.78,688.37v49.48c-.12,4.7-.17,4.75-5.08,4.75H288.48c-2.58,0-5.18,0-7.76-.22-3.62-.25-4.14-.67-4.3-4.36-.27-6.47-.4-12.94-.44-19.41,0-6.14.19-12.29.16-18.43,0-2.56.25-4.85,2.69-6.3a2.82,2.82,0,0,0,1-1c2-3.71,5.3-4,9.08-4H394.67c46.42-.12,92.83-.18,139.23.15q11.42.11,22.77.85c13,.86,23.71-8.72,27.67-18.33,5.08-12.35-4.33-29.8-18.62-30.6-3.24-.18-6.47-.37-9.69-.35-86.51.56-173-.29-259.54,1.05-4.37,0-8.74.27-13.11.37-7,.15-7.9-.75-7.9-7.64V583.38c0-26.52.22-53,0-79.58a27.37,27.37,0,0,1,9.43-21.38,17.48,17.48,0,0,1,12.68-5.08h342.5c20.71,0,41.4.15,62.1.24,5.59,0,6.33.67,6.45,6.48.26,12,.58,23.94.6,35.89q.09,130.53,0,261V825.6h.11Zm207.76,101.59a68,68,0,0,0,7.28-.27,6.25,6.25,0,0,1,6.92,4.09c1.42,3.09,2.91,6.17,4,9.35,4.71,13.43,10,26.61,15.1,39.87,7.2,18.52,14.67,36.94,21.52,55.58A130.4,130.4,0,0,0,999.85,1375c14.17,14.78,30.59,26.11,50.79,31.57a116.89,116.89,0,0,0,30.63,4l181,.16c4.37,0,8.72-.34,13.08-.46,8.61-.2,16.44-3,24.08-6.77a20,20,0,0,0,10.16-10.6c1.54-3.73,3-7.52,4.15-11.38,6.77-21.92,13.42-43.85,20.74-65.57,2.35-7,4.31-14.21,6.63-21.27,2.91-8.88,6.1-17.71,8.77-26.68,2.12-7.11,4.2-14.24,6.4-21.33,7.84-25.29,15.54-50.64,23.42-75.92,2.64-8.46,5.31-16.93,6.31-25.83,2.47-21.93-.52-42.79-11.85-62.16a99.37,99.37,0,0,0-21.25-26.25c-12.14-10.32-25.68-17.78-41.58-20.52a84.83,84.83,0,0,0-14.51-.82q-86.6,0-173.2.21c-6.57,0-6.77,0-5.36-6.37,3.38-15.12,6.56-30.32,10.8-45.25.59-2.1,1.45-3,3.6-2.93,2.59.1,5.18,0,7.77,0h203.76c7.2,0,13.55.4,17.09,7.7,13,13.78,23.94,29.24,36.48,43.39,13,14.63,25.4,29.75,37.62,45,5.67,7.13,12.5,12.7,22.11,13.54,1.7.15,2.22,1.15,2.8,2.69,5.21,13.94,9,28.31,13.66,42.33,2.78,8.47,5,17,7.63,25.51,5.85,18.49,11.86,36.91,17.75,55.38,1.27,4,2.47,8,3.38,12.13a18.44,18.44,0,0,0,17.19,15c16.07,1.51,31.27,6.57,46,12.85a215.21,215.21,0,0,1,45.8,27.09,191.06,191.06,0,0,1,47,51.81,223.7,223.7,0,0,1,25,58.09c4.53,16.13,6.52,32.6,8.28,49.09.17,1.7.22,3.24.23,4.86,0,3.39,0,3.66-3.38,3.8-5.66.22-11.31,0-16.93-.22-2.61-.14-3.14-1.27-3.29-3.58a169.58,169.58,0,0,0-3.1-24.49,158.78,158.78,0,0,0-15-39.77,146.25,146.25,0,0,0-48.86-54.18,182.88,182.88,0,0,0-38-19.22,185,185,0,0,0-53.31-11.65c-14.31-.93-28.38,1.51-42.33,4.66-22.65,5.08-43.63,14.09-62.15,28.32a176.91,176.91,0,0,0-49.52,59.58,173.74,173.74,0,0,0-13.55,35.73c-1.84,6.87-2.15,14-2.71,21.13-.28,3.64-.15,3.69-3.82,3.82-2.75.09-5.5,0-8.25,0H925.81c-20.06,0-40.11.12-60.15.17h-7.28c-1.87,0-2.93-.49-3-2.73a112.74,112.74,0,0,0-1.58-14.42,151.75,151.75,0,0,0-7.5-29,156.55,156.55,0,0,0-16.57-31.73,165.43,165.43,0,0,0-46.11-45.86,211.39,211.39,0,0,0-23.27-13.93,176.52,176.52,0,0,0-16.94-7.22c-12.51-4.64-25.61-6.62-38.63-8.95a71.36,71.36,0,0,0-10.63-.7,188.1,188.1,0,0,0-65.78,10.16,150.27,150.27,0,0,0-55.73,33.35,190.41,190.41,0,0,0-32.83,40.64A140,140,0,0,0,520,1444.82c-.51,7.7.29,6.77-7.08,6.77h-58.7c-1.13,0-1.91-.71-1.79-2.2a233.78,233.78,0,0,1,5.35-37.88,400.78,400.78,0,0,1,15.15-45.94,3.89,3.89,0,0,1,3.54-2.65,55.13,55.13,0,0,0,12.09-3.38c10.41-4.42,17.22-12,21.47-22.42,5.33-13.17.29-33.44-12.36-41.63-3.1-2-5.62-4.83-9.38-5.88-2.08-.57-2.47-2.13-1.8-4.23,1.29-3.94,4.08-6.92,6.35-10.26a155.61,155.61,0,0,1,21.49-24.23A126.46,126.46,0,0,1,537,1234.35a30,30,0,0,0,3-1.69c7.92-5.54,16.93-8.74,25.92-11.85a29,29,0,0,1,9.58-1.07c24.57.14,49.1.39,73.74.46h99v-.09Zm363.61,275.58c16.65,0,33.31-.24,50-.36H1336c2.49,0,3.49,1,4.2,3.56a170.7,170.7,0,0,0,13.95,37c4.81,8.87,4.54,8.89-3.22,14.87-9.11,7-18.15,14-27.56,20.62a279.44,279.44,0,0,1-32.83,19.67c-6.77,3.39-13.54,7-20.32,10.16a476.07,476.07,0,0,1-67.43,25.55c-13.54,4-27.22,8.11-41.11,11.21-12,2.65-24.07,4.81-36.16,7-10.35,1.86-20.74,3.39-31.14,4.72a526.56,526.56,0,0,1-81.26,3.54c-8.08-.22-16.14-.12-24.21-.83-16.54-1.47-33.09-3-49.51-5.33-13.39-1.88-26.7-4.59-39.9-7.79-10.52-2.56-21.08-4.93-31.51-7.8a379.41,379.41,0,0,1-48.56-17.83c-9.07-3.9-17.86-8.35-26.61-12.87a82.72,82.72,0,0,1-7.45-4.5c-2.08-1.36-2.1-2.24,0-3.39,2.66-1.52,5.42-2.86,8-4.62,14.12-9.8,25.39-22.37,35.41-36.18,7.4-10.24,14.07-20.93,18.31-32.93,1.11-3.18,2-6.47,3-9.7q1.63-5.34,3.39-10.62c.88-2.81,2.3-3.38,4.86-3.38h238.18v.3q92.07-.12,184.23-.14ZM962.38,1154.51a62.7,62.7,0,0,1-20.1-2.54c-6.65-2.27-11.2-6.77-15.06-12.33-5.08-7.24-5.35-15.23-4.47-23.7,1-9.55,13.71-22,24-22h62.08q34.47-.11,68.89-.13a54.07,54.07,0,0,0,13-1.37,28.42,28.42,0,0,0,16.3-10.64,4.82,4.82,0,0,1,4.5-2.06c4.69,0,9.38.12,14.07.12h163.49a50.37,50.37,0,0,1,23.43,5.24c18.93,9.76,29.57,25.06,29.9,46.75,0,5.33-.29,10.67-.73,16a33.55,33.55,0,0,1-2.71,10.74,365.71,365.71,0,0,0-12.87,36.55c-4.15,13.26-8.46,26.44-12.85,39.63-4.55,13.82-9.36,27.55-13.85,41.36-8.78,27.09-17.42,54.18-26.12,81.27-1.69,5.22-2.56,5.93-7.87,6q-30.33.2-60.65.34h-2.42c-1.9,0-2.37-.73-1.88-2.75,2-8.34,4.72-16.44,7.3-24.6,3.13-10,6-20.09,9.28-30.07,2.86-8.71,5.3-17.59,8.6-26.19,2.94-7.67,4.8-15.74,7.29-23.6,5.27-16.62,10.62-33.2,15.92-49.82,1-3.2,2.67-6.15,3.11-9.62a29.51,29.51,0,0,0-6.23-22.69c-10.41-13.54-24.46-19.52-41.27-19.59q-34.2-.15-68.4-.2h-53.37c-40-1.08-80.13.07-120.22-.1ZM807.86,1491.22a98.1,98.1,0,0,1-11.69,27.52c-15.44,26.1-38.06,43.71-65.67,55-12.93,5.3-26.83,7.08-40.84,7.3a84.93,84.93,0,0,1-20.75-1.42c-13.55-3.13-27-6.38-39.23-13.39-19.49-11.11-35.67-25.52-47.15-45-8.3-14-14.63-28.78-16.58-45.15a100.93,100.93,0,0,1,1.49-35.17,151.84,151.84,0,0,1,6.32-22.33,126.74,126.74,0,0,1,11.39-20.79,115,115,0,0,1,40.5-37.72,102.17,102.17,0,0,1,32.57-12.06,144.46,144.46,0,0,1,63,1.54,121.37,121.37,0,0,1,46.69,23.71,124.14,124.14,0,0,1,24,25.85c12.68,18.35,18.63,38.94,19,61.66a99.25,99.25,0,0,1-3,30.32Zm789.23,46.07a123.34,123.34,0,0,1-56.77,37.45c-15.93,5.2-32.34,7.86-49.2,6-2.89-.33-5.76-.92-8.62-1.38a114.64,114.64,0,0,1-54.17-23.16,122.46,122.46,0,0,1-28.55-32.72,112.19,112.19,0,0,1-16.57-46.16,100.18,100.18,0,0,1,1.69-33.74,136.19,136.19,0,0,1,17.67-43.82,121.65,121.65,0,0,1,29.06-30.93,110.13,110.13,0,0,1,52.23-21.65,132.4,132.4,0,0,1,52.91,2.74c27.47,7.13,49.52,22.54,66.4,45.17A111.47,111.47,0,0,1,1622.6,1437a120.16,120.16,0,0,1,2.83,22.67C1625.87,1491.48,1615.31,1515.91,1597.09,1537.29Zm-402.68-309.08c-2.64,8.63-5.55,17.2-8.28,25.82-4.63,14.63-9.44,29.19-13.73,43.91-2.28,7.93-4.86,15.75-7.29,23.61-3.9,12.49-8.06,24.88-11.85,37.4-1,3.2-2.68,4.21-6,4.19-22.14-.11-44.29-.2-66.43,0-12.06.12-22.54-4.43-32.17-10.73a111.55,111.55,0,0,1-28.26-26.29,70.33,70.33,0,0,1-9.94-18.25c-7.19-19.73-15.1-39.16-21.82-59.07-4.81-14.23-10.31-28.19-15.54-42.33-1-2.74-.88-3,2-2.93,45.08,1.49,90.19.39,135.29.66,29.1.17,58.21,0,87.31,0h3.61c-2.54,8.53-4.66,16.3-7,24Zm-35.55-548.77a71.77,71.77,0,0,1-14.66,44.24,82.39,82.39,0,0,1-40.08,30c-16.47,5.74-33.18,7.13-50,2.66-21.68-5.75-37.87-18.79-48.66-38.55a40.52,40.52,0,0,1-5.5-20.32c.1-6.14-.17-12.29-.22-18.42,0-4.08,0-4.08,4-4,8.57,0,17.14.11,25.7.27a38,38,0,0,0,23.81-8.24A31.53,31.53,0,0,0,1066.72,642c.11-2.54-.78-5.79,1-7.49s5.24-.73,7.94-.69q39,.3,78,.81c4.41,0,4.5.14,4.53,4.56v23.7h.56c0,5.55-.08,11,0,16.54Zm-97.72-91a49.11,49.11,0,0,0-17.14,2.48,41.37,41.37,0,0,0-15.88,10.75,19.77,19.77,0,0,0-4.57,10.53c-1,5.43-.69,10.95-1,16.44V632c0,2.2-1,3.09-3.38,3.05q-20.13-.26-40.28-.3c-2.08,0-2.91-.71-2.93-2.76,0-11.16-1-22.39.32-33.44,1.17-9.79,5.08-19,9.62-27.8,8.9-16.93,22.82-28.78,39.12-37.94a90,90,0,0,1,29.28-9.72,99.13,99.13,0,0,1,47.28,3.64c19.59,6.2,34.75,18.47,45.89,35.45a54,54,0,0,1,9.19,23.28c.35,3.12.39,3.17-2.85,3.17h-50.47v-.22c-14.17,0-28.22,0-42.29,0ZM980.48,927.39c1.39-.44,2,.69,2.73,1.47,5.07,5.43,10.15,10.85,15.11,16.37a233.65,233.65,0,0,0,17.26,16.93c13,11.67,28.07,18.19,45.71,18.52,6,.12,12,0,17.93,0,1.57,0,3.22-.45,4.91.6-.85,7-2.8,13.79-4.15,20.72-2.57,13.15-6.43,26-8.7,39.23-1.56,9.11-.75,8-9.23,7.89-31.51-.32-63-.21-94.51,0-2.4,0-4.79.71-7.88,0,6.06-40.82,13.79-81.2,20.73-121.73Zm531.25,82.11a37,37,0,0,1-8.1,21.38c-4,5.08-8.12,10-14.08,13a25.45,25.45,0,0,1-12.7,2.51,11,11,0,0,1-8.89-5.08c-5.59-8.38-12.93-15.24-19.32-23-11.12-13.43-22.67-26.51-34.13-39.65-6.15-7.06-12.49-13.94-18.74-20.91-3.25-3.64-3.22-4.3,0-7.57,12.87-13.17,25.11-26.94,37.5-40.63,2.71-3,5.43-6,8.46-8.74,1.48-1.39,2.54-1.69,3.87.19,10.9,14.84,23.58,28.27,34.89,42.8,6.94,8.92,14.15,17.62,21.35,26.32,3,3.61,5.08,7.84,8.67,11a5.72,5.72,0,0,1,1.42,4.51v12.59h0c-.26,3.73-.1,7.45-.29,11.16ZM1005.62,836.81a42.48,42.48,0,0,1,12.09-7,38.07,38.07,0,0,1,23.7-1.18c13.34,3.16,22.84,11.44,31.22,21.52,1,1.23,1.7,2.72,2.68,4a2.71,2.71,0,0,1-.39,3.81l-.09.07c-.57.57-1.13,1.17-1.69,1.69-15.14,12.68-28.56,27.09-42.78,40.74-4.08,3.91-8.28,7.68-12.35,11.61-1.33,1.31-2.35,1.44-3.62,0-7.25-8-15.54-15-21.09-24.51-3-5.18-3.7-10.57-4.2-17.39-.09-13,5.79-24.43,16.44-33.46Zm174.52,98.38c-18.08-1-36.2-.71-54.31-.73h-69.42c-2.18,0-5.08.85-6.26-1.32-1.29-2.44,1.1-4.5,2.64-6.28,7-8.24,14.92-15.66,22.47-23.41a108.91,108.91,0,0,1,13.25-12.06c1.43-1,2.51-1.94,4.12-.3a6.08,6.08,0,0,0,2.59,1.22c18.82,5.31,37,12.53,55.56,18.62,23.45,7.7,46.46,16.78,70.35,23.13,2,.52,3.5,2.3,5.81,2a.86.86,0,0,1,.66,1.07,1.43,1.43,0,0,1-1,.78c-2.74-.16-5.47-.39-8.2-.6v.12Zm-86.84-121.7a36.72,36.72,0,0,1-7.63-5.9c-1.42-1.56-1-2.76,1.08-2.88a176.54,176.54,0,0,1,20.83.24c1.69.1,2.08,1,2,2.6-.31,5.08-.53,10.26-.78,15.75-5.45-3.47-10.48-6.62-15.48-9.84Z"/><path class="cls-1" d="M247,1275c16.79,0,33.6.23,50.4,0,13.66-.26,22.35,10.6,25.4,19.57,2.45,7.2-.65,20.54-9,26.39a29.82,29.82,0,0,1-17.64,5.73H200.63a29.48,29.48,0,0,1-17-4.51c-12.7-8.58-15.75-22-8.74-35.16a21.62,21.62,0,0,1,18.78-11.85c8.7-.41,17.44-.19,26.15-.21h27.09Z"/><path class="cls-1" d="M281.23,1425.26c-12.92.48-24.41-9.8-26.31-21.91-1.69-10.37.85-19.91,9.5-26.93a25,25,0,0,1,16.73-5.35,28.53,28.53,0,0,1,24,12.34c7.91,11.31,6.5,22-2.05,32.37A27.73,27.73,0,0,1,281.23,1425.26Z"/><path class="cls-1" d="M68.26,1069.79a25.82,25.82,0,0,1,26.36,25.27v.12a23.42,23.42,0,0,1-11.12,21.17,28,28,0,0,1-21.62,4.43c-15.14-3.13-27.26-20.57-16.93-38.55C50.38,1072.68,56.19,1070.06,68.26,1069.79Z"/><path class="cls-1" d="M598.39,664.42a117.69,117.69,0,0,0,13.07-37.36c1.27-7.32.95-14.77,1.09-22.2a81.46,81.46,0,0,0-7.54-34.2,35,35,0,0,0-4.91-7.75,24.71,24.71,0,0,0-26.75-8.71,32.37,32.37,0,0,0-6.11,2.93c-19.08,11.19-38.11,22.49-57.24,33.63-4.34,2.52-8.23,5.69-12.63,8.14a6,6,0,0,1-6.78,0c-3.38-2-6.6-4.06-9.95-6-17.61-10.16-35.44-20-52.91-30.47a83.68,83.68,0,0,0-14.19-7.35A20.65,20.65,0,0,0,390.77,560a37.62,37.62,0,0,0-9.48,14.49,112.26,112.26,0,0,0-5.08,23.7c-1.5,11.36.22,22.55,2.63,33.66a108.85,108.85,0,0,0,12.2,32c1.41,2.39.88,3.27-.84,4.62A141.38,141.38,0,0,0,361,698.66c-5.42,7.83-10.78,15.66-14.24,24.7-4.82,12.66-7.11,25.82-8.95,39.12a69.11,69.11,0,0,1-1.7,8.06c-1,3.9-1.13,4.08-5.3,3.69-9.51-.89-16.93,3-23.36,9.53-9,9.06-9.73,28,.75,37.25,7.21,6.44,15,10.63,25,9.08,2.16-.34,3,.47,3.08,2.5s.35,4.51.57,6.77c.93,9.32,2.9,18.49,4.15,27.74,2,15.23,4.52,30.37,6.33,45.61,2.46,20.69,5.76,41.27,7.6,62,.41,4.52,1.27,9.12,4.39,12.63,5,5.6,10.89,9.29,19,9.09,15.24-.41,30.48-.32,45.6-.42,61.28-.39,122.59,0,183.88.49,12.29.1,20.72-6.89,23-19.17s3.38-24.63,5.08-36.94c2.5-17.25,5.24-34.49,7.87-51.72,2.83-18.63,4.77-37.47,8.36-56,.73-3.76.49-3.94,4.32-3.83a23.34,23.34,0,0,0,20.84-10.29c5.44-7.72,8.18-16.3,3.28-25.39s-10.81-16.58-21.65-18.51c-.47-.08-.93-.27-1.4-.39a4.29,4.29,0,0,1-3.56-4c-.58-3.83-1.29-7.65-2.15-11.43-2.22-9.73-4-19.52-7.67-29A129.24,129.24,0,0,0,620,689.7c-6.77-7.52-13.55-15.34-24.09-18.62A18.24,18.24,0,0,1,598.39,664.42Zm-4.18,164.33c3.54,0,7.11.12,10.65.34s3.49.37,3,3.84c-1.32,10.41-2.74,20.81-4.66,31.14-2.37,12.85-4.5,25.75-6.77,38.63q-2.7,16-5.28,32c-.61,3.83-1.07,7.69-1.44,11.55a3,3,0,0,1-2.85,3.14,3.25,3.25,0,0,1-.54,0c-3.23,0-6.46.1-9.7.11l-167.27.31c-2.91,0-5.82,0-8.72.13-2.17.11-3-.61-3.39-2.94-1.42-9.25-2.55-18.51-3.84-27.77-1.54-11.19-3.39-22.35-5.08-33.5-1.83-11.85-3.86-23.59-5.53-35.4-.77-5.46-1.87-10.82-2.82-16.22-.86-4.8-.66-4.9,4.19-4.93q38.3-.21,76.61-.37h32.49Q543.75,828.73,594.21,828.75ZM381.48,758.91c.61-3.5,1.15-7,1.69-10.53.69-4.45.68-4.4,5.08-4.2,2.9.14,5.81.14,8.72.14H600.08a2.62,2.62,0,0,1,3,2.17l0,.18c2.94,11.24,6,22.47,8.93,33.69a11.94,11.94,0,0,1,.22,1.44c.55,3.68.44,3.88-3.26,3.93-8.57.12-17.12-.63-25.69-.71-32.16-.29-64.33,1.12-96.5.79-16.32-.15-32.64-.54-49-.52-18.91,0-37.81.39-56.72.57a7.36,7.36,0,0,1-4.35-.37C378.36,776.65,380,767.78,381.48,758.91Zm48.18-62.44c17.47-10.06,35-20.08,52.49-30.22,9.05-5.27,9.68-5.27,18.7-.41q29.63,16,59.26,31.73a20,20,0,0,1,4.45,2.91,2.16,2.16,0,0,1,.94,2.09c-.26,1-1.19,1-2,1H432.68c-4.17,0-8.32,1.28-12.52.15a2,2,0,0,1-1.81-1.48A61.47,61.47,0,0,0,429.66,696.47Zm140.83-77.39a36.56,36.56,0,0,1-4,14.83c-2.73,5.08-5.25,10.36-8.11,15.41-1.7,3.06-2.32,3.13-5.4,1.69-9-4.4-17.88-8.89-26.82-13.36a9.08,9.08,0,0,1-3.73-3,2.89,2.89,0,0,1,.17-4.07,3,3,0,0,1,1.12-.64c11.24-5.67,21.6-12.76,32.17-19.62,3.64-2.37,7.23-4.84,10.85-7.25a11.51,11.51,0,0,1,2.1-1.2c2.3-.9,3.39-.1,3.08,2.39a97.58,97.58,0,0,0-1.42,14.78ZM439.18,647.86c-1.41.82-2.78,1.7-4.2,2.42-3.79,2-3.71,2-5.61-1.81a135.32,135.32,0,0,1-11.61-29.08,51.92,51.92,0,0,1-1.15-18.25c6.09,2.84,11.24,6.94,16.78,10.31s11.39,7.26,17.2,10.71a188.6,188.6,0,0,1,16.93,10.72c-9.85,5.18-19.29,9.79-28.34,15Z"/><path class="cls-1" d="M617.57,1095.35c-1.38-13.4,11.72-25.56,22.56-26.42a29.46,29.46,0,0,1,21.77,6.94c5.42,4.38,7.84,10.48,8.46,17.33,1.26,14-11.24,27.58-26.43,28.24a25.55,25.55,0,0,1-26.35-24.75C617.57,1096.25,617.56,1095.8,617.57,1095.35Z"/><path class="cls-1" d="M690.17,1498.22c-9,.59-16.37-2.87-23.16-7.79a51,51,0,0,1-7.13-5.81c-5.89-6.14-8.29-13.85-8.77-22a32,32,0,0,1,2.95-14.42c6.08-13.65,21.69-23.3,37.08-22.62a39.37,39.37,0,0,1,33.86,25c6.06,16.44-2.64,34.05-15.44,42.13A32.55,32.55,0,0,1,690.17,1498.22Z"/><path class="cls-1" d="M1468.81,1461.83c-.56-20.13,15.71-35.55,35.55-35.65a37.24,37.24,0,0,1,36.62,37c-.15,18.91-16.15,35.1-35.23,35.76S1468.52,1482.32,1468.81,1461.83Z"/><path class="cls-1" d="M1114.38,658.24c-.52-5.57,6-14,13.55-13.54a13.54,13.54,0,0,1,0,26.92C1120,671.38,1114.37,665.89,1114.38,658.24Z"/></svg>