<svg xmlns="http://www.w3.org/2000/svg" xmlns:xlink="http://www.w3.org/1999/xlink" viewBox="0 0 1366 768"><defs><style>.cls-1{mask:url(#mask);filter:url(#luminosity-noclip-2);}.cls-13,.cls-15,.cls-2,.cls-24,.cls-29,.cls-32,.cls-38,.cls-39,.cls-41,.cls-9{mix-blend-mode:multiply;}.cls-2{fill:url(#linear-gradient);}.cls-3{isolation:isolate;}.cls-4{fill:#3a2b2c;}.cls-5{fill:#30080b;}.cls-6{fill:#770e12;}.cls-38,.cls-7{fill:#414042;}.cls-39,.cls-8{fill:#808285;}.cls-19,.cls-9{fill:#939598;}.cls-10,.cls-33,.cls-42{fill:#fff;}.cls-10{opacity:0.5;}.cls-11{fill:#ed1c24;}.cls-12{fill:#f15a29;}.cls-13,.cls-16{fill:#d1d3d4;}.cls-14{fill:#be1e2d;}.cls-17,.cls-32{fill:#bcbec0;}.cls-18{fill:#58595b;}.cls-20{fill:#231f20;}.cls-21{fill:url(#linear-gradient-2);}.cls-22{fill:url(#linear-gradient-3);}.cls-23{fill:url(#linear-gradient-4);}.cls-25{fill:#f4777c;}.cls-26{fill:url(#linear-gradient-5);}.cls-27{fill:url(#linear-gradient-6);}.cls-28{fill:url(#linear-gradient-7);}.cls-29,.cls-40{fill:#a7a9ac;}.cls-30{mask:url(#mask-2);}.cls-31{opacity:0.8;fill:url(#linear-gradient-8);}.cls-34{fill:#c2b59b;}.cls-35{fill:#b2151b;}.cls-36,.cls-41{fill:#f8a4a7;}.cls-37{fill:#e6e7e8;}.cls-42{opacity:0.7;}.cls-43{fill:#fbb09e;}.cls-44{filter:url(#luminosity-noclip);}</style><filter id="luminosity-noclip" x="900.82" y="-8576" width="71.07" height="32766" filterUnits="userSpaceOnUse" color-interpolation-filters="sRGB"><feFlood flood-color="#fff" result="bg"/><feBlend in="SourceGraphic" in2="bg"/></filter><mask id="mask" x="900.82" y="-8576" width="71.07" height="32766" maskUnits="userSpaceOnUse"><g class="cls-44"/></mask><linearGradient id="linear-gradient" x1="900.55" y1="527.39" x2="916.56" y2="543.4" gradientTransform="translate(-43.67 146) rotate(-7.85)" gradientUnits="userSpaceOnUse"><stop offset="0" stop-color="#fff"/><stop offset="0.09" stop-color="#dcdcdc"/><stop offset="0.29" stop-color="#9a9a9a"/><stop offset="0.47" stop-color="#636363"/><stop offset="0.63" stop-color="#383838"/><stop offset="0.78" stop-color="#191919"/><stop offset="0.91" stop-color="#070707"/><stop offset="1"/></linearGradient><linearGradient id="linear-gradient-2" x1="1124.91" y1="672.67" x2="1124.91" y2="619.56" gradientTransform="translate(-43.67 146) rotate(-7.85)" gradientUnits="userSpaceOnUse"><stop offset="0" stop-color="#e6e7e8"/><stop offset="1"/></linearGradient><linearGradient id="linear-gradient-3" x1="1125.98" y1="654.23" x2="1125.98" y2="638.29" gradientTransform="translate(-43.67 146) rotate(-7.85)" gradientUnits="userSpaceOnUse"><stop offset="0"/><stop offset="1" stop-color="#e6e7e8"/></linearGradient><linearGradient id="linear-gradient-4" x1="1127.35" y1="652.05" x2="1127.35" y2="640.56" xlink:href="#linear-gradient-2"/><linearGradient id="linear-gradient-5" x1="878.31" y1="687.44" x2="878.31" y2="634.32" xlink:href="#linear-gradient-2"/><linearGradient id="linear-gradient-6" x1="879.38" y1="669" x2="879.38" y2="653.06" xlink:href="#linear-gradient-3"/><linearGradient id="linear-gradient-7" x1="880.75" y1="666.82" x2="880.75" y2="655.33" xlink:href="#linear-gradient-2"/><filter id="luminosity-noclip-2" x="900.82" y="514.91" width="71.07" height="85" filterUnits="userSpaceOnUse" color-interpolation-filters="sRGB"><feFlood flood-color="#fff" result="bg"/><feBlend in="SourceGraphic" in2="bg"/></filter><mask id="mask-2" x="900.82" y="514.91" width="71.07" height="85" maskUnits="userSpaceOnUse"><g class="cls-1"><path class="cls-2" d="M948.59,518.74a5.77,5.77,0,0,0-2.42,1c-31.72,22.38-41.61,54.94-44.85,72.67a32.24,32.24,0,0,0-.46,7.52c6.52-.89,7.16-4.13,7.32-5,3.42-18.68,13.83-53,47.22-76.52a6.12,6.12,0,0,1,2.56-1l13.89-2.28c0-.11,0-.17,0-.17Z"/></g></mask><linearGradient id="linear-gradient-8" x1="900.55" y1="527.39" x2="916.56" y2="543.4" gradientTransform="translate(-43.67 146) rotate(-7.85)" gradientUnits="userSpaceOnUse"><stop offset="0" stop-color="#fff"/><stop offset="1" stop-color="#fff"/></linearGradient></defs><g class="cls-3"><g id="bike_5" data-name="bike 5"><path class="cls-4" d="M884.47,734.59l323-76.51a2.54,2.54,0,0,0,1.69-3.15h0a2.54,2.54,0,0,0-2.93-2l-323,76.51a2.54,2.54,0,0,0-1.69,3.15h0A2.52,2.52,0,0,0,884.47,734.59Z"/><path d="M1137.93,503l-43.74,6a35.56,35.56,0,0,0-27.93,21.48L1060.18,545a3.06,3.06,0,0,0,1.34,3.93,2.88,2.88,0,0,0,1.69.27,2.91,2.91,0,0,0,2.3-1.77l6.15-14.68A29.71,29.71,0,0,1,1095,514.83l1-.13a3,3,0,0,1,3.39,2.57l1.22,8.85a3,3,0,0,0,2.83,2.68,2.92,2.92,0,0,0,3-3.33l-.57-4.09a8,8,0,0,1,6.8-9l26-3.58a3,3,0,0,0,2.68-2.83A2.94,2.94,0,0,0,1137.93,503Z"/><path class="cls-5" d="M1072.31,514.36s4.27,29.74-19.9,33.19l-63,13-4.86,79.68L936,647.16,964,630.8l-.57-90.7,67.29-20Z"/><path class="cls-6" d="M1117.5,543.77c-1.92,8.06-23.31,16.47-44,72.89-5.85,15.93-73.47,46.5-90.8,49.34-9,1.48-38.35-25.29-27.71-27,3.3-.54,40.87-5.1,50.31-8.93,10.89-4.43,12.73-17.41,16.24-31.32,13.1-52,64.15-71.76,96.44-74.31A48.63,48.63,0,0,1,1117.5,543.77Z"/><path d="M1131.2,547.52c-1.92,8.06-23.3,16.47-44,72.89-5.85,15.93-73.47,46.5-90.8,49.34-9,1.48-38.35-25.28-27.71-27,3.3-.54,34.54-7.28,44-11.11,10.89-4.43,19.06-15.23,22.56-29.14,13.1-52,64.15-71.76,96.44-74.31A48.45,48.45,0,0,1,1131.2,547.52Z"/><path class="cls-7" d="M1170.94,544.14l-129.11,21.2a6.64,6.64,0,0,1-7.62-5.47s-6.17-23,31.9-29.3l20.66-3.4a70.72,70.72,0,0,0,21.65-7.29l17.81-9.43a25.79,25.79,0,0,1,7.82-2.63l20.34-3.34a9.9,9.9,0,0,1,11.38,8.17Z"/><path class="cls-8" d="M1155.41,504.37a8.83,8.83,0,0,0-1,.11l-20,3.28a28,28,0,0,0-8.53,2.87l-17.15,9.08a73,73,0,0,1-22.35,7.52l-20.29,3.34c-38.07,6.25-31.9,29.3-31.9,29.3a6.6,6.6,0,0,0,1.76,3.52,2.31,2.31,0,0,0,3.84-2.32v0a4.91,4.91,0,0,1,3.33-6l5.44-1.69a22.62,22.62,0,0,0,11.72-8.45l1-1.43a21.76,21.76,0,0,1,13.69-8.72c1.09-.2,2.21-.39,3.36-.58l20.66-3.4a66.31,66.31,0,0,0,21.61-7.57l17.72-9.93a23.86,23.86,0,0,1,7.81-2.74l9.64-1.58C1158.61,508.48,1158.25,504.2,1155.41,504.37Z"/><path class="cls-9" d="M1095,525.32a69.12,69.12,0,0,1-8.18,1.85l-20.66,3.4c-38.07,6.25-31.9,29.3-31.9,29.3a6.64,6.64,0,0,0,7.62,5.47l33.79-5.55C1085.22,550.22,1092.3,538.59,1095,525.32Z"/><rect x="1091.1" y="495.49" width="76.32" height="10.61" transform="translate(-57.84 159.01) rotate(-7.85)"/><path class="cls-6" d="M1061.71,377.54h116.36a0,0,0,0,1,0,0V504.21a0,0,0,0,1,0,0h-126a6.6,6.6,0,0,1-6.6-6.6V393.75a16.21,16.21,0,0,1,16.21-16.21Z" transform="translate(-49.82 156.06) rotate(-7.85)"/><path class="cls-10" d="M1056.8,383.24h79.55a0,0,0,0,1,0,0v14.08a0,0,0,0,1,0,0h-93.63a0,0,0,0,1,0,0v0A14.08,14.08,0,0,1,1056.8,383.24Z" transform="translate(-43.11 152.55) rotate(-7.85)"/><path class="cls-11" d="M1208.74,491.44l-65.19,9a6.6,6.6,0,0,1-7.44-5.64l-14.19-102.88a16.2,16.2,0,0,1,13.84-18.27l37.69-5.2c27.21-3.75,38.8,80,44.37,110.45A10.72,10.72,0,0,1,1208.74,491.44Z"/><path d="M1201.58,401.84l-159.06,21.94a1.46,1.46,0,1,1-.4-2.9l159.06-21.94a1.46,1.46,0,0,1,.4,2.9Z"/><path class="cls-9" d="M1104.6,377.94l-51.07,7a16.2,16.2,0,0,0-13.84,18.27l14.19,102.89a6.6,6.6,0,0,0,7.44,5.63l50.28-6.93c7.1-32.63,1.08-80.92-17.87-96.51C1106.92,405.62,1110.89,386.28,1104.6,377.94Z"/><path class="cls-12" d="M945.55,504.19l63.8-9.87c31.9-4.4,2.42-87.73-5.94-71.86-10.92,20.75-6,50.09-6,50.09-10.88,12.45-55.79,24.69-55.79,24.69Z"/><path class="cls-13" d="M1003.41,422.46a58.19,58.19,0,0,0-5.27,15.25c30.38,58-17.55,51.14-28.4,50.24-14.2,5.5-28.08,9.29-28.08,9.29l3.89,6.95,63.8-9.87C1041.25,489.92,1011.77,406.59,1003.41,422.46Z"/><path class="cls-14" d="M1091.39,511.73s4.24,29.74-16.58,32.73l-50.45,11.25-6.44,79.9-41.84,6L1000,625.84l-1.8-87.61,51.87-20.81Z"/><polygon points="1000.02 625.84 976.08 641.63 1017.92 635.61 1018.31 630.72 1000.02 625.84"/><g class="cls-15"><path class="cls-16" d="M1072.19,514.37c-1.38,6.35-4.92,11.56-9.44,16-18.06,13.34-41.84,22.33-64.29,19.55l1.56,75.89-23.94,15.79,41.84-6,6.44-79.9,50.45-11.25c20.82-3,16.58-32.73,16.58-32.73Z"/></g><g class="cls-15"><path class="cls-17" d="M1091.39,511.73l-41.3,5.69-13.16,5.28c18.33-1.75,36.74-1.16,54.17,3.19A52.23,52.23,0,0,0,1091.39,511.73Z"/></g><path d="M1157,606.91c-.32.05-.63.14-1,.2,5.9,4,10,11.19,10.34,19.77.59,13.42-8,25.33-19.44,27.66a19.51,19.51,0,0,0,13.88,3.24c12-1.74,21.2-14,20.58-27.89C1180.76,615.47,1169.8,604.94,1157,606.91Z"/><path class="cls-18" d="M1157.24,655.37a.69.69,0,0,1-.77-.58l-2.06-14.93a.69.69,0,0,1,1.36-.19l2.06,14.93A.68.68,0,0,1,1157.24,655.37Z"/><path class="cls-18" d="M1167.21,649.68a.67.67,0,0,1-.64-.26l-8.51-11.25a.67.67,0,0,1,.13-.95.69.69,0,0,1,1,.13l8.51,11.24a.68.68,0,0,1-.45,1.09Z"/><path class="cls-18" d="M1173.65,639.34a.58.58,0,0,1-.32,0l-12.68-4.55a.68.68,0,1,1,.46-1.29l12.68,4.55a.68.68,0,0,1-.14,1.32Z"/><path class="cls-18" d="M1161.39,630.48a.68.68,0,0,1-.26-1.34l13.45-3.36a.66.66,0,0,1,.83.49.68.68,0,0,1-.49.83l-13.46,3.37Z"/><path class="cls-18" d="M1159.85,626.66a.67.67,0,0,1-.58-.2.68.68,0,0,1,0-1l10.62-10.37a.67.67,0,0,1,1,0,.68.68,0,0,1,0,1l-10.62,10.37A.66.66,0,0,1,1159.85,626.66Z"/><path class="cls-18" d="M1156.76,624.36a.87.87,0,0,1-.32,0,.69.69,0,0,1-.43-.87l5-14.61a.68.68,0,1,1,1.29.44l-4.94,14.61A.71.71,0,0,1,1156.76,624.36Z"/><path class="cls-18" d="M1152.94,624.18a.68.68,0,0,1-.77-.58l-2.06-14.93a.69.69,0,0,1,1.36-.18l2.06,14.92A.68.68,0,0,1,1152.94,624.18Z"/><path class="cls-18" d="M1149.43,626.19a.68.68,0,0,1-.64-.27l-8.51-11.24a.69.69,0,0,1,.13-1,.7.7,0,0,1,1,.14l8.51,11.24a.69.69,0,0,1-.13,1A.8.8,0,0,1,1149.43,626.19Z"/><path class="cls-18" d="M1147.16,629.84a.75.75,0,0,1-.33,0l-12.68-4.55a.68.68,0,1,1,.46-1.28l12.68,4.55a.68.68,0,0,1,.42.87A.7.7,0,0,1,1147.16,629.84Z"/><path class="cls-18" d="M1133.28,637.52a.69.69,0,0,1-.75-.52.68.68,0,0,1,.49-.83l13.46-3.36a.66.66,0,0,1,.82.49.68.68,0,0,1-.49.83l-13.45,3.37Z"/><path class="cls-18" d="M1137.66,648.35a.68.68,0,0,1-.57-1.17l10.62-10.38a.68.68,0,0,1,1,1L1138,648.16A.72.72,0,0,1,1137.66,648.35Z"/><path class="cls-18" d="M1146.43,654.88a.6.6,0,0,1-.32,0,.68.68,0,0,1-.42-.86l4.94-14.61a.69.69,0,0,1,.87-.43.67.67,0,0,1,.42.86L1147,654.42A.65.65,0,0,1,1146.43,654.88Z"/><g class="cls-15"><path class="cls-19" d="M1161.82,608.42a.69.69,0,0,0-.86.43l-2,5.79h0c.5-.07,1-.09,1.48-.12l1.77-5.23A.69.69,0,0,0,1161.82,608.42Zm-21.41,5.3a.69.69,0,0,0-.13,1l5.26,7c.32-.33.63-.67,1-1l-5.14-6.79A.7.7,0,0,0,1140.41,613.72Zm30.45,1.41a.67.67,0,0,0-1,0l-.55.53c.48.17,1,.32,1.43.51l.07-.06A.68.68,0,0,0,1170.86,615.13Zm-20.17-7.23a.69.69,0,0,0-.58.77l1.18,8.54c.42-.23.85-.46,1.29-.66l-1.11-8.06A.69.69,0,0,0,1150.69,607.9Zm-13.6,39.28a.68.68,0,0,0,.57,1.17.72.72,0,0,0,.38-.19l1.44-1.41c-.13-.51-.26-1-.37-1.55ZM1132.53,637a.69.69,0,0,0,.75.52l.07,0,5.38-1.35c.06-.49.15-1,.23-1.46l-5.94,1.48A.68.68,0,0,0,1132.53,637Zm1.21-12.62a.68.68,0,0,0,.41.87l7.09,2.55c.21-.41.41-.83.63-1.23l-7.26-2.6A.67.67,0,0,0,1133.74,624.38Z"/></g><path d="M1155.64,620.08c-6.19.95-10.58,7.4-9.86,14.17.69,6.51,5.89,10.94,11.67,10.1s10.28-6.71,10-13.33C1167.15,624.14,1161.85,619.13,1155.64,620.08Z"/><path class="cls-20" d="M1157.44,592.07l-1.68-.32c-20.51-3.94-37.41,6.61-44.26,30,0,0-10.31,35.3,29.47,47.09l1.68.32a37.81,37.81,0,0,0,44.26-30l.54-2.83A37.81,37.81,0,0,0,1157.44,592.07Zm24,37.82c.62,13.87-8.62,26.15-20.58,27.89s-22.67-7.56-24.13-21.22c-1.51-14.19,7.53-27.7,20.3-29.65S1180.76,615.47,1181.39,629.89Z"/><path class="cls-7" d="M1137,638.38c-.11-.6-.21-1.2-.28-1.82-1.51-14.19,7.53-27.7,20.3-29.65a19.58,19.58,0,0,1,15.43,4.2,67.5,67.5,0,0,0,4.46-8.82,37.56,37.56,0,0,0-19.43-10.22l-1.68-.32c-20.51-3.94-37.41,6.61-44.26,30a41.68,41.68,0,0,0,.12,20.29A62.06,62.06,0,0,0,1137,638.38Z"/><path class="cls-20" d="M1154.43,591.55c-19.11-3.1-34.91,6.54-42.06,27.59C1131.6,621,1150,609,1154.43,591.55Z"/><path d="M1162.56,595.65c-17.39-3.33-34.58,10.1-38.4,30s7.18,38.74,24.58,42.08,34.58-10.1,38.4-30S1180,599,1162.56,595.65Zm18.83,34.24c.62,13.87-8.62,26.15-20.58,27.89s-22.67-7.56-24.13-21.22c-1.51-14.19,7.53-27.7,20.3-29.65S1180.76,615.47,1181.39,629.89Z"/><path class="cls-21" d="M1156.89,605.81c-13.32,2-22.75,16.13-21.17,30.93,1.52,14.25,12.75,24,25.17,22.14s22.11-14.62,21.47-29.09C1181.7,614.74,1170.26,603.76,1156.89,605.81Zm3.85,51c-11.44,1.66-21.75-7.28-23.11-20.38-1.42-13.58,7.25-26.45,19.44-28.31s22.72,8.15,23.36,21.92C1181.05,643.37,1172.21,655.16,1160.74,656.84Z"/><path class="cls-22" d="M1167.07,631.38c.29,4.38-2.59,8.35-6.42,8.91s-7.22-2.46-7.59-6.82,2.48-8.51,6.39-9.1S1166.78,626.94,1167.07,631.38Z"/><path class="cls-23" d="M1166.48,631.48c.21,3.16-1.86,6-4.63,6.45s-5.21-1.79-5.47-4.94,1.79-6.12,4.61-6.54S1166.26,628.29,1166.48,631.48Z"/><path d="M915.77,613.52l-3.37,17.27-4.16,21.29,1.11.21-.56,2.9-3,15.23a6.85,6.85,0,0,0-.65,13.43l.84.21a6.73,6.73,0,0,0,3.54-.1h0a5.26,5.26,0,0,0,.6-.19,6.31,6.31,0,0,0,3.58-3.27.83.83,0,0,0,.09-.16c.11-.24.19-.51.28-.77a4.4,4.4,0,0,0,.18-.51,4.34,4.34,0,0,0,.07-.52,5.79,5.79,0,0,0,.12-.82v-.18a6.38,6.38,0,0,0-1.64-4.57c-.14-.15-.29-.3-.44-.44l0,0a7,7,0,0,0-.66-.56l3-15.58.56-2.89,1.11.22,4.86-24.89L924,615.12Z"/><path d="M875.44,631.15a4.49,4.49,0,0,0,.4.57,1.71,1.71,0,0,0,.13.23c.22.33,15.94,22.35,37.77,20.52.34,0,3.07-.25,4.09-.42h0l23.9-3.92C937.9,622.73,864.76,608.16,875.44,631.15Z"/><path class="cls-24" d="M1133.89,576.09c22.6-3.71,46,8.3,55.16,28.27a7.11,7.11,0,0,0,7.61,4.11l8.42-1.38c-7.09-32.69-48.89-52.74-82.56-47.21s-56.85,36.26-53.12,69.49l23.26-3.82A49.21,49.21,0,0,1,1133.89,576.09Z"/><path class="cls-20" d="M1143.9,574.44a49.23,49.23,0,0,1,52.72,28.08,7.9,7.9,0,0,0,8.46,4.57h0c-7.09-32.69-38.88-54.38-72.55-48.85s-56.85,36.25-53.12,69.49l23.26-3.82A49.22,49.22,0,0,1,1143.9,574.44Z"/><path d="M966.21,480.25l-27,4.44,5.13,31.24,3.5-.58,1.71,10.39,26.27-4.31L974.09,511l20-3.29a4.3,4.3,0,0,0,3.55-4.94A27.36,27.36,0,0,0,966.21,480.25Z"/><path class="cls-25" d="M997.52,669.57c-9.39,1.54-43.64,7.22-57,9.39a5.78,5.78,0,0,1-6.49-4.14c-4.75-16.8-20.56-45.72-29-60.53a32.47,32.47,0,0,1-3.74-21.9c3.24-17.73,13.13-50.29,44.85-72.67a5.77,5.77,0,0,1,2.42-1l23.3-3.83S961.41,569,961.25,575.07C960.63,600.24,1014,666.86,997.52,669.57Z"/><path class="cls-24" d="M905,614.23l0,.07c8.44,14.81,24.24,43.72,29,60.52a5.79,5.79,0,0,0,6.49,4.14c13.34-2.17,47.59-7.85,57-9.39,11.05-1.82-14.4-35.79-35.55-61.58l-49.16-6.87S903.21,605.64,905,614.23Z"/><path d="M1161.18,618.94l-.29,0c-17-14.45-49.15-25.28-65-22.68l-4.31,12.27,3.48,21.22L931.66,656.63a15.67,15.67,0,0,0-12.93,18l-1.34,5.26c62.36-5.86,53.26,2.21,61.81.81l98.22-23.34a48.45,48.45,0,0,1,19.51-.82c22.14,3.87,80.18-13.09,82.26-24.68A15.67,15.67,0,0,0,1161.18,618.94Z"/><path class="cls-11" d="M1127.86,647a14.2,14.2,0,0,1,11.71-16.32l33.84-5.55a13,13,0,0,0-11.31-3.61l-29.82,4.89a13.09,13.09,0,0,0-3.76,24.61Z"/><path class="cls-11" d="M1183.89,538.87c-2.31,8.12,22.18,11.42-14.73,17.48l-.74.12c-12,2-39.68,8.6-64,65.61-6.86,16.1-54.43,38.87-73.89,42.06-7.81,1.28-25.06,4.15-37.26,6.16a14.17,14.17,0,0,1-16-10.22c-15.07-55.93-64.47-59-64.47-59,.58-2.66,1-46.6,47.59-84.32l12.71-2.09a5.09,5.09,0,0,1,5.64,6.71c-4.71,13.38-13.25,39.85-12.14,52.84,0,0,21.51,65.27,33.45,63.3,3.7-.61,38.81-8,49.46-12,12.28-4.65,21.64-15.65,25.83-29.67,15.7-52.43,64.51-73.77,89.73-84.56a21,21,0,0,1,4.69-1.34c6-1,13.53.42,15,9.46A44,44,0,0,1,1183.89,538.87Z"/><path class="cls-25" d="M1169.77,510a20.85,20.85,0,0,0-4.69,1.34c-25.22,10.79-74,32.13-89.73,84.56-4.19,14-13.55,25-25.83,29.67-10.65,4-45.75,11.4-49.46,12-1,.17,28.64.25,57.12-8.79,13.31-4.23,23.19-15.91,27.81-30,17.26-52.68,69.44-74.57,96.41-85.65l.38-.14C1178.67,509.75,1173.88,509.31,1169.77,510Z"/><path class="cls-25" d="M1136.87,564.88c19.4-13.18,40.9-18.07,50-19.64-1.43-1.45-2.89-3-3.07-4.89C1173.06,543.05,1149.26,550.44,1136.87,564.88Z"/><path class="cls-20" d="M915.17,640.4l-1.68-.33c-20.51-3.93-37.41,6.62-44.25,30,0,0-10.32,35.3,29.46,47.1l1.68.32a37.83,37.83,0,0,0,44.26-30l.54-2.84A37.79,37.79,0,0,0,915.17,640.4Zm24,37.82c.61,13.87-8.63,26.15-20.58,27.89s-22.68-7.57-24.14-21.22c-1.51-14.2,7.53-27.7,20.3-29.66S938.49,663.79,939.13,678.22Z"/><path class="cls-7" d="M894.69,686.71c-.1-.6-.21-1.2-.28-1.82-1.51-14.2,7.53-27.7,20.3-29.66a19.61,19.61,0,0,1,15.43,4.2,66.88,66.88,0,0,0,4.46-8.82,37.58,37.58,0,0,0-19.43-10.21l-1.68-.33c-20.51-3.93-37.41,6.62-44.25,30a41.68,41.68,0,0,0,.12,20.29A61.84,61.84,0,0,0,894.69,686.71Z"/><path class="cls-8" d="M893.22,641.33c-10.08,3.65-18.11,12.13-22.78,25.1a80.07,80.07,0,0,0,28,.22c3.65-6,9.4-10.37,16.23-11.42.18,0,.36,0,.54-.05a13.93,13.93,0,0,0-.68-1.64C910,645.05,901.68,641.46,893.22,641.33Z"/><path d="M914.71,655.23c-.32,0-.63.14-1,.21,5.91,4,10,11.18,10.34,19.77.59,13.42-8.05,25.32-19.44,27.66a19.58,19.58,0,0,0,13.89,3.24c12-1.74,21.19-14,20.58-27.89C938.49,663.79,927.53,653.27,914.71,655.23Z"/><path class="cls-18" d="M915,703.7a.68.68,0,0,1-.77-.59l-2.06-14.92a.68.68,0,1,1,1.35-.19l2.06,14.93A.69.69,0,0,1,915,703.7Z"/><path class="cls-18" d="M924.94,698a.68.68,0,0,1-.64-.27l-8.51-11.24a.69.69,0,0,1,.13-1,.69.69,0,0,1,1,.13l8.51,11.25a.69.69,0,0,1-.13,1A.8.8,0,0,1,924.94,698Z"/><path class="cls-18" d="M931.38,687.67a.72.72,0,0,1-.32,0l-12.68-4.55a.68.68,0,1,1,.46-1.28l12.68,4.55a.67.67,0,0,1,.41.87A.69.69,0,0,1,931.38,687.67Z"/><path class="cls-18" d="M919.12,678.81a.68.68,0,0,1-.26-1.34l13.46-3.37a.68.68,0,0,1,.83.5.69.69,0,0,1-.5.83l-13.45,3.36Z"/><path class="cls-18" d="M917.58,675a.69.69,0,0,1-.57-1.17l10.62-10.38a.69.69,0,1,1,1,1L918,674.8A.75.75,0,0,1,917.58,675Z"/><path class="cls-18" d="M914.49,672.68a.55.55,0,0,1-.31,0,.68.68,0,0,1-.43-.86l4.94-14.61a.68.68,0,0,1,1.3.43l-5,14.61A.65.65,0,0,1,914.49,672.68Z"/><path class="cls-18" d="M910.67,672.51a.69.69,0,0,1-.77-.59L907.84,657a.69.69,0,0,1,1.36-.19l2.06,14.93A.69.69,0,0,1,910.67,672.51Z"/><path class="cls-18" d="M907.16,674.52a.68.68,0,0,1-.64-.27L898,663a.69.69,0,0,1,.13-1,.69.69,0,0,1,1,.13l8.51,11.24a.68.68,0,0,1-.13,1A.7.7,0,0,1,907.16,674.52Z"/><path class="cls-18" d="M904.89,678.16a.62.62,0,0,1-.33,0l-12.68-4.55a.69.69,0,0,1,.47-1.29L905,676.84a.68.68,0,0,1-.14,1.32Z"/><path class="cls-18" d="M891,685.84a.67.67,0,0,1-.75-.51.68.68,0,0,1,.5-.83l13.45-3.37a.67.67,0,0,1,.83.5.68.68,0,0,1-.5.83l-13.45,3.37Z"/><path class="cls-18" d="M895.39,696.67a.68.68,0,0,1-.57-1.16l10.62-10.38a.68.68,0,0,1,1,0,.69.69,0,0,1,0,1l-10.62,10.37A.63.63,0,0,1,895.39,696.67Z"/><path class="cls-18" d="M904.16,703.21a.82.82,0,0,1-.31,0,.69.69,0,0,1-.43-.87l4.94-14.61a.69.69,0,0,1,.87-.43.69.69,0,0,1,.43.87l-4.95,14.61A.68.68,0,0,1,904.16,703.21Z"/><g class="cls-15"><path class="cls-19" d="M919.56,656.75a.69.69,0,0,0-.87.43l-2,5.79h0c.5-.07,1-.09,1.49-.13l1.77-5.23A.69.69,0,0,0,919.56,656.75Zm-21.42,5.3a.69.69,0,0,0-.13,1l5.26,7c.32-.33.64-.67,1-1l-5.14-6.79A.69.69,0,0,0,898.14,662.05Zm30.46,1.4a.69.69,0,0,0-1,0l-.55.54c.48.16,1,.32,1.44.51l.07-.07A.69.69,0,0,0,928.6,663.45Zm-20.17-7.22a.68.68,0,0,0-.59.77l1.18,8.53c.43-.23.85-.45,1.29-.65l-1.11-8.07A.69.69,0,0,0,908.43,656.23Zm-13.61,39.28a.68.68,0,0,0,.57,1.16.63.63,0,0,0,.38-.19l1.45-1.4c-.14-.51-.27-1-.38-1.55Zm-4.56-10.18a.67.67,0,0,0,.75.51h.08l5.37-1.35c.06-.49.15-1,.24-1.47l-5.94,1.49A.68.68,0,0,0,890.26,685.33Zm1.21-12.62a.68.68,0,0,0,.41.87l7.1,2.54c.2-.41.4-.82.62-1.22l-7.25-2.61A.69.69,0,0,0,891.47,672.71Z"/></g><path d="M913.37,668.41c-6.18,1-10.58,7.4-9.86,14.17.69,6.51,5.9,10.93,11.67,10.09s10.28-6.7,10-13.32C924.88,672.47,919.58,667.46,913.37,668.41Z"/><path d="M920.29,644c-17.39-3.34-34.58,10.1-38.4,30s7.19,38.75,24.58,42.08,34.58-10.09,38.4-30S937.69,647.31,920.29,644Zm18.84,34.24c.61,13.87-8.63,26.15-20.58,27.89s-22.68-7.57-24.14-21.22c-1.51-14.2,7.53-27.7,20.3-29.66S938.49,663.79,939.13,678.22Z"/><path class="cls-26" d="M914.63,654.14c-13.32,2-22.76,16.12-21.18,30.93C895,699.32,906.2,709,918.63,707.2s22.1-14.62,21.46-29.09C939.43,663.07,928,652.09,914.63,654.14Zm3.84,51c-11.43,1.67-21.75-7.27-23.11-20.37-1.41-13.58,7.25-26.45,19.44-28.32s22.72,8.15,23.36,21.93C938.78,691.69,929.94,703.49,918.47,705.16Z"/><path class="cls-27" d="M924.8,679.7c.29,4.38-2.59,8.35-6.42,8.92s-7.21-2.47-7.59-6.82,2.48-8.51,6.39-9.1S924.51,675.27,924.8,679.7Z"/><path class="cls-28" d="M924.21,679.81c.21,3.16-1.86,6-4.63,6.44s-5.21-1.79-5.47-4.93,1.8-6.12,4.61-6.54S924,676.62,924.21,679.81Z"/><path class="cls-29" d="M978.75,521.42a5.09,5.09,0,0,0-5.64-6.71l-1.22.2h0l-23.3,3.83a5.77,5.77,0,0,0-2.42,1,105.9,105.9,0,0,0-10.84,8.77c12,6.07,25.43,7.53,38.9,6.56C975.84,529.89,977.44,525.14,978.75,521.42Z"/><path class="cls-25" d="M917,579c8.36-1.17,24.78.37,27.39-5.61,8.31-19,21.58-33.19,16.4-35.85-2.6-1.34-15.48-.08-27.24-7.39-18.48,17.91-26.78,39.18-30.58,54.48C907.77,580,912,579.71,917,579Z"/><g class="cls-30"><path class="cls-31" d="M948.59,518.74a5.77,5.77,0,0,0-2.42,1c-31.72,22.38-41.61,54.94-44.85,72.67a32.24,32.24,0,0,0-.46,7.52c6.52-.89,7.16-4.13,7.32-5,3.42-18.68,13.83-53,47.22-76.52a6.12,6.12,0,0,1,2.56-1l13.89-2.28c0-.11,0-.17,0-.17Z"/></g><path class="cls-14" d="M1094.93,518.47c.23,2.81-1,5.17-3.74,4.56-8.86-2-8.3-8.34-26.41-5.84L1028.55,521a3.84,3.84,0,0,1-4.11-2.74c-11.64-40.3-21-95.76-21-95.76.87-5.6,13.67-16,41.27-19.84,5.91-.82,26.26-3.29,43.38,11.34Z"/><path class="cls-32" d="M1060.42,402.73a35.59,35.59,0,0,0-15.84-.17c-11.94,2.6-31.47,9.15-29.36,24.47,2.81,20.34,16.69,33,24.89,38.65,6.19,4.25,5.71-7.75,10.1-21.6s9.69-30.23,24.23-33.29C1078.33,410,1068.08,404.54,1060.42,402.73Z"/><path class="cls-12" d="M1057.84,400.33a35.59,35.59,0,0,0-15.84-.17c-11.94,2.6-31.48,9.15-29.36,24.46,2.8,20.34,16.69,33,24.89,38.66,6.18,4.25,5.7-7.75,10.1-21.6s9.68-30.23,24.23-33.29C1075.75,407.57,1065.49,402.14,1057.84,400.33Z"/><path class="cls-33" d="M1048.82,405.29a23.31,23.31,0,0,0-10.7-.18c-8,1.79-21.22,6.31-19.74,17.08,2,14.29,11.4,23.26,17,27.24,4.2,3,2.89-6.08,5.8-15.79s5.85-20.74,15-25C1058.59,407.53,1054,406.6,1048.82,405.29Z"/><path class="cls-13" d="M1066.11,403.21a47.76,47.76,0,0,0-8.27-2.88,35.59,35.59,0,0,0-15.84-.17c-6.6,1.44-15.52,4.09-21.82,8.75-10.86,4.52-16.22,10-16.77,13.55,0,0,9.39,55.46,21,95.76a3.84,3.84,0,0,0,4.11,2.74l4.92-.51c-1-5.19-2.87-10.84.43-11.3,19.4-5.36,41.56,1.69,59.32-16.67L1088.06,414A49.27,49.27,0,0,0,1066.11,403.21Zm-14.29,85.12c-16.65,2.3-26.34,13.46-33.24-26.79-2.84-16.57,2.09-30.68,25.85-35.17,26.28-5,31.07,11,33.37,27.66A30.43,30.43,0,0,1,1051.82,488.33Z"/><path class="cls-32" d="M1015.84,419.82c21,5.53,48.62,5.67,64.34-11.34a50.53,50.53,0,0,0-14.07-5.27,47.76,47.76,0,0,0-8.27-2.88,35.59,35.59,0,0,0-15.84-.17c-6.6,1.44-15.52,4.09-21.82,8.75a51.41,51.41,0,0,0-10,5.36C1011.59,417.58,1013.56,420.13,1015.84,419.82Z"/><path class="cls-20" d="M1195.21,495.1l-43.74,6a35.57,35.57,0,0,0-27.93,21.48l-6.07,14.51a3.05,3.05,0,0,0,1.33,3.93,2.88,2.88,0,0,0,1.69.28,2.92,2.92,0,0,0,2.3-1.77l6.15-14.69a29.72,29.72,0,0,1,23.33-17.94l1-.13a3,3,0,0,1,3.39,2.57l1.22,8.85a3,3,0,0,0,2.83,2.68,2.93,2.93,0,0,0,3-3.33l-.56-4.09a8,8,0,0,1,6.8-9l26-3.58a3,3,0,0,0,2.68-2.83A2.92,2.92,0,0,0,1195.21,495.1Z"/><path class="cls-7" d="M1170.36,486h22.78a14.61,14.61,0,0,1,14.61,14.61v0a0,0,0,0,1,0,0h-52a0,0,0,0,1,0,0v0A14.61,14.61,0,0,1,1170.36,486Z" transform="translate(-56.33 166.12) rotate(-7.85)"/><path class="cls-18" d="M1172.56,485.72h22.78a14.61,14.61,0,0,1,14.61,14.61v0a0,0,0,0,1,0,0h-52a0,0,0,0,1,0,0v0A14.61,14.61,0,0,1,1172.56,485.72Z" transform="matrix(0.99, -0.14, 0.14, 0.99, -56.27, 166.41)"/><rect class="cls-34" x="921.71" y="640.86" width="6.09" height="39.28" transform="translate(143.69 -164.95) rotate(11.05)"/><rect class="cls-13" x="925.23" y="641.2" width="2.54" height="39.28" transform="translate(143.79 -165.28) rotate(11.05)"/><rect class="cls-13" x="923.77" y="641.06" width="6.09" height="17.72" transform="translate(141.7 -165.54) rotate(11.05)"/><rect class="cls-35" x="925.27" y="616.81" width="8.36" height="39.28" transform="translate(139.16 -166.29) rotate(11.05)"/><rect class="cls-13" x="930.1" y="617.28" width="3.48" height="39.28" transform="translate(139.3 -166.74) rotate(11.05)"/><path class="cls-29" d="M933,640.31,937.31,618l-8.2-1.6L925.47,635A17.84,17.84,0,0,1,933,640.31Z"/><path class="cls-25" d="M876.11,621.27c-2.43,1.93-3.48,5.12-1.93,7.81l.26.45c.33.55.66,1.09,1,1.62.13.2.27.38.39.57a5.83,5.83,0,0,1,4.11-8.69l2.71-.44c7.07-1.16,11.35,1.83,15.59,7.61,9.74,13.26,27.92,20.49,43.51,17.93a38.2,38.2,0,0,0,18.11-8.3C951.91,611.22,910.22,594.17,876.11,621.27Z"/><path class="cls-11" d="M903,625.34c3.68,16.4,25.49,25,40.29,22.54a33,33,0,0,0,16.62-8C938.53,598.42,900.56,614.69,903,625.34Z"/><ellipse class="cls-19" cx="942.66" cy="441.93" rx="6.16" ry="12.56" transform="translate(-51.55 132.96) rotate(-7.85)"/><path class="cls-11" d="M936.71,443.7c1.12,6.4,4.45,11.12,7.66,10.68,2.93-.41,4.8-5,4.61-10.66C941.05,447.26,940.42,444.76,936.71,443.7Z"/><path class="cls-36" d="M944.81,449.74c-2.82.39-5.58-1.12-7.6-3.78,1.43,5.21,4.34,8.81,7.16,8.42,2.2-.31,3.79-2.95,4.38-6.65A7,7,0,0,1,944.81,449.74Z"/><path class="cls-17" d="M943.21,435.53c.28,0,4,.51,4.28.48-1.55-4.16-4.08-6.86-6.55-6.52-3,.42-4.93,5.32-4.57,11.33C940.16,441.57,939.08,436.1,943.21,435.53Z"/><path class="cls-37" d="M943.81,432.37a5.74,5.74,0,0,1,1.85,0c-1.4-2-3.07-3.15-4.72-2.92-3.37.46-5.33,6.41-4.38,13.29C936.64,443.36,936.66,433.33,943.81,432.37Z"/><path class="cls-33" d="M948.43,439.79v-.06c-1.08-3.89-2.68-.55-4-.78-4.25-.76-4.69,1.42-7.15,4.75-.12.15,0,.3.2.27,3.55-.48,2.3-1.49,4.92-2.38a21.52,21.52,0,0,1,4.7-.82C947.68,440.73,948.56,440.39,948.43,439.79Z"/><path d="M939.42,443.53c.18,1.34-.33,2.52-1.15,2.63s-1.62-.88-1.81-2.22.33-2.52,1.14-2.64S939.23,442.19,939.42,443.53Z"/><path class="cls-38" d="M937,445c3.79,1.48,6.29,1.26,12,.06a24.5,24.5,0,0,0-.23-4c0-.29-4.54.12-6.62.89-1.71.63-1,1.52-5.51,1.24C936.72,443.82,936.83,444.41,937,445Z"/><path d="M947.54,486.24c.09.65-1,1.35-2.47,1.55s-2.71-.17-2.8-.83,1-1.35,2.47-1.55S947.44,485.58,947.54,486.24Z"/><path class="cls-39" d="M940.94,429.49a2.93,2.93,0,0,0-.91.29c3.05.51,6,5.35,6.86,11.57s-.67,11.67-3.47,13a3.38,3.38,0,0,0,1,0c3.37-.47,5.34-6.42,4.39-13.29S944.31,429,940.94,429.49Z"/><path class="cls-18" d="M944.87,487a1.12,1.12,0,0,1-1.27-1l-.33-2.42a15.68,15.68,0,0,0-2.35-6.33l-16.27-25.17a5.4,5.4,0,0,1,3.79-8.27l8.58-1.18a1.13,1.13,0,1,1,.31,2.23l-8.58,1.18a3.15,3.15,0,0,0-2.21,4.82l16.27,25.17a18.11,18.11,0,0,1,2.69,7.24l.33,2.42A1.12,1.12,0,0,1,944.87,487Z"/><path class="cls-16" d="M937.69,468.19l-11.15-17.25a3.15,3.15,0,0,1,2.21-4.82l8.58-1.18a1.13,1.13,0,0,0,1-1.27,1.25,1.25,0,0,0-.19-.46,1.41,1.41,0,0,0-.21,0l-8.57,1.18a5.39,5.39,0,0,0-3.79,8.27l10.29,15.92A4.24,4.24,0,0,0,937.69,468.19Z"/><path class="cls-36" d="M942.81,476.11l-5.12-7.92a4.24,4.24,0,0,1-1.87.38l6,9.25a15.81,15.81,0,0,1,2.34,6.33l.34,2.42a1.08,1.08,0,0,0,.18.46,1.48,1.48,0,0,0,.21,0,1.12,1.12,0,0,0,1-1.27l-.33-2.42A18.11,18.11,0,0,0,942.81,476.11Z"/><path class="cls-38" d="M926.54,450.94a3.15,3.15,0,0,1,2.21-4.82l8.58-1.18a1.13,1.13,0,0,0,1-1.27,2.5,2.5,0,0,0-.09-.25l-8.47,1.17a5.41,5.41,0,0,0-4.17,3.05,5.16,5.16,0,0,0,.36,5.07l16.19,24.66a15.11,15.11,0,0,1,2.34,6.2l.32,2.37a1.09,1.09,0,0,0,.66.83,1.1,1.1,0,0,0,.4-1l-.33-2.42a18.11,18.11,0,0,0-2.69-7.24Z"/><path class="cls-16" d="M925.39,447.52c-.51,1.07-.17,3-1,2a2.38,2.38,0,0,1,.17-2.31c.51-1.07,1.22-1.63,1.69-1.58C927.12,445.75,925.9,446.44,925.39,447.52Z"/><path class="cls-11" d="M990.37,520.23a9.32,9.32,0,0,0,7.2-10.59l-.09-.6a7.7,7.7,0,0,0-8.66-6.59l-4.65.76a4.45,4.45,0,0,1-5-3.81l0-.21a9.65,9.65,0,0,1,7.63-11.29,36.37,36.37,0,0,0-10.17-7.32l-5.52-2.66A21.36,21.36,0,0,0,958.34,476l-9,1.48c-9,1.49-24.61,7.94-24.82,26.17C924.19,531.76,970.74,524.52,990.37,520.23Z"/><path class="cls-10" d="M946.2,490.34a7.71,7.71,0,0,0,6.94-.1c8.25-4.36,9.38-7.19,19.78-11.43l-1.85-.89A21.36,21.36,0,0,0,958.34,476l-9,1.48c-7.86,1.3-20.71,6.37-24,19.72C929.62,498.79,926.81,481,946.2,490.34Z"/><path class="cls-13" d="M934.85,520.41c14.81,7.26,41.77,2.83,55.52-.18a9.28,9.28,0,0,0,6.56-5.42c-16.41-4-31.72-9-53.32,3.94C939.49,521.21,938.8,517.73,934.85,520.41Z"/><path d="M935.11,488.51l4.18-.57s8.78,2,10.67,14.14-7.52,15.38-7.52,15.38l-2.79.38S931.54,502,935.11,488.51Z"/><path class="cls-8" d="M934.24,488.58l4.19-.57s8.78,2,10.67,14.14-7.52,15.38-7.52,15.38l-2.79.38S930.68,502,934.24,488.58Z"/><path class="cls-38" d="M947.3,496.12c-.31-.63-.62-1.23-1-1.78a67.64,67.64,0,0,0-12.87-.95c-.08,1.06-.1,2.11-.08,3.16A55.16,55.16,0,0,1,947.3,496.12Z"/><path class="cls-38" d="M935.81,510.38a54.54,54.54,0,0,0,3,7.53l2.79-.38a12.41,12.41,0,0,0,7.37-8.79C944.61,509.56,940.21,510,935.81,510.38Z"/><path class="cls-17" d="M938.43,488l-4.19.57a28,28,0,0,0-.77,4.81,67.64,67.64,0,0,1,12.87.95A14,14,0,0,0,938.43,488Z"/><path class="cls-37" d="M934.24,488.58c-5.29,1.61-8.53,8.4-7.36,16s6.35,13.22,11.91,13.37c5.77-1.68,9.39-8.52,8.22-16.08S940.29,488.66,934.24,488.58Z"/><ellipse cx="936.1" cy="503.04" rx="8.38" ry="13.48" transform="translate(-70.3 161.73) rotate(-9.52)"/><ellipse class="cls-37" cx="935.18" cy="503.17" rx="7.75" ry="10.98" transform="translate(-72.75 168.77) rotate(-9.93)"/><path class="cls-40" d="M933.5,492.32a5.94,5.94,0,0,0-1.17.31c3.8.31,7.31,4.41,8.15,9.82s-1.28,10.27-4.83,11.58a5.44,5.44,0,0,0,1.21,0c4.25-.57,6.93-5.89,6-11.88S937.74,491.75,933.5,492.32Z"/><path class="cls-32" d="M931.13,509.08a17.74,17.74,0,0,1-1.91.15c1.82,3.21,4.72,5.18,7.64,4.78,4.25-.57,6.93-5.89,6-11.88,0-.21-.08-.42-.12-.63C941,505.31,936.59,508.34,931.13,509.08Z"/><path class="cls-33" d="M935.41,499.5c-.11,2.72-1.72,5-3.58,5s-3.29-2.11-3.17-4.84,1.72-5,3.59-5S935.53,496.77,935.41,499.5Z"/><ellipse cx="976.5" cy="488.9" rx="2.66" ry="1.2" transform="translate(-57.65 138.03) rotate(-7.85)"/><ellipse class="cls-19" cx="1006.68" cy="438.55" rx="6.79" ry="13.84" transform="matrix(0.99, -0.14, 0.14, 0.99, -50.48, 141.68)"/><path class="cls-11" d="M1000.12,440.49c1.24,7.06,4.91,12.26,8.45,11.77,3.23-.44,5.28-5.46,5.08-11.74C1004.9,444.42,1004.21,441.66,1000.12,440.49Z"/><path class="cls-36" d="M1009.06,447.15c-3.11.43-6.16-1.24-8.38-4.17,1.57,5.75,4.78,9.71,7.89,9.28,2.42-.33,4.18-3.24,4.82-7.32A7.66,7.66,0,0,1,1009.06,447.15Z"/><path class="cls-17" d="M1007.29,431.49c.31,0,4.41.56,4.72.53-1.71-4.59-4.5-7.56-7.22-7.19-3.36.47-5.44,5.87-5,12.49C1003.93,438.15,1002.74,432.12,1007.29,431.49Z"/><path class="cls-37" d="M1008,428a6.64,6.64,0,0,1,2,.05c-1.54-2.22-3.39-3.47-5.2-3.22-3.72.51-5.88,7.07-4.84,14.65C1000,440.12,1000.07,429.06,1008,428Z"/><path class="cls-33" d="M1013,436.19v-.07c-1.2-4.29-3-.6-4.43-.86-4.68-.84-5.17,1.57-7.88,5.23-.13.17,0,.33.21.31,3.92-.54,2.54-1.65,5.43-2.63a23.13,23.13,0,0,1,5.18-.9C1012.22,437.22,1013.18,436.85,1013,436.19Z"/><ellipse cx="1001.48" cy="440.53" rx="1.64" ry="2.7" transform="translate(-50.8 140.98) rotate(-7.85)"/><path class="cls-38" d="M1000.4,441.9c4.18,1.64,6.93,1.4,13.25.07a26.17,26.17,0,0,0-.25-4.35c0-.32-5,.13-7.29,1-1.89.7-1.06,1.67-6.08,1.36C1000.14,440.63,1000.26,441.27,1000.4,441.9Z"/><path class="cls-39" d="M1004.79,424.83a3.6,3.6,0,0,0-1,.32c3.37.57,6.62,5.89,7.57,12.75s-.75,12.87-3.83,14.33a3.37,3.37,0,0,0,1.05,0c3.71-.51,5.88-7.07,4.83-14.64S1008.5,424.32,1004.79,424.83Z"/><path class="cls-18" d="M976.55,489.45a1.32,1.32,0,0,1-1.49-1.13l-.39-2.79a21.17,21.17,0,0,1,.75-9.12l9.28-30a8.26,8.26,0,0,1,6.74-5.72l9-1.24a1.32,1.32,0,1,1,.36,2.62l-9,1.24a5.61,5.61,0,0,0-4.57,3.88l-9.28,30a18.42,18.42,0,0,0-.65,8l.38,2.79A1.33,1.33,0,0,1,976.55,489.45Z"/><path class="cls-16" d="M1001.9,440.48a1.35,1.35,0,0,0-.89-.21l-9,1.24a8.29,8.29,0,0,0-2.74.92.17.17,0,0,0,0-.22c-.28-.3-1.22.12-2.08.94s-1.33,1.73-1,2a.19.19,0,0,0,.1.05,7.9,7.9,0,0,0-.94,2l-9.29,30a21.33,21.33,0,0,0-.74,9.12l.38,2.8,0,.08a1.25,1.25,0,0,0,.89.21,1.33,1.33,0,0,0,1.13-1.49l-.38-2.79a18.42,18.42,0,0,1,.65-8l9.28-30a5.61,5.61,0,0,1,4.57-3.88l9-1.24a1.32,1.32,0,0,0,1.13-1.49A.32.32,0,0,0,1001.9,440.48Z"/><path class="cls-38" d="M1000.8,442.06a1.31,1.31,0,0,0,1.13-1.41,1.29,1.29,0,0,0-.39,0l-9,1.25a8.23,8.23,0,0,0-6.73,5.71l-9.29,30a21.36,21.36,0,0,0-.74,9.13l.37,2.71a1.41,1.41,0,0,0,.41,0,1.33,1.33,0,0,0,1.13-1.49l-.38-2.79a18.42,18.42,0,0,1,.65-8l9.28-30a5.61,5.61,0,0,1,4.57-3.88Z"/><path class="cls-41" d="M975.42,476.41a21,21,0,0,0-.75,9.12l.39,2.79a1.32,1.32,0,0,0,2.62-.36l-.38-2.79a18.42,18.42,0,0,1,.65-8l3.25-10.5a3.79,3.79,0,0,1-3.08,1Z"/><path class="cls-32" d="M1185.16,522.16c-18.87,5.57-53.49,19.51-74.72,50.61-1,1.38.79,3.08,2,2a162.33,162.33,0,0,1,71.52-36.3A43.15,43.15,0,0,0,1185.16,522.16Z"/><path class="cls-14" d="M1185.21,522.16l-.12,0a15.22,15.22,0,0,0-10.65,17.08h0a1.42,1.42,0,0,0,1.79,1.14c2.77-.77,5.39-1.42,7.81-1.95A43.18,43.18,0,0,0,1185.21,522.16Z"/><path class="cls-11" d="M1184.52,526.64h0a10,10,0,0,0-7,11.17h0a.93.93,0,0,0,1.17.74c1.17-.32,2.3-.62,3.38-.88a2.9,2.9,0,0,0,2.16-2.28A28.8,28.8,0,0,0,1184.52,526.64Z"/><path class="cls-10" d="M1183.07,524.45h0a7.52,7.52,0,0,0-5.29,8.42h0a.71.71,0,0,0,.89.56c.88-.24,1.73-.47,2.55-.66a2.21,2.21,0,0,0,1.63-1.73A21.79,21.79,0,0,0,1183.07,524.45Z"/><path d="M1176.14,540.8a1.8,1.8,0,0,1-2.07-1.47A15.6,15.6,0,0,1,1185,521.84a.37.37,0,0,1,.46.24.38.38,0,0,1-.25.46,14.88,14.88,0,0,0-10.4,16.67,1,1,0,0,0,.47.71,1.07,1.07,0,0,0,.87.13c2.7-.75,5.33-1.4,7.82-1.95a.37.37,0,0,1,.44.28.36.36,0,0,1-.28.43c-2.47.55-5.1,1.21-7.79,2Z"/><path class="cls-32" d="M1036.16,649.06l-19.94,3.28c-3.65.6-12.58-1-13.18-4.63h0l75.58-12.41h0C1079.22,639,1049.34,646.9,1036.16,649.06Z"/><path class="cls-12" d="M1015.7,499.92l55.2-3.18c31.9-4.4,33-85,15.22-82.51-13.72,1.95-19.78,52.62-19.78,52.62-10.15,15.09-54.9,22.15-54.9,22.15Z"/><path class="cls-13" d="M1087,414.18c7.27,20.17,1.24,70.92-23.89,74.39l-50.73,2.92,3.29,8.43,55.2-3.18C1102.25,492.41,1103.88,414.48,1087,414.18Z"/><ellipse class="cls-11" cx="1031.51" cy="362.96" rx="50.75" ry="53.44" transform="translate(-39.92 144.36) rotate(-7.85)"/><path class="cls-13" d="M1020.74,400.3a91.68,91.68,0,0,1-25,.06c10.94,11.54,26.65,17.81,43.06,15.54,27.53-3.79,46.67-30.19,43-59.14C1074.68,378.25,1050.93,396.13,1020.74,400.3Z"/><path class="cls-7" d="M982.7,347.47a55.4,55.4,0,0,0-1.46,22.43,56,56,0,0,0,2.44,10.39c8.1,23.89,35.25,34.88,56,22.49,29.23-17.45,14.81-61.09,14.81-61.09C1020,354.33,995.72,351.29,982.7,347.47Z"/><path class="cls-10" d="M992.62,374.72c-4.25-30.79,16-59,45.26-63.06a52.17,52.17,0,0,1,5.41-.46,48.52,48.52,0,0,0-19.08-1.18c-27.77,3.83-47,30.64-43,59.88,2.84,20.61,16.5,36.91,34,43.41A57.54,57.54,0,0,1,992.62,374.72Z"/><ellipse class="cls-42" cx="999.02" cy="329.75" rx="9.17" ry="3.97" transform="translate(77.09 836.54) rotate(-47.06)"/><path class="cls-8" d="M1019.39,503.38l-32.73-2.12a5.29,5.29,0,0,1-4.94-5.62h0a5.29,5.29,0,0,1,5.62-4.94l32.73,2.12a5.29,5.29,0,0,1,4.94,5.62h0A5.29,5.29,0,0,1,1019.39,503.38Z"/><path class="cls-7" d="M981.73,495.58s0,0,0,.06a5.29,5.29,0,0,0,4.94,5.62l32.73,2.12a5.29,5.29,0,0,0,5.62-4.94v-.06Z"/><circle class="cls-7" cx="1019.73" cy="498.1" r="5.29" transform="translate(-115.1 509.14) rotate(-26.59)"/><path class="cls-8" d="M1023,498.31a3.31,3.31,0,1,1-3.09-3.51A3.3,3.3,0,0,1,1023,498.31Z"/><path class="cls-43" d="M1004.21,485s-8.13-.1-12.41,11.24c-.85,2.27-.06,6.82,1.63,7.44,7.52,2.77,16.86-2.87,13.79-6.38-1.18-1.35,2.61-5.13,13.06-4.46,1.74.11-1.28-4.14-5.58-5.27C1010.58,486.48,1004.21,485,1004.21,485Z"/></g></g></svg>