<svg xmlns="http://www.w3.org/2000/svg" xmlns:xlink="http://www.w3.org/1999/xlink" viewBox="0 0 685 588"><defs><style>.cls-1{mask:url(#mask);filter:url(#luminosity-noclip-2);}.cls-13,.cls-15,.cls-2,.cls-24,.cls-29,.cls-32,.cls-38,.cls-39,.cls-41,.cls-9{mix-blend-mode:multiply;}.cls-2{fill:url(#linear-gradient);}.cls-3{isolation:isolate;}.cls-4{fill:#3a2b2c;}.cls-5{fill:#30080b;}.cls-6{fill:#770e12;}.cls-38,.cls-7{fill:#414042;}.cls-39,.cls-8{fill:#808285;}.cls-19,.cls-9{fill:#939598;}.cls-10,.cls-33,.cls-42{fill:#fff;}.cls-10{opacity:0.5;}.cls-11{fill:#ed1c24;}.cls-12{fill:#f15a29;}.cls-13,.cls-16{fill:#d1d3d4;}.cls-14{fill:#be1e2d;}.cls-17,.cls-32{fill:#bcbec0;}.cls-18{fill:#58595b;}.cls-20{fill:#231f20;}.cls-21{fill:url(#linear-gradient-2);}.cls-22{fill:url(#linear-gradient-3);}.cls-23{fill:url(#linear-gradient-4);}.cls-25{fill:#f4777c;}.cls-26{fill:url(#linear-gradient-5);}.cls-27{fill:url(#linear-gradient-6);}.cls-28{fill:url(#linear-gradient-7);}.cls-29,.cls-40{fill:#a7a9ac;}.cls-30{mask:url(#mask-2);}.cls-31{opacity:0.8;fill:url(#linear-gradient-8);}.cls-34{fill:#c2b59b;}.cls-35{fill:#b2151b;}.cls-36,.cls-41{fill:#f8a4a7;}.cls-37{fill:#e6e7e8;}.cls-42{opacity:0.7;}.cls-43{fill:#fbb09e;}.cls-44{filter:url(#luminosity-noclip);}</style><filter id="luminosity-noclip" x="286.82" y="-8407" width="71.07" height="32766" filterUnits="userSpaceOnUse" color-interpolation-filters="sRGB"><feFlood flood-color="#fff" result="bg"/><feBlend in="SourceGraphic" in2="bg"/></filter><mask id="mask" x="286.82" y="-8407" width="71.07" height="32766" maskUnits="userSpaceOnUse"><g class="cls-44"/></mask><linearGradient id="linear-gradient" x1="283" y1="447.05" x2="299.01" y2="463.06" gradientTransform="translate(-34.94 -64.8) rotate(-7.85)" gradientUnits="userSpaceOnUse"><stop offset="0" stop-color="#fff"/><stop offset="0.09" stop-color="#dcdcdc"/><stop offset="0.29" stop-color="#9a9a9a"/><stop offset="0.47" stop-color="#636363"/><stop offset="0.63" stop-color="#383838"/><stop offset="0.78" stop-color="#191919"/><stop offset="0.91" stop-color="#070707"/><stop offset="1"/></linearGradient><linearGradient id="linear-gradient-2" x1="507.36" y1="592.33" x2="507.36" y2="539.21" gradientTransform="translate(-34.94 -64.8) rotate(-7.85)" gradientUnits="userSpaceOnUse"><stop offset="0" stop-color="#e6e7e8"/><stop offset="1"/></linearGradient><linearGradient id="linear-gradient-3" x1="508.44" y1="573.89" x2="508.44" y2="557.95" gradientTransform="translate(-34.94 -64.8) rotate(-7.85)" gradientUnits="userSpaceOnUse"><stop offset="0"/><stop offset="1" stop-color="#e6e7e8"/></linearGradient><linearGradient id="linear-gradient-4" x1="509.81" y1="571.71" x2="509.81" y2="560.22" xlink:href="#linear-gradient-2"/><linearGradient id="linear-gradient-5" x1="260.76" y1="607.1" x2="260.76" y2="553.98" xlink:href="#linear-gradient-2"/><linearGradient id="linear-gradient-6" x1="261.84" y1="588.65" x2="261.84" y2="572.72" xlink:href="#linear-gradient-3"/><linearGradient id="linear-gradient-7" x1="263.21" y1="586.47" x2="263.21" y2="574.99" xlink:href="#linear-gradient-2"/><filter id="luminosity-noclip-2" x="286.82" y="308.91" width="71.07" height="85" filterUnits="userSpaceOnUse" color-interpolation-filters="sRGB"><feFlood flood-color="#fff" result="bg"/><feBlend in="SourceGraphic" in2="bg"/></filter><mask id="mask-2" x="286.82" y="308.91" width="71.07" height="85" maskUnits="userSpaceOnUse"><g class="cls-1"><path class="cls-2" d="M334.59,312.74a5.77,5.77,0,0,0-2.42,1c-31.72,22.38-41.61,54.94-44.85,72.67a32.24,32.24,0,0,0-.46,7.52c6.52-.89,7.16-4.13,7.32-5,3.42-18.68,13.83-53,47.22-76.52a6.12,6.12,0,0,1,2.56-1l13.89-2.28c0-.11,0-.17,0-.17Z"/></g></mask><linearGradient id="linear-gradient-8" x1="283" y1="447.05" x2="299.01" y2="463.06" gradientTransform="translate(-34.94 -64.8) rotate(-7.85)" gradientUnits="userSpaceOnUse"><stop offset="0" stop-color="#fff"/><stop offset="1" stop-color="#fff"/></linearGradient></defs><g class="cls-3"><g id="bike_5" data-name="bike 5"><path class="cls-4" d="M270.47,528.59l323-76.51a2.54,2.54,0,0,0,1.69-3.15h0a2.54,2.54,0,0,0-2.93-2.05l-323,76.51a2.54,2.54,0,0,0-1.69,3.15h0A2.52,2.52,0,0,0,270.47,528.59Z"/><path d="M523.93,297l-43.74,6a35.56,35.56,0,0,0-27.93,21.48L446.18,339a3.06,3.06,0,0,0,1.34,3.93,2.88,2.88,0,0,0,1.69.27,2.91,2.91,0,0,0,2.3-1.77l6.15-14.68A29.71,29.71,0,0,1,481,308.83l.95-.13a3,3,0,0,1,3.39,2.57l1.22,8.85a3,3,0,0,0,2.83,2.68,2.92,2.92,0,0,0,3-3.33l-.57-4.09a8,8,0,0,1,6.8-9l26-3.58a3,3,0,0,0,2.68-2.83A2.94,2.94,0,0,0,523.93,297Z"/><path class="cls-5" d="M458.31,308.36s4.27,29.74-19.9,33.19l-63,13-4.86,79.68-48.58,7L350,424.8l-.57-90.7,67.29-20Z"/><path class="cls-6" d="M503.5,337.77c-1.92,8.06-23.31,16.47-44,72.89-5.85,15.93-73.47,46.5-90.8,49.34-9,1.48-38.35-25.29-27.71-27,3.3-.54,40.87-5.1,50.31-8.93,10.89-4.43,12.73-17.41,16.24-31.32,13.1-52,64.15-71.76,96.44-74.31A48.63,48.63,0,0,1,503.5,337.77Z"/><path d="M517.2,341.52c-1.92,8.06-23.3,16.47-44,72.89-5.85,15.93-73.47,46.5-90.8,49.34-9,1.48-38.35-25.28-27.71-27,3.3-.54,34.54-7.28,44-11.11,10.89-4.43,19.06-15.23,22.56-29.14,13.1-52,64.15-71.76,96.44-74.31A48.45,48.45,0,0,1,517.2,341.52Z"/><path class="cls-7" d="M556.94,338.14l-129.11,21.2a6.64,6.64,0,0,1-7.62-5.47s-6.17-23.05,31.9-29.3l20.66-3.4a70.72,70.72,0,0,0,21.65-7.29l17.81-9.43a25.79,25.79,0,0,1,7.82-2.63l20.34-3.34a9.9,9.9,0,0,1,11.38,8.17Z"/><path class="cls-8" d="M541.41,298.37a8.83,8.83,0,0,0-1,.11l-20,3.28a28,28,0,0,0-8.53,2.87l-17.15,9.08a73,73,0,0,1-22.35,7.52l-20.29,3.34c-38.07,6.25-31.9,29.3-31.9,29.3a6.6,6.6,0,0,0,1.76,3.52,2.31,2.31,0,0,0,3.84-2.32v0a4.91,4.91,0,0,1,3.33-6l5.44-1.69a22.62,22.62,0,0,0,11.72-8.45l1-1.43A21.76,21.76,0,0,1,461,328.74c1.09-.2,2.21-.39,3.36-.58l20.66-3.4a66.31,66.31,0,0,0,21.61-7.57l17.72-9.93a23.86,23.86,0,0,1,7.81-2.74l9.64-1.58C544.61,302.48,544.25,298.2,541.41,298.37Z"/><path class="cls-9" d="M481,319.32a69.12,69.12,0,0,1-8.18,1.85l-20.66,3.4c-38.07,6.25-31.9,29.3-31.9,29.3a6.64,6.64,0,0,0,7.62,5.47l33.79-5.55C471.22,344.22,478.3,332.59,481,319.32Z"/><rect x="477.1" y="289.49" width="76.32" height="10.61" transform="translate(-35.45 73.18) rotate(-7.85)"/><path class="cls-6" d="M447.71,171.54H564.07a0,0,0,0,1,0,0V298.21a0,0,0,0,1,0,0h-126a6.6,6.6,0,0,1-6.6-6.6V187.75a16.21,16.21,0,0,1,16.21-16.21Z" transform="matrix(0.99, -0.14, 0.14, 0.99, -27.43, 70.23)"/><path class="cls-10" d="M442.8,177.24h79.55a0,0,0,0,1,0,0v14.08a0,0,0,0,1,0,0H428.72a0,0,0,0,1,0,0v0A14.08,14.08,0,0,1,442.8,177.24Z" transform="translate(-20.72 66.71) rotate(-7.85)"/><path class="cls-11" d="M594.74,285.44l-65.19,9a6.6,6.6,0,0,1-7.44-5.64L507.92,185.91a16.2,16.2,0,0,1,13.84-18.27l37.69-5.2c27.21-3.75,38.8,80,44.37,110.45A10.72,10.72,0,0,1,594.74,285.44Z"/><path d="M587.58,195.84,428.52,217.78a1.46,1.46,0,0,1-.4-2.9l159.06-21.94a1.46,1.46,0,1,1,.4,2.9Z"/><path class="cls-9" d="M490.6,171.94l-51.07,7a16.2,16.2,0,0,0-13.84,18.27l14.19,102.89a6.6,6.6,0,0,0,7.44,5.63l50.28-6.93c7.1-32.63,1.08-80.92-17.87-96.51C492.92,199.62,496.89,180.28,490.6,171.94Z"/><path class="cls-12" d="M331.55,298.19l63.8-9.87c31.9-4.4,2.42-87.73-5.94-71.86-10.92,20.75-6,50.09-6,50.09-10.88,12.45-55.79,24.69-55.79,24.69Z"/><path class="cls-13" d="M389.41,216.46a58.19,58.19,0,0,0-5.27,15.25c30.38,58-17.55,51.14-28.4,50.24-14.2,5.5-28.08,9.29-28.08,9.29l3.89,6.95,63.8-9.87C427.25,283.92,397.77,200.59,389.41,216.46Z"/><path class="cls-14" d="M477.39,305.73s4.24,29.74-16.58,32.73l-50.45,11.25-6.44,79.9-41.84,6L386,419.84l-1.8-87.61,51.87-20.81Z"/><polygon points="386.02 419.84 362.08 435.63 403.92 429.61 404.31 424.72 386.02 419.84"/><g class="cls-15"><path class="cls-16" d="M458.19,308.37c-1.38,6.35-4.92,11.56-9.44,16-18.06,13.34-41.84,22.33-64.29,19.55L386,419.84l-23.94,15.79,41.84-6,6.44-79.9,50.45-11.25c20.82-3,16.58-32.73,16.58-32.73Z"/></g><g class="cls-15"><path class="cls-17" d="M477.39,305.73l-41.3,5.69-13.16,5.28c18.33-1.75,36.74-1.16,54.17,3.19A52.23,52.23,0,0,0,477.39,305.73Z"/></g><path d="M543,400.91c-.32,0-.63.14-1,.2,5.9,4,10,11.19,10.34,19.77.59,13.42-8,25.33-19.44,27.66a19.51,19.51,0,0,0,13.88,3.24c12-1.74,21.2-14,20.58-27.89C566.76,409.47,555.8,398.94,543,400.91Z"/><path class="cls-18" d="M543.24,449.37a.69.69,0,0,1-.77-.58l-2.06-14.93a.69.69,0,0,1,1.36-.19l2.06,14.93A.68.68,0,0,1,543.24,449.37Z"/><path class="cls-18" d="M553.21,443.68a.67.67,0,0,1-.64-.26l-8.51-11.25a.67.67,0,0,1,.13-.95.69.69,0,0,1,1,.13l8.51,11.24a.68.68,0,0,1-.45,1.09Z"/><path class="cls-18" d="M559.65,433.34a.58.58,0,0,1-.32,0l-12.68-4.55a.68.68,0,1,1,.46-1.29L559.79,432a.68.68,0,0,1-.14,1.32Z"/><path class="cls-18" d="M547.39,424.48a.68.68,0,0,1-.26-1.34l13.45-3.36a.66.66,0,0,1,.83.49.68.68,0,0,1-.49.83l-13.46,3.37Z"/><path class="cls-18" d="M545.85,420.66a.67.67,0,0,1-.58-.2.68.68,0,0,1,0-1l10.62-10.37a.67.67,0,0,1,1,0,.68.68,0,0,1,0,1l-10.62,10.37A.66.66,0,0,1,545.85,420.66Z"/><path class="cls-18" d="M542.76,418.36a.87.87,0,0,1-.32,0,.69.69,0,0,1-.43-.87l5-14.61a.68.68,0,1,1,1.29.44l-4.94,14.61A.71.71,0,0,1,542.76,418.36Z"/><path class="cls-18" d="M538.94,418.18a.68.68,0,0,1-.77-.58l-2.06-14.93a.69.69,0,0,1,1.36-.18l2.06,14.92A.68.68,0,0,1,538.94,418.18Z"/><path class="cls-18" d="M535.43,420.19a.68.68,0,0,1-.64-.27l-8.51-11.24a.69.69,0,0,1,.13-1,.7.7,0,0,1,1,.14l8.51,11.24a.69.69,0,0,1-.13,1A.8.8,0,0,1,535.43,420.19Z"/><path class="cls-18" d="M533.16,423.84a.75.75,0,0,1-.33,0l-12.68-4.55a.68.68,0,1,1,.46-1.28l12.68,4.55a.68.68,0,0,1,.42.87A.7.7,0,0,1,533.16,423.84Z"/><path class="cls-18" d="M519.28,431.52a.69.69,0,0,1-.75-.52.68.68,0,0,1,.49-.83l13.46-3.36a.66.66,0,0,1,.82.49.68.68,0,0,1-.49.83l-13.45,3.37Z"/><path class="cls-18" d="M523.66,442.35a.68.68,0,0,1-.57-1.17l10.62-10.38a.68.68,0,0,1,.95,1L524,442.16A.72.72,0,0,1,523.66,442.35Z"/><path class="cls-18" d="M532.43,448.88a.6.6,0,0,1-.32,0,.68.68,0,0,1-.42-.86l4.94-14.61a.69.69,0,0,1,.87-.43.67.67,0,0,1,.42.86L533,448.42A.65.65,0,0,1,532.43,448.88Z"/><g class="cls-15"><path class="cls-19" d="M547.82,402.42a.69.69,0,0,0-.86.43l-2,5.79h0c.5-.07,1-.09,1.48-.12l1.77-5.23A.69.69,0,0,0,547.82,402.42Zm-21.41,5.3a.69.69,0,0,0-.13,1l5.26,6.95c.32-.33.63-.67,1-1l-5.14-6.79A.7.7,0,0,0,526.41,407.72Zm30.45,1.41a.67.67,0,0,0-1,0l-.55.53c.48.17,1,.32,1.43.51l.07-.06A.68.68,0,0,0,556.86,409.13Zm-20.17-7.23a.69.69,0,0,0-.58.77l1.18,8.54c.42-.23.85-.46,1.29-.66l-1.11-8.06A.69.69,0,0,0,536.69,401.9Zm-13.6,39.28a.68.68,0,0,0,.57,1.17.72.72,0,0,0,.38-.19l1.44-1.41c-.13-.51-.26-1-.37-1.55ZM518.53,431a.69.69,0,0,0,.75.52l.07,0,5.38-1.35c.06-.49.15-1,.23-1.46L519,430.17A.68.68,0,0,0,518.53,431Zm1.21-12.62a.68.68,0,0,0,.41.87l7.09,2.55c.21-.41.41-.83.63-1.23l-7.26-2.6A.67.67,0,0,0,519.74,418.38Z"/></g><path d="M541.64,414.08c-6.19.95-10.58,7.4-9.86,14.17.69,6.51,5.89,10.94,11.67,10.1s10.28-6.71,10-13.33C553.15,418.14,547.85,413.13,541.64,414.08Z"/><path class="cls-20" d="M543.44,386.07l-1.68-.32c-20.51-3.94-37.41,6.61-44.26,30,0,0-10.31,35.3,29.47,47.09l1.68.32a37.81,37.81,0,0,0,44.26-30l.54-2.83A37.81,37.81,0,0,0,543.44,386.07Zm23.95,37.82c.62,13.87-8.62,26.15-20.58,27.89s-22.67-7.56-24.13-21.22c-1.51-14.19,7.53-27.7,20.3-29.65S566.76,409.47,567.39,423.89Z"/><path class="cls-7" d="M523,432.38c-.11-.6-.21-1.2-.28-1.82-1.51-14.19,7.53-27.7,20.3-29.65a19.58,19.58,0,0,1,15.43,4.2,67.5,67.5,0,0,0,4.46-8.82,37.56,37.56,0,0,0-19.43-10.22l-1.68-.32c-20.51-3.94-37.41,6.61-44.26,30a41.68,41.68,0,0,0,.12,20.29A62.06,62.06,0,0,0,523,432.38Z"/><path class="cls-20" d="M540.43,385.55c-19.11-3.1-34.91,6.54-42.06,27.59C517.6,415,536,403,540.43,385.55Z"/><path d="M548.56,389.65c-17.39-3.33-34.58,10.1-38.4,30s7.18,38.74,24.58,42.08,34.58-10.1,38.4-30S566,393,548.56,389.65Zm18.83,34.24c.62,13.87-8.62,26.15-20.58,27.89s-22.67-7.56-24.13-21.22c-1.51-14.19,7.53-27.7,20.3-29.65S566.76,409.47,567.39,423.89Z"/><path class="cls-21" d="M542.89,399.81c-13.32,2-22.75,16.13-21.17,30.93,1.52,14.25,12.75,23.95,25.17,22.14s22.11-14.62,21.47-29.09C567.7,408.74,556.26,397.76,542.89,399.81Zm3.85,51c-11.44,1.66-21.75-7.28-23.11-20.38-1.42-13.58,7.25-26.45,19.44-28.31s22.72,8.15,23.36,21.92C567.05,437.37,558.21,449.16,546.74,450.84Z"/><path class="cls-22" d="M553.07,425.38c.29,4.38-2.59,8.35-6.42,8.91s-7.22-2.46-7.59-6.82,2.48-8.51,6.39-9.1S552.78,420.94,553.07,425.38Z"/><path class="cls-23" d="M552.48,425.48c.21,3.16-1.86,6-4.63,6.45s-5.21-1.79-5.47-4.94,1.79-6.12,4.61-6.54S552.26,422.29,552.48,425.48Z"/><path d="M301.77,407.52l-3.37,17.27-4.16,21.29,1.11.21-.56,2.9-3,15.23a6.85,6.85,0,0,0-.65,13.43l.84.21a6.73,6.73,0,0,0,3.54-.1h0a5.26,5.26,0,0,0,.6-.19,6.31,6.31,0,0,0,3.58-3.27.83.83,0,0,0,.09-.16c.11-.24.19-.51.28-.77a4.4,4.4,0,0,0,.18-.51,4.34,4.34,0,0,0,.07-.52,5.79,5.79,0,0,0,.12-.82v-.18a6.38,6.38,0,0,0-1.64-4.57l-.44-.44,0,0a7,7,0,0,0-.66-.56l3-15.58.56-2.89,1.11.22,4.86-24.89L310,409.12Z"/><path d="M261.44,425.15a4.49,4.49,0,0,0,.4.57,1.71,1.71,0,0,0,.13.23c.22.33,15.94,22.35,37.77,20.52.34,0,3.07-.25,4.09-.42h0l23.9-3.92C323.9,416.73,250.76,402.16,261.44,425.15Z"/><path class="cls-24" d="M519.89,370.09c22.6-3.71,46,8.3,55.16,28.27a7.11,7.11,0,0,0,7.61,4.11l8.42-1.38c-7.09-32.69-48.89-52.74-82.56-47.21s-56.85,36.26-53.12,69.49l23.26-3.82A49.21,49.21,0,0,1,519.89,370.09Z"/><path class="cls-20" d="M529.9,368.44a49.23,49.23,0,0,1,52.72,28.08,7.9,7.9,0,0,0,8.46,4.57h0c-7.09-32.69-38.88-54.38-72.55-48.85s-56.85,36.25-53.12,69.49l23.26-3.82A49.22,49.22,0,0,1,529.9,368.44Z"/><path d="M352.21,274.25l-27,4.44,5.13,31.24,3.5-.58,1.71,10.39,26.27-4.31L360.09,305l20-3.29a4.3,4.3,0,0,0,3.55-4.94A27.36,27.36,0,0,0,352.21,274.25Z"/><path class="cls-25" d="M383.52,463.57c-9.39,1.54-43.64,7.22-57,9.39a5.78,5.78,0,0,1-6.49-4.14c-4.75-16.8-20.56-45.72-29-60.53a32.47,32.47,0,0,1-3.74-21.9c3.24-17.73,13.13-50.29,44.85-72.67a5.77,5.77,0,0,1,2.42-1l23.3-3.83S347.41,363,347.25,369.07C346.63,394.24,400,460.86,383.52,463.57Z"/><path class="cls-24" d="M291,408.23l0,.07c8.44,14.81,24.24,43.72,29,60.52a5.79,5.79,0,0,0,6.49,4.14c13.34-2.17,47.59-7.85,57-9.39,11.05-1.82-14.4-35.79-35.55-61.58l-49.16-6.87S289.21,399.64,291,408.23Z"/><path d="M547.18,412.94l-.29,0c-17-14.45-49.15-25.28-64.95-22.68l-4.31,12.27,3.48,21.22L317.66,450.63a15.67,15.67,0,0,0-12.93,18l-1.34,5.26c62.36-5.86,53.26,2.21,61.81.81l98.22-23.34a48.45,48.45,0,0,1,19.51-.82c22.14,3.87,80.18-13.09,82.26-24.68A15.67,15.67,0,0,0,547.18,412.94Z"/><path class="cls-11" d="M513.86,441a14.2,14.2,0,0,1,11.71-16.32l33.84-5.55a13,13,0,0,0-11.31-3.61l-29.82,4.89a13.09,13.09,0,0,0-3.76,24.61Z"/><path class="cls-11" d="M569.89,332.87c-2.31,8.12,22.18,11.42-14.73,17.48l-.74.12c-12,2-39.68,8.6-64,65.61-6.86,16.1-54.43,38.87-73.89,42.06-7.81,1.28-25.06,4.15-37.26,6.16a14.17,14.17,0,0,1-16-10.22c-15.07-55.93-64.47-59-64.47-59,.58-2.66,1-46.6,47.59-84.32l12.71-2.09a5.09,5.09,0,0,1,5.64,6.71c-4.71,13.38-13.25,39.85-12.14,52.84,0,0,21.51,65.27,33.45,63.3,3.7-.61,38.81-8,49.46-12,12.28-4.65,21.64-15.65,25.83-29.67,15.7-52.43,64.51-73.77,89.73-84.56a21,21,0,0,1,4.69-1.34c6-1,13.53.42,15,9.46A44,44,0,0,1,569.89,332.87Z"/><path class="cls-25" d="M555.77,304a20.85,20.85,0,0,0-4.69,1.34c-25.22,10.79-74,32.13-89.73,84.56-4.19,14-13.55,25-25.83,29.67-10.65,4-45.75,11.4-49.46,12-1,.17,28.64.25,57.12-8.79,13.31-4.23,23.19-15.91,27.81-30,17.26-52.68,69.44-74.57,96.41-85.65l.38-.14C564.67,303.75,559.88,303.31,555.77,304Z"/><path class="cls-25" d="M522.87,358.88c19.4-13.18,40.9-18.07,50-19.64-1.43-1.45-2.89-3-3.07-4.89C559.06,337.05,535.26,344.44,522.87,358.88Z"/><path class="cls-20" d="M301.17,434.4l-1.68-.33c-20.51-3.93-37.41,6.62-44.25,30,0,0-10.32,35.3,29.46,47.1l1.68.32a37.83,37.83,0,0,0,44.26-30l.54-2.84A37.79,37.79,0,0,0,301.17,434.4Zm24,37.82c.61,13.87-8.63,26.15-20.58,27.89s-22.68-7.57-24.14-21.22c-1.51-14.2,7.53-27.7,20.3-29.66S324.49,457.79,325.13,472.22Z"/><path class="cls-7" d="M280.69,480.71c-.1-.6-.21-1.2-.28-1.82-1.51-14.2,7.53-27.7,20.3-29.66a19.61,19.61,0,0,1,15.43,4.2,66.88,66.88,0,0,0,4.46-8.82,37.58,37.58,0,0,0-19.43-10.21l-1.68-.33c-20.51-3.93-37.41,6.62-44.25,30a41.68,41.68,0,0,0,.12,20.29A61.84,61.84,0,0,0,280.69,480.71Z"/><path class="cls-8" d="M279.22,435.33c-10.08,3.65-18.11,12.13-22.78,25.1a80.07,80.07,0,0,0,28,.22c3.65-6,9.4-10.37,16.23-11.42.18,0,.36,0,.54-.05a13.93,13.93,0,0,0-.68-1.64C296,439.05,287.68,435.46,279.22,435.33Z"/><path d="M300.71,449.23c-.32,0-.63.14-.95.21,5.91,4,10,11.18,10.34,19.77.59,13.42-8.05,25.32-19.44,27.66a19.58,19.58,0,0,0,13.89,3.24c11.95-1.74,21.19-14,20.58-27.89C324.49,457.79,313.53,447.27,300.71,449.23Z"/><path class="cls-18" d="M301,497.7a.68.68,0,0,1-.77-.59l-2.06-14.92a.68.68,0,0,1,1.35-.19l2.06,14.93A.69.69,0,0,1,301,497.7Z"/><path class="cls-18" d="M310.94,492a.68.68,0,0,1-.64-.27l-8.51-11.24a.69.69,0,0,1,.13-1,.69.69,0,0,1,1,.13l8.51,11.25a.69.69,0,0,1-.13,1A.8.8,0,0,1,310.94,492Z"/><path class="cls-18" d="M317.38,481.67a.72.72,0,0,1-.32,0l-12.68-4.55a.68.68,0,1,1,.46-1.28l12.68,4.55a.67.67,0,0,1,.41.87A.69.69,0,0,1,317.38,481.67Z"/><path class="cls-18" d="M305.12,472.81a.68.68,0,0,1-.26-1.34l13.46-3.37a.68.68,0,0,1,.83.5.69.69,0,0,1-.5.83l-13.45,3.36Z"/><path class="cls-18" d="M303.58,469a.69.69,0,0,1-.57-1.17l10.62-10.38a.69.69,0,0,1,1,1L304,468.8A.75.75,0,0,1,303.58,469Z"/><path class="cls-18" d="M300.49,466.68a.55.55,0,0,1-.31,0,.68.68,0,0,1-.43-.86l4.94-14.61a.68.68,0,0,1,1.3.43L301,466.22A.65.65,0,0,1,300.49,466.68Z"/><path class="cls-18" d="M296.67,466.51a.69.69,0,0,1-.77-.59L293.84,451a.69.69,0,0,1,1.36-.19l2.06,14.93A.69.69,0,0,1,296.67,466.51Z"/><path class="cls-18" d="M293.16,468.52a.68.68,0,0,1-.64-.27L284,457a.69.69,0,0,1,.13-1,.69.69,0,0,1,1,.13l8.51,11.24a.68.68,0,0,1-.13,1A.7.7,0,0,1,293.16,468.52Z"/><path class="cls-18" d="M290.89,472.16a.62.62,0,0,1-.33,0l-12.68-4.55a.69.69,0,0,1,.47-1.29L291,470.84a.68.68,0,0,1-.14,1.32Z"/><path class="cls-18" d="M277,479.84a.67.67,0,0,1-.75-.51.68.68,0,0,1,.5-.83l13.45-3.37a.67.67,0,0,1,.83.5.68.68,0,0,1-.5.83l-13.45,3.37Z"/><path class="cls-18" d="M281.39,490.67a.68.68,0,0,1-.57-1.16l10.62-10.38a.68.68,0,0,1,1,0,.69.69,0,0,1,0,1l-10.62,10.37A.63.63,0,0,1,281.39,490.67Z"/><path class="cls-18" d="M290.16,497.21a.82.82,0,0,1-.31,0,.69.69,0,0,1-.43-.87l4.94-14.61a.69.69,0,0,1,.87-.43.69.69,0,0,1,.43.87l-5,14.61A.68.68,0,0,1,290.16,497.21Z"/><g class="cls-15"><path class="cls-19" d="M305.56,450.75a.69.69,0,0,0-.87.43l-2,5.79h0c.5-.07,1-.09,1.49-.13l1.77-5.23A.69.69,0,0,0,305.56,450.75Zm-21.42,5.3a.69.69,0,0,0-.13,1l5.26,6.95c.32-.33.64-.67,1-1l-5.14-6.79A.69.69,0,0,0,284.14,456.05Zm30.46,1.4a.69.69,0,0,0-1,0l-.55.54c.48.16,1,.32,1.44.51l.07-.07A.69.69,0,0,0,314.6,457.45Zm-20.17-7.22a.68.68,0,0,0-.59.77l1.18,8.53c.43-.23.85-.45,1.29-.65l-1.11-8.07A.69.69,0,0,0,294.43,450.23Zm-13.61,39.28a.68.68,0,0,0,.57,1.16.63.63,0,0,0,.38-.19l1.45-1.4c-.14-.51-.27-1-.38-1.55Zm-4.56-10.18a.67.67,0,0,0,.75.51h.08l5.37-1.35c.06-.49.15-1,.24-1.47l-5.94,1.49A.68.68,0,0,0,276.26,479.33Zm1.21-12.62a.68.68,0,0,0,.41.87l7.1,2.54c.2-.41.4-.82.62-1.22l-7.25-2.61A.69.69,0,0,0,277.47,466.71Z"/></g><path d="M299.37,462.41c-6.18.95-10.58,7.4-9.86,14.17.69,6.51,5.9,10.93,11.67,10.09s10.28-6.7,10-13.32C310.88,466.47,305.58,461.46,299.37,462.41Z"/><path d="M306.29,438c-17.39-3.34-34.58,10.1-38.4,30s7.19,38.75,24.58,42.08,34.58-10.09,38.4-30S323.69,441.31,306.29,438Zm18.84,34.24c.61,13.87-8.63,26.15-20.58,27.89s-22.68-7.57-24.14-21.22c-1.51-14.2,7.53-27.7,20.3-29.66S324.49,457.79,325.13,472.22Z"/><path class="cls-26" d="M300.63,448.14c-13.32,2-22.76,16.12-21.18,30.93C281,493.32,292.2,503,304.63,501.2s22.1-14.62,21.46-29.09C325.43,457.07,314,446.09,300.63,448.14Zm3.84,51c-11.43,1.67-21.75-7.27-23.11-20.37-1.41-13.58,7.25-26.45,19.44-28.32s22.72,8.15,23.36,21.93C324.78,485.69,315.94,497.49,304.47,499.16Z"/><path class="cls-27" d="M310.8,473.7c.29,4.38-2.59,8.35-6.42,8.92s-7.21-2.47-7.59-6.82,2.48-8.51,6.39-9.1S310.51,469.27,310.8,473.7Z"/><path class="cls-28" d="M310.21,473.81c.21,3.16-1.86,6-4.63,6.44s-5.21-1.79-5.47-4.93,1.8-6.12,4.61-6.54S310,470.62,310.21,473.81Z"/><path class="cls-29" d="M364.75,315.42a5.09,5.09,0,0,0-5.64-6.71l-1.22.2h0l-23.3,3.83a5.77,5.77,0,0,0-2.42,1,105.9,105.9,0,0,0-10.84,8.77c12,6.07,25.43,7.53,38.9,6.56C361.84,323.89,363.44,319.14,364.75,315.42Z"/><path class="cls-25" d="M303,373c8.36-1.17,24.78.37,27.39-5.61,8.31-19,21.58-33.19,16.4-35.85-2.6-1.34-15.48-.08-27.24-7.39-18.48,17.91-26.78,39.18-30.58,54.48C293.77,374,298,373.71,303,373Z"/><g class="cls-30"><path class="cls-31" d="M334.59,312.74a5.77,5.77,0,0,0-2.42,1c-31.72,22.38-41.61,54.94-44.85,72.67a32.24,32.24,0,0,0-.46,7.52c6.52-.89,7.16-4.13,7.32-5,3.42-18.68,13.83-53,47.22-76.52a6.12,6.12,0,0,1,2.56-1l13.89-2.28c0-.11,0-.17,0-.17Z"/></g><path class="cls-14" d="M480.93,312.47c.23,2.81-1,5.17-3.74,4.56-8.86-2-8.3-8.34-26.41-5.84L414.55,315a3.84,3.84,0,0,1-4.11-2.74c-11.64-40.3-21-95.76-21-95.76.87-5.6,13.67-16,41.27-19.84,5.91-.82,26.26-3.29,43.38,11.34Z"/><path class="cls-32" d="M446.42,196.73a35.59,35.59,0,0,0-15.84-.17c-11.94,2.6-31.47,9.15-29.36,24.47,2.81,20.34,16.69,33,24.89,38.65,6.19,4.25,5.71-7.75,10.1-21.6s9.69-30.23,24.23-33.29C464.33,204,454.08,198.54,446.42,196.73Z"/><path class="cls-12" d="M443.84,194.33a35.59,35.59,0,0,0-15.84-.17c-11.94,2.6-31.48,9.15-29.36,24.46,2.8,20.34,16.69,33,24.89,38.66,6.18,4.25,5.7-7.75,10.1-21.6s9.68-30.23,24.23-33.29C461.75,201.57,451.49,196.14,443.84,194.33Z"/><path class="cls-33" d="M434.82,199.29a23.31,23.31,0,0,0-10.7-.18c-8.05,1.79-21.22,6.31-19.74,17.08,2,14.29,11.4,23.26,17,27.24,4.2,3,2.89-6.08,5.8-15.79s5.85-20.74,15-25C444.59,201.53,440,200.6,434.82,199.29Z"/><path class="cls-13" d="M452.11,197.21a47.76,47.76,0,0,0-8.27-2.88,35.59,35.59,0,0,0-15.84-.17c-6.6,1.44-15.52,4.09-21.82,8.75-10.86,4.52-16.22,10-16.77,13.55,0,0,9.39,55.46,21,95.76a3.84,3.84,0,0,0,4.11,2.74l4.92-.51c-1-5.19-2.87-10.84.43-11.3,19.4-5.36,41.56,1.69,59.32-16.67L474.06,208A49.27,49.27,0,0,0,452.11,197.21Zm-14.29,85.12c-16.65,2.3-26.34,13.46-33.24-26.79-2.84-16.57,2.09-30.68,25.85-35.17,26.28-5,31.07,11,33.37,27.66A30.43,30.43,0,0,1,437.82,282.33Z"/><path class="cls-32" d="M401.84,213.82c21,5.53,48.62,5.67,64.34-11.34a50.53,50.53,0,0,0-14.07-5.27,47.76,47.76,0,0,0-8.27-2.88,35.59,35.59,0,0,0-15.84-.17c-6.6,1.44-15.52,4.09-21.82,8.75a51.41,51.41,0,0,0-10,5.36C397.59,211.58,399.56,214.13,401.84,213.82Z"/><path class="cls-20" d="M581.21,289.1l-43.74,6a35.57,35.57,0,0,0-27.93,21.48l-6.07,14.51a3.05,3.05,0,0,0,1.33,3.93,2.88,2.88,0,0,0,1.69.28,2.92,2.92,0,0,0,2.3-1.77l6.15-14.69a29.72,29.72,0,0,1,23.33-17.94l1-.13a3,3,0,0,1,3.39,2.57l1.22,8.85a3,3,0,0,0,2.83,2.68,2.93,2.93,0,0,0,3-3.33l-.56-4.09a8,8,0,0,1,6.8-9l26-3.58a3,3,0,0,0,2.68-2.83A2.92,2.92,0,0,0,581.21,289.1Z"/><path class="cls-7" d="M556.36,280h22.78a14.61,14.61,0,0,1,14.61,14.61v0a0,0,0,0,1,0,0h-52a0,0,0,0,1,0,0v0A14.61,14.61,0,0,1,556.36,280Z" transform="translate(-33.94 80.28) rotate(-7.85)"/><path class="cls-18" d="M558.56,279.72h22.78a14.61,14.61,0,0,1,14.61,14.61v0a0,0,0,0,1,0,0H544a0,0,0,0,1,0,0v0A14.61,14.61,0,0,1,558.56,279.72Z" transform="matrix(0.99, -0.14, 0.14, 0.99, -33.88, 80.58)"/><rect class="cls-34" x="307.71" y="434.86" width="6.09" height="39.28" transform="translate(92.84 -51.12) rotate(11.05)"/><rect class="cls-13" x="311.23" y="435.2" width="2.54" height="39.28" transform="translate(92.94 -51.45) rotate(11.05)"/><rect class="cls-13" x="309.77" y="435.06" width="6.09" height="17.72" transform="translate(90.85 -51.71) rotate(11.05)"/><rect class="cls-35" x="311.27" y="410.81" width="8.36" height="39.28" transform="translate(88.32 -52.46) rotate(11.05)"/><rect class="cls-13" x="316.1" y="411.28" width="3.48" height="39.28" transform="translate(88.45 -52.92) rotate(11.05)"/><path class="cls-29" d="M319,434.31,323.31,412l-8.2-1.6L311.47,429A17.84,17.84,0,0,1,319,434.31Z"/><path class="cls-25" d="M262.11,415.27c-2.43,1.93-3.48,5.12-1.93,7.81l.26.45c.33.55.66,1.09,1,1.62.13.2.27.38.39.57a5.83,5.83,0,0,1,4.11-8.69l2.71-.44c7.07-1.16,11.35,1.83,15.59,7.61,9.74,13.26,27.92,20.49,43.51,17.93a38.2,38.2,0,0,0,18.11-8.3C337.91,405.22,296.22,388.17,262.11,415.27Z"/><path class="cls-11" d="M289,419.34c3.68,16.4,25.49,25,40.29,22.54a33,33,0,0,0,16.62-8.05C324.53,392.42,286.56,408.69,289,419.34Z"/><ellipse class="cls-19" cx="328.66" cy="235.93" rx="6.16" ry="12.56" transform="translate(-29.16 47.12) rotate(-7.85)"/><path class="cls-11" d="M322.71,237.7c1.12,6.4,4.45,11.12,7.66,10.68,2.93-.41,4.8-5,4.61-10.66C327.05,241.26,326.42,238.76,322.71,237.7Z"/><path class="cls-36" d="M330.81,243.74c-2.82.39-5.58-1.12-7.6-3.78,1.43,5.21,4.34,8.81,7.16,8.42,2.2-.31,3.79-2.95,4.38-6.65A7,7,0,0,1,330.81,243.74Z"/><path class="cls-17" d="M329.21,229.53c.28,0,4,.51,4.28.48-1.55-4.16-4.08-6.86-6.55-6.52-3,.42-4.93,5.32-4.57,11.33C326.16,235.57,325.08,230.1,329.21,229.53Z"/><path class="cls-37" d="M329.81,226.37a5.74,5.74,0,0,1,1.85,0c-1.4-2-3.07-3.15-4.72-2.92-3.37.46-5.33,6.41-4.38,13.29C322.64,237.36,322.66,227.33,329.81,226.37Z"/><path class="cls-33" d="M334.43,233.79v-.06c-1.08-3.89-2.68-.55-4-.78-4.25-.76-4.69,1.42-7.15,4.75-.12.15,0,.3.2.27,3.55-.48,2.3-1.49,4.92-2.38a21.52,21.52,0,0,1,4.7-.82C333.68,234.73,334.56,234.39,334.43,233.79Z"/><path d="M325.42,237.53c.18,1.34-.33,2.52-1.15,2.63s-1.62-.88-1.81-2.22.33-2.52,1.14-2.64S325.23,236.19,325.42,237.53Z"/><path class="cls-38" d="M323,239c3.79,1.48,6.29,1.26,12,.06a24.5,24.5,0,0,0-.23-3.95c0-.29-4.54.12-6.62.89-1.71.63-1,1.52-5.51,1.24C322.72,237.82,322.83,238.41,323,239Z"/><path d="M333.54,280.24c.09.65-1,1.35-2.47,1.55s-2.71-.17-2.8-.83,1-1.35,2.47-1.55S333.44,279.58,333.54,280.24Z"/><path class="cls-39" d="M326.94,223.49a2.93,2.93,0,0,0-.91.29c3.05.51,6,5.35,6.86,11.57s-.67,11.67-3.47,13a3.38,3.38,0,0,0,.95,0c3.37-.47,5.34-6.42,4.39-13.29S330.31,223,326.94,223.49Z"/><path class="cls-18" d="M330.87,281a1.12,1.12,0,0,1-1.27-1l-.33-2.42a15.68,15.68,0,0,0-2.35-6.33l-16.27-25.17a5.4,5.4,0,0,1,3.79-8.27l8.58-1.18a1.13,1.13,0,0,1,.31,2.23l-8.58,1.18a3.15,3.15,0,0,0-2.21,4.82l16.27,25.17a18.11,18.11,0,0,1,2.69,7.24l.33,2.42A1.12,1.12,0,0,1,330.87,281Z"/><path class="cls-16" d="M323.69,262.19l-11.15-17.25a3.15,3.15,0,0,1,2.21-4.82l8.58-1.18a1.13,1.13,0,0,0,1-1.27,1.25,1.25,0,0,0-.19-.46,1.41,1.41,0,0,0-.21,0l-8.57,1.18a5.39,5.39,0,0,0-3.79,8.27l10.29,15.92A4.24,4.24,0,0,0,323.69,262.19Z"/><path class="cls-36" d="M328.81,270.11l-5.12-7.92a4.24,4.24,0,0,1-1.87.38l6,9.25a15.81,15.81,0,0,1,2.34,6.33l.34,2.42a1.08,1.08,0,0,0,.18.46,1.48,1.48,0,0,0,.21,0,1.12,1.12,0,0,0,1-1.27l-.33-2.42A18.11,18.11,0,0,0,328.81,270.11Z"/><path class="cls-38" d="M312.54,244.94a3.15,3.15,0,0,1,2.21-4.82l8.58-1.18a1.13,1.13,0,0,0,1-1.27,2.5,2.5,0,0,0-.09-.25l-8.47,1.17a5.41,5.41,0,0,0-4.17,3,5.16,5.16,0,0,0,.36,5.07l16.19,24.66a15.11,15.11,0,0,1,2.34,6.2l.32,2.37a1.09,1.09,0,0,0,.66.83,1.1,1.1,0,0,0,.4-1l-.33-2.42a18.11,18.11,0,0,0-2.69-7.24Z"/><path class="cls-16" d="M311.39,241.52c-.51,1.07-.17,3-1,2a2.38,2.38,0,0,1,.17-2.31c.51-1.07,1.22-1.63,1.69-1.58C313.12,239.75,311.9,240.44,311.39,241.52Z"/><path class="cls-11" d="M376.37,314.23a9.32,9.32,0,0,0,7.2-10.59l-.09-.6a7.7,7.7,0,0,0-8.66-6.59l-4.65.76a4.45,4.45,0,0,1-5-3.81l0-.21a9.65,9.65,0,0,1,7.63-11.29,36.37,36.37,0,0,0-10.17-7.32l-5.52-2.66A21.36,21.36,0,0,0,344.34,270l-9,1.48c-9,1.49-24.61,7.94-24.82,26.17C310.19,325.76,356.74,318.52,376.37,314.23Z"/><path class="cls-10" d="M332.2,284.34a7.71,7.71,0,0,0,6.94-.1c8.25-4.36,9.38-7.19,19.78-11.43l-1.85-.89A21.36,21.36,0,0,0,344.34,270l-9,1.48c-7.86,1.3-20.71,6.37-24,19.72C315.62,292.79,312.81,275,332.2,284.34Z"/><path class="cls-13" d="M320.85,314.41c14.81,7.26,41.77,2.83,55.52-.18a9.28,9.28,0,0,0,6.56-5.42c-16.41-4-31.72-9-53.32,3.94C325.49,315.21,324.8,311.73,320.85,314.41Z"/><path d="M321.11,282.51l4.18-.57s8.78,2,10.67,14.14-7.52,15.38-7.52,15.38l-2.79.38S317.54,296,321.11,282.51Z"/><path class="cls-8" d="M320.24,282.58l4.19-.57s8.78,2,10.67,14.14-7.52,15.38-7.52,15.38l-2.79.38S316.68,296,320.24,282.58Z"/><path class="cls-38" d="M333.3,290.12c-.31-.63-.62-1.23-1-1.78a67.64,67.64,0,0,0-12.87-.95c-.08,1.06-.1,2.11-.08,3.16A55.16,55.16,0,0,1,333.3,290.12Z"/><path class="cls-38" d="M321.81,304.38a54.54,54.54,0,0,0,3,7.53l2.79-.38a12.41,12.41,0,0,0,7.37-8.79C330.61,303.56,326.21,304,321.81,304.38Z"/><path class="cls-17" d="M324.43,282l-4.19.57a28,28,0,0,0-.77,4.81,67.64,67.64,0,0,1,12.87.95A14,14,0,0,0,324.43,282Z"/><path class="cls-37" d="M320.24,282.58c-5.29,1.61-8.53,8.4-7.36,16s6.35,13.22,11.91,13.37c5.77-1.68,9.39-8.52,8.22-16.08S326.29,282.66,320.24,282.58Z"/><ellipse cx="322.1" cy="297.04" rx="8.38" ry="13.48" transform="translate(-44.69 57.36) rotate(-9.52)"/><ellipse class="cls-37" cx="321.18" cy="297.17" rx="7.75" ry="10.98" transform="translate(-46.43 59.83) rotate(-9.93)"/><path class="cls-40" d="M319.5,286.32a5.94,5.94,0,0,0-1.17.31c3.8.31,7.31,4.41,8.15,9.82s-1.28,10.27-4.83,11.58a5.44,5.44,0,0,0,1.21,0c4.25-.57,6.93-5.89,6-11.88S323.74,285.75,319.5,286.32Z"/><path class="cls-32" d="M317.13,303.08a17.74,17.74,0,0,1-1.91.15c1.82,3.21,4.72,5.18,7.64,4.78,4.25-.57,6.93-5.89,6-11.88,0-.21-.08-.42-.12-.63C327,299.31,322.59,302.34,317.13,303.08Z"/><path class="cls-33" d="M321.41,293.5c-.11,2.72-1.72,5-3.58,5s-3.29-2.11-3.17-4.84,1.72-5,3.59-5S321.53,290.77,321.41,293.5Z"/><ellipse cx="362.5" cy="282.9" rx="2.66" ry="1.2" transform="translate(-35.26 52.19) rotate(-7.85)"/><ellipse class="cls-19" cx="392.68" cy="232.55" rx="6.79" ry="13.84" transform="matrix(0.99, -0.14, 0.14, 0.99, -28.09, 55.84)"/><path class="cls-11" d="M386.12,234.49c1.24,7.06,4.91,12.26,8.45,11.77,3.23-.44,5.28-5.46,5.08-11.74C390.9,238.42,390.21,235.66,386.12,234.49Z"/><path class="cls-36" d="M395.06,241.15c-3.11.43-6.16-1.24-8.38-4.17,1.57,5.75,4.78,9.71,7.89,9.28,2.42-.33,4.18-3.24,4.82-7.32A7.66,7.66,0,0,1,395.06,241.15Z"/><path class="cls-17" d="M393.29,225.49c.31,0,4.41.56,4.72.53-1.71-4.59-4.5-7.56-7.22-7.19-3.36.47-5.44,5.87-5,12.49C389.93,232.15,388.74,226.12,393.29,225.49Z"/><path class="cls-37" d="M394,222a6.64,6.64,0,0,1,2,.05c-1.54-2.22-3.39-3.47-5.2-3.22-3.72.51-5.88,7.07-4.84,14.65C386,234.12,386.07,223.06,394,222Z"/><path class="cls-33" d="M399,230.19v-.07c-1.2-4.29-3-.6-4.43-.86-4.68-.84-5.17,1.57-7.88,5.23-.13.17,0,.33.21.31,3.92-.54,2.54-1.65,5.43-2.63a23.13,23.13,0,0,1,5.18-.9C398.22,231.22,399.18,230.85,399,230.19Z"/><ellipse cx="387.48" cy="234.53" rx="1.64" ry="2.7" transform="translate(-28.41 55.15) rotate(-7.85)"/><path class="cls-38" d="M386.4,235.9c4.18,1.64,6.93,1.4,13.25.07a26.17,26.17,0,0,0-.25-4.35c0-.32-5,.13-7.29,1-1.89.7-1.06,1.67-6.08,1.36C386.14,234.63,386.26,235.27,386.4,235.9Z"/><path class="cls-39" d="M390.79,218.83a3.6,3.6,0,0,0-1,.32c3.37.57,6.62,5.89,7.57,12.75s-.75,12.87-3.83,14.33a3.37,3.37,0,0,0,1.05,0c3.71-.51,5.88-7.07,4.83-14.64S394.5,218.32,390.79,218.83Z"/><path class="cls-18" d="M362.55,283.45a1.32,1.32,0,0,1-1.49-1.13l-.39-2.79a21.17,21.17,0,0,1,.75-9.12l9.28-30a8.26,8.26,0,0,1,6.74-5.72l9-1.24a1.32,1.32,0,1,1,.36,2.62l-9,1.24a5.61,5.61,0,0,0-4.57,3.88l-9.28,30a18.42,18.42,0,0,0-.65,8l.38,2.79A1.33,1.33,0,0,1,362.55,283.45Z"/><path class="cls-16" d="M387.9,234.48a1.35,1.35,0,0,0-.89-.21l-9,1.24a8.29,8.29,0,0,0-2.74.92.17.17,0,0,0,0-.22c-.28-.3-1.22.12-2.08.94s-1.33,1.73-1.05,2a.19.19,0,0,0,.1.05,7.9,7.9,0,0,0-.94,2l-9.29,30a21.33,21.33,0,0,0-.74,9.12l.38,2.8,0,.08a1.25,1.25,0,0,0,.89.21,1.33,1.33,0,0,0,1.13-1.49l-.38-2.79a18.42,18.42,0,0,1,.65-8l9.28-30a5.61,5.61,0,0,1,4.57-3.88l9-1.24a1.32,1.32,0,0,0,1.13-1.49A.32.32,0,0,0,387.9,234.48Z"/><path class="cls-38" d="M386.8,236.06a1.31,1.31,0,0,0,1.13-1.41,1.29,1.29,0,0,0-.39,0l-9,1.25a8.23,8.23,0,0,0-6.73,5.71l-9.29,30a21.36,21.36,0,0,0-.74,9.13l.37,2.71a1.41,1.41,0,0,0,.41,0,1.33,1.33,0,0,0,1.13-1.49l-.38-2.79a18.42,18.42,0,0,1,.65-8l9.28-30a5.61,5.61,0,0,1,4.57-3.88Z"/><path class="cls-41" d="M361.42,270.41a21,21,0,0,0-.75,9.12l.39,2.79a1.32,1.32,0,1,0,2.62-.36l-.38-2.79a18.42,18.42,0,0,1,.65-8l3.25-10.5a3.79,3.79,0,0,1-3.08,1Z"/><path class="cls-32" d="M571.16,316.16c-18.87,5.57-53.49,19.51-74.72,50.61-.95,1.38.79,3.08,2,2A162.33,162.33,0,0,1,570,332.46,43.15,43.15,0,0,0,571.16,316.16Z"/><path class="cls-14" d="M571.21,316.16l-.12,0a15.22,15.22,0,0,0-10.65,17.08h0a1.42,1.42,0,0,0,1.79,1.14c2.77-.77,5.39-1.42,7.81-2A43.18,43.18,0,0,0,571.21,316.16Z"/><path class="cls-11" d="M570.52,320.64h0a10,10,0,0,0-7,11.17h0a.93.93,0,0,0,1.17.74c1.17-.32,2.3-.62,3.38-.88a2.9,2.9,0,0,0,2.16-2.28A28.8,28.8,0,0,0,570.52,320.64Z"/><path class="cls-10" d="M569.07,318.45h0a7.52,7.52,0,0,0-5.29,8.42h0a.71.71,0,0,0,.89.56c.88-.24,1.73-.47,2.55-.66a2.21,2.21,0,0,0,1.63-1.73A21.79,21.79,0,0,0,569.07,318.45Z"/><path d="M562.14,334.8a1.8,1.8,0,0,1-2.07-1.47A15.6,15.6,0,0,1,571,315.84a.37.37,0,0,1,.46.24.38.38,0,0,1-.25.46,14.88,14.88,0,0,0-10.4,16.67,1,1,0,0,0,.47.71,1.07,1.07,0,0,0,.87.13c2.7-.75,5.33-1.4,7.82-1.95a.37.37,0,0,1,.44.28.36.36,0,0,1-.28.43c-2.47.55-5.1,1.21-7.79,1.95Z"/><path class="cls-32" d="M422.16,443.06l-19.94,3.28c-3.65.6-12.58-1-13.18-4.63h0l75.58-12.41h0C465.22,433,435.34,440.9,422.16,443.06Z"/><path class="cls-12" d="M401.7,293.92l55.2-3.18c31.9-4.4,33-85,15.22-82.51-13.72,2-19.78,52.62-19.78,52.62-10.15,15.09-54.9,22.15-54.9,22.15Z"/><path class="cls-13" d="M473,208.18c7.27,20.17,1.24,70.92-23.89,74.39l-50.73,2.92,3.29,8.43,55.2-3.18C488.25,286.41,489.88,208.48,473,208.18Z"/><ellipse class="cls-11" cx="417.51" cy="156.96" rx="50.75" ry="53.44" transform="translate(-17.53 58.53) rotate(-7.85)"/><path class="cls-13" d="M406.74,194.3a91.68,91.68,0,0,1-25,.06c10.94,11.54,26.65,17.81,43.06,15.54,27.53-3.79,46.67-30.19,43.05-59.14C460.68,172.25,436.93,190.13,406.74,194.3Z"/><path class="cls-7" d="M368.7,141.47a55.4,55.4,0,0,0-1.46,22.43,56,56,0,0,0,2.44,10.39c8.1,23.89,35.25,34.88,56,22.49,29.23-17.45,14.81-61.09,14.81-61.09C406,148.33,381.72,145.29,368.7,141.47Z"/><path class="cls-10" d="M378.62,168.72c-4.25-30.79,16-59,45.26-63.06a52.17,52.17,0,0,1,5.41-.46A48.52,48.52,0,0,0,410.21,104c-27.77,3.83-47,30.64-43,59.88,2.84,20.61,16.5,36.91,34,43.41A57.54,57.54,0,0,1,378.62,168.72Z"/><ellipse class="cls-42" cx="385.02" cy="123.75" rx="9.17" ry="3.97" transform="translate(32.15 321.34) rotate(-47.06)"/><path class="cls-8" d="M405.39,297.38l-32.73-2.12a5.29,5.29,0,0,1-4.94-5.62h0a5.29,5.29,0,0,1,5.62-4.94l32.73,2.12a5.29,5.29,0,0,1,4.94,5.62h0A5.29,5.29,0,0,1,405.39,297.38Z"/><path class="cls-7" d="M367.73,289.58s0,0,0,.06a5.29,5.29,0,0,0,4.94,5.62l32.73,2.12a5.29,5.29,0,0,0,5.62-4.94v-.06Z"/><circle class="cls-7" cx="405.73" cy="292.1" r="5.29" transform="translate(-87.83 212.51) rotate(-26.59)"/><path class="cls-8" d="M409,292.31a3.31,3.31,0,1,1-3.09-3.51A3.3,3.3,0,0,1,409,292.31Z"/><path class="cls-43" d="M390.21,279s-8.13-.1-12.41,11.24c-.85,2.27-.06,6.82,1.63,7.44,7.52,2.77,16.86-2.87,13.79-6.38-1.18-1.35,2.61-5.13,13.06-4.46,1.74.11-1.28-4.14-5.58-5.27C396.58,280.48,390.21,279,390.21,279Z"/></g></g></svg>